<svg width="750" height="750" viewBox="0 0 750 750" fill="none" xmlns="http://www.w3.org/2000/svg">
<g clip-path="url(#clip0_3_2)">
<path fill-rule="evenodd" clip-rule="evenodd" d="M283.673 533.674C388.427 563.133 439.399 450.085 529.154 458.685C578.286 463.393 676.219 487.256 676 313.431C675.453 201.209 572.016 173.108 465.351 230.659C433.964 242.934 409.184 239.13 382.278 226.934C355.373 214.738 320.77 160.291 255.553 149.09C59.2944 115.383 -108.63 423.353 283.673 533.674Z" fill="#64FCD9"/>
<path fill-rule="evenodd" clip-rule="evenodd" d="M532.609 251.347C534.574 250.391 538.1 252.244 536.055 255.226C531.525 261.83 549.042 275.021 543.419 263.397C542.818 262.154 539.735 253.559 544.097 257.997C548.46 262.434 554.542 282.043 550.608 288.799C547.156 294.728 538.02 297.549 525.548 297.882L524.987 297.895L524.721 297.911C517.369 298.253 511.794 293.703 508.196 284.842L508.023 284.41C504.38 275.135 505.379 267.7 511.27 262.687C511.377 262.596 511.492 262.514 511.612 262.442L511.798 262.342L532.609 251.347Z" fill="white"/>
<path fill-rule="evenodd" clip-rule="evenodd" d="M135.425 77.764C134.568 76.548 133.178 75.847 131.694 76.028C130.174 76.213 128.903 77.27 128.441 78.728L128.317 79.118C128.224 79.405 128.113 79.735 127.982 80.106C127.609 81.164 127.157 82.339 126.623 83.602C125.105 87.194 123.236 90.779 121.005 94.113C116.192 101.309 110.393 106.318 103.595 108.247C102.532 108.548 101.915 109.654 102.217 110.717C102.37 111.256 112.298 116.218 122.434 114.967C132.265 113.754 142.313 106.342 142.394 105.838L142.518 104.787L142.553 104.435C143.257 96.799 141.921 88.173 136.779 79.817C136.351 79.123 135.9 78.439 135.425 77.764Z" fill="#E7EAEE"/>
<path fill-rule="evenodd" clip-rule="evenodd" d="M155.884 79.984L155.832 80.388C155.119 85.558 153.124 92.757 149.514 98.188C145.071 104.874 138.8 109.987 132.498 113.283C123.406 118.036 113.511 118.906 103.767 112.731L103.337 112.454C98.217 109.105 94.331 107.493 89 108.823C83.668 110.154 81.079 114.037 78.7776 117.64L78.6721 117.792C78.3031 118.285 77.7635 118.626 77.1553 118.746L67.0469 120.347L70.728 124.92C71.8359 126.307 72.6235 127.306 73.0906 127.918L77.1366 133.249C89.195 149.064 102.172 164.164 127.478 158.937L128.336 158.753C135.04 157.262 140.661 161.265 147.713 167.164L149.22 168.433C151.085 170.012 156.725 174.983 159.033 177.377L159.787 178.168L160.483 178.917C160.628 179.075 160.766 179.227 160.897 179.372L161.617 180.183L162.059 179.662C166.832 173.915 169.822 165.162 171.37 157.942C171.954 155.214 172.29 152.602 172.43 150.192L172.447 149.878C172.483 149.173 172.499 148.558 172.502 148.045V147.663L171.781 147.875C163.435 150.242 154.044 150.477 144.881 149.42C142.668 149.165 166.949 129.498 161.965 104.029C160.829 98.225 160.108 90.464 158.124 85.196C157.498 83.534 156.85 82.015 156.207 80.657L155.884 79.984Z" fill="white"/>
<path fill-rule="evenodd" clip-rule="evenodd" d="M533.665 254.489L512.891 264.588C507.911 268.825 507.064 275.127 510.35 283.493C511.503 286.429 514.388 293.421 514.388 290.675C514.388 289.817 533.665 277.216 537.364 278.449C540.783 279.589 534.64 269.313 532.918 264.588L533.665 254.231L534.236 253.199" fill="#E7EAEE"/>
<path fill-rule="evenodd" clip-rule="evenodd" d="M505.948 262.07C507.329 262.07 499.505 265.75 499.908 272.536C500.311 279.321 505.614 291.828 504.325 292.321C503.035 292.814 500.59 289.168 500.097 287.878C497.03 279.853 496.45 276.579 496.559 271.898C496.703 265.771 499.925 262.07 505.948 262.07Z" fill="#E7EAEE"/>
<path d="M540.762 280.992C543.744 280.992 546.162 275.53 546.162 268.793C546.162 262.056 543.744 256.594 540.762 256.594C537.78 256.594 535.362 262.056 535.362 268.793C535.362 275.53 537.78 280.992 540.762 280.992Z" fill="#E7EAEE"/>
<path fill-rule="evenodd" clip-rule="evenodd" d="M163.567 397.415C163.567 376.247 165.919 367.044 191.173 355.492C242.933 334.571 242.933 333.764 342.093 295.427C368.317 285.34 423.603 309.502 447.644 299.376C463.671 292.626 478.658 287.613 491.9 280.918C493.182 289.291 501.471 303.467 504.39 305.904C488.884 309.158 473.885 314.19 459.393 321.001C428.064 335.723 446.629 331.711 397.006 378.507C392.8 382.473 377.347 391.515 355.002 400.934C355.002 400.934 310.002 394.891 291.954 387.384C273.586 379.744 245.754 355.492 245.754 355.492C245.754 355.492 213.294 376.669 194.633 386.188C185.898 390.643 163.567 397.415 163.567 397.415Z" fill="white"/>
<path fill-rule="evenodd" clip-rule="evenodd" d="M163.567 386.415C163.567 381.446 163.042 377.978 163.567 374.143C165.278 361.639 171.984 355.242 191.311 346.401C243.071 325.48 242.933 322.764 342.093 284.427C368.317 274.34 423.602 298.502 447.643 288.376C463.671 281.626 478.658 276.613 491.9 269.918C491.937 270.158 490.559 281.6 490.559 281.6C490.559 281.6 457.871 298.862 436.248 302.522C413.273 306.411 381.717 288.376 350.208 297.246C302.223 310.754 191.646 353.21 178.565 363.85C168.287 372.21 163.567 386.415 163.567 386.415Z" fill="#E7EAEE"/>
<path fill-rule="evenodd" clip-rule="evenodd" d="M135.425 77.764C134.568 76.548 133.178 75.847 131.694 76.028C130.174 76.213 128.903 77.27 128.441 78.728L128.317 79.118C128.224 79.405 128.113 79.735 127.982 80.106C127.609 81.164 127.157 82.339 126.623 83.602C125.105 87.194 123.236 90.779 121.005 94.113C116.192 101.309 110.393 106.318 103.595 108.247C102.532 108.548 101.915 109.654 102.217 110.717C102.518 111.779 119.035 104.252 124.33 96.337C126.713 92.774 128.697 88.97 130.307 85.16C130.793 84.01 131.216 82.927 131.578 81.928L131.755 81.435C131.896 81.033 132.018 80.672 132.122 80.353C132.148 80.126 132.172 80.05 132.195 80.125C143.652 87.963 139.148 107.416 140.249 107.511C141.299 107.601 142.23 106.862 142.394 105.838L142.518 104.787L142.553 104.435C143.257 96.799 141.921 88.173 136.779 79.817C136.351 79.123 135.9 78.439 135.425 77.764Z" fill="#E7EAEE"/>
<path fill-rule="evenodd" clip-rule="evenodd" d="M159.283 77.706L159.535 78.157L159.843 78.735C160.029 79.091 160.237 79.504 160.464 79.971C161.25 81.588 162.043 83.418 162.803 85.436C164.943 91.116 166.438 97.246 166.949 103.633C167.642 112.3 166.391 120.479 163.222 127.92L162.951 128.545C160.377 134.358 156.627 139.684 151.759 144.462L151.276 144.929L151.686 144.949C158.697 145.244 165.63 144.616 171.724 142.673C173.031 142.256 174.456 142.471 175.582 143.254C176.706 144.036 177.404 145.294 177.474 146.661L177.49 147.085L177.5 147.646V147.862C177.5 148.644 177.477 149.522 177.421 150.483C177.268 153.138 176.9 156.002 176.259 158.992C174.448 167.439 170.828 175.35 164.911 182.016C164.125 182.901 163.021 183.431 161.846 183.494L161.575 183.5C160.321 183.477 159.175 182.958 158.361 182.073L157.765 181.38L157.473 181.048L156.852 180.359L156.172 179.624C155.935 179.373 155.689 179.114 155.434 178.85C153.262 176.597 150.864 174.364 148.317 172.309C141.259 166.613 134.45 163.397 128.635 163.746C119.124 164.317 111.247 163.873 103.939 161.822C94.492 159.172 87.073 153.971 82.164 145.691L81.8888 145.219C79.3472 140.787 75.5934 135.681 71.1655 130.367C69.7971 128.724 68.4474 127.162 67.1609 125.718L66.6135 125.106C65.7371 124.131 65.019 123.354 64.718 123.038C63.6068 121.867 63.2206 120.187 63.7061 118.651L63.7774 118.443C64.3107 117.008 65.551 115.944 67.0627 115.645L75.169 114.043L75.2634 113.907C78.164 109.784 82.3054 106.292 87.807 104.885C93.545 103.418 99.583 104.694 105.664 108.552L106.088 108.825C114.301 114.197 122.441 113.9 130.181 109.854C135.709 106.963 140.979 102.054 144.971 96.047C148.684 90.461 150.89 84.49 151.048 79.777C151.113 77.808 152.472 76.117 154.382 75.635C156.294 75.151 158.294 75.998 159.283 77.706ZM155.884 79.986L155.832 80.39C155.12 85.56 153.124 92.759 149.515 98.19C145.071 104.876 138.8 109.989 132.498 113.285C123.407 118.038 113.511 118.908 103.767 112.733L103.337 112.456C98.217 109.107 94.331 107.495 89 108.825C83.669 110.156 81.0791 114.039 78.7777 117.642L78.6722 117.794C78.3033 118.287 77.7637 118.628 77.1554 118.748L67.047 120.349L70.7281 124.922C71.8361 126.309 72.6236 127.308 73.0907 127.92L77.1368 133.251C89.195 149.066 102.172 164.166 127.478 158.939L128.336 158.755C135.04 157.264 140.661 161.267 147.713 167.166L149.22 168.435C151.085 170.014 156.725 174.985 159.033 177.379L159.787 178.17L160.483 178.919C160.628 179.077 160.766 179.229 160.898 179.374L161.617 180.185L162.059 179.664C166.832 173.917 169.822 165.164 171.37 157.944C171.955 155.216 172.29 152.604 172.43 150.194L172.447 149.88C172.483 149.175 172.499 148.56 172.502 148.047V147.665L171.781 147.877C163.435 150.244 154.044 150.479 144.881 149.422C142.668 149.167 166.949 129.5 161.965 104.031C160.829 98.227 160.108 90.466 158.124 85.198C157.499 83.536 156.85 82.017 156.207 80.659L155.884 79.986Z" fill="#E7EAEE"/>
<path fill-rule="evenodd" clip-rule="evenodd" d="M92.5 125C94.43 125 96 123.43 96 121.5C96 119.57 94.43 118 92.5 118C90.57 118 89 119.57 89 121.5C89 123.43 90.57 125 92.5 125Z" fill="#00160A"/>
<path d="M95.5 139C98.5376 139 101 136.985 101 134.5C101 132.015 98.5376 130 95.5 130C92.4624 130 90 132.015 90 134.5C90 136.985 92.4624 139 95.5 139Z" fill="#FFB61D"/>
<path d="M95.5 139C98.5376 139 101 136.985 101 134.5C101 132.015 98.5376 130 95.5 130C92.4624 130 90 132.015 90 134.5C90 136.985 92.4624 139 95.5 139Z" fill="#FFB61D"/>
<path fill-rule="evenodd" clip-rule="evenodd" d="M159.283 77.706L159.535 78.157L159.843 78.735C160.029 79.091 160.237 79.504 160.464 79.971C161.25 81.588 162.043 83.418 162.803 85.436C164.943 91.116 166.438 97.246 166.949 103.633C167.642 112.3 166.391 120.479 163.222 127.92L162.951 128.545C160.377 134.358 156.627 139.684 151.758 144.462L151.276 144.929L151.686 144.949C158.697 145.244 165.629 144.616 171.724 142.673C173.031 142.256 174.456 142.471 175.582 143.254C176.706 144.036 177.404 145.294 177.474 146.661L177.49 147.085L177.5 147.646V147.862C177.5 148.644 177.477 149.522 177.421 150.483C177.267 153.138 176.899 156.002 176.259 158.992C174.448 167.439 170.828 175.35 164.911 182.016C164.125 182.901 163.02 183.431 161.846 183.494L161.575 183.5C160.32 183.477 159.175 182.958 158.361 182.073L157.765 181.38L157.473 181.048L156.852 180.359L156.171 179.624C155.935 179.373 155.689 179.114 155.434 178.85C153.261 176.597 150.864 174.364 148.317 172.309C141.258 166.613 134.45 163.397 128.635 163.746C119.123 164.317 111.247 163.873 103.939 161.822C94.491 159.172 87.073 153.971 82.1638 145.691L81.8887 145.219C79.347 140.787 75.5932 135.681 71.1654 130.367C69.797 128.724 68.4472 127.162 67.1607 125.718L66.6134 125.106C65.7369 124.131 65.0188 123.354 64.7179 123.038C63.6067 121.867 63.2205 120.187 63.7059 118.651L63.7773 118.443C64.3105 117.008 65.5509 115.944 67.0626 115.645L75.1689 114.043L75.2633 113.907C78.1638 109.784 82.3052 106.292 87.806 104.885C93.221 103.5 98.904 104.559 104.637 107.925C110.987 105.796 116.44 100.939 121.005 94.114C123.236 90.779 125.105 87.194 126.623 83.603C127.157 82.339 127.609 81.165 127.982 80.106C128.113 79.736 128.224 79.406 128.318 79.118L128.441 78.728C128.903 77.27 130.174 76.213 131.694 76.029C133.178 75.847 134.568 76.548 135.425 77.765C135.901 78.439 136.352 79.124 136.779 79.818C140.77 86.304 142.469 92.953 142.7 99.175C143.494 98.172 144.253 97.127 144.971 96.047C148.683 90.461 150.89 84.49 151.047 79.777C151.113 77.808 152.472 76.117 154.382 75.635C156.294 75.151 158.294 75.998 159.283 77.706ZM130.181 109.854C122.663 113.784 114.767 114.177 106.794 109.273C112.162 106.791 120.775 101.652 124.33 96.338C126.713 92.775 128.697 88.97 130.307 85.16C130.793 84.011 131.216 82.928 131.579 81.928L131.755 81.436C131.896 81.033 132.018 80.672 132.122 80.354C132.148 80.126 132.172 80.05 132.195 80.125C139.811 85.336 140.374 95.678 140.219 102.055C137.158 105.322 133.723 108.002 130.181 109.854ZM132.498 113.285C135.549 111.689 138.592 109.668 141.425 107.248C141.643 107.122 141.835 106.954 141.991 106.756C144.791 104.287 147.366 101.422 149.514 98.19C153.124 92.759 155.119 85.56 155.832 80.39L155.884 79.986L156.207 80.659C156.85 82.017 157.498 83.536 158.124 85.198C159.505 88.864 160.274 93.737 160.997 98.318V98.319C161.312 100.32 161.619 102.266 161.965 104.031C165.785 123.552 152.413 139.664 146.955 146.24C145.292 148.244 144.364 149.362 144.881 149.422C154.044 150.479 163.435 150.244 171.781 147.877L172.502 147.665V148.047C172.499 148.56 172.483 149.175 172.447 149.88L172.43 150.194C172.29 152.604 171.954 155.216 171.37 157.944C169.822 165.164 166.832 173.917 162.059 179.664L161.617 180.185L160.897 179.374C160.766 179.229 160.628 179.077 160.483 178.919L159.787 178.17L159.033 177.379C156.725 174.985 151.085 170.014 149.22 168.435L147.713 167.166C140.661 161.267 135.04 157.264 128.336 158.755L127.478 158.939C102.172 164.166 89.195 149.066 77.1366 133.251L73.0906 127.92C72.6235 127.308 71.8359 126.309 70.728 124.922L67.0469 120.349L77.1553 118.748C77.7635 118.628 78.3031 118.287 78.6721 117.794L78.7775 117.642C81.079 114.039 83.668 110.156 89 108.825C94.331 107.495 98.217 109.107 103.337 112.456L103.767 112.733C113.511 118.908 123.406 118.038 132.498 113.285ZM532.608 251.346C534.574 250.39 538.1 252.243 536.054 255.226C532.958 259.741 536.398 270.225 538.494 276.61V276.611V276.612C539.464 279.565 540.145 281.641 539.758 281.844C538.534 282.483 537.024 282.01 536.384 280.786C532.921 274.16 530.932 268.898 530.436 264.898C530.19 262.908 530.135 260.983 530.274 259.125L530.293 258.911L514.283 266.693L514.08 266.879C510.466 270.269 508.876 274.205 511.521 281.177L511.677 281.582C514.548 288.892 519.408 294.135 524.465 293.917L524.86 293.897C536.097 293.671 542.813 290.29 545.21 286.172C548.224 280.995 549.042 275.021 543.419 263.396C542.818 262.154 539.734 253.559 544.097 257.996C548.46 262.433 554.542 282.042 550.608 288.798C547.324 294.438 538.897 297.266 527.348 297.815C527.415 298.109 527.43 298.421 527.384 298.737C526.29 306.161 522.901 310.831 517.235 312.182C512.902 313.215 508.245 311.847 503.979 308.549C488.992 311.767 474.485 316.672 460.456 323.265L458.378 324.249C451.22 327.668 447.116 329.96 444.119 332.188C442.361 333.494 440.909 334.833 439.348 336.555L439.096 336.842C438.338 337.72 436.688 339.735 434.811 342.029L434.807 342.033L434.805 342.036L434.804 342.037L434.803 342.039L434.797 342.046L434.794 342.05C432.295 345.101 429.399 348.639 427.669 350.642L426.833 351.605C419.792 359.672 410.918 368.825 398.721 380.328L398.379 380.641C393.806 384.728 381.654 391.636 366.5 398.603C408.321 397.117 438.478 381.155 457.258 350.689C458.084 349.348 459.929 349.096 461.085 350.166C493.378 380.074 530.795 393.915 573.481 391.754C616.28 389.586 647.688 378.462 667.801 358.491C668.78 357.518 670.363 357.524 671.336 358.504C672.309 359.483 672.303 361.066 671.324 362.039C650.225 382.99 605.43 398.711 561.501 400.935C518.78 403.098 493.29 385.496 460.696 356.564L459.9 355.852L459.615 356.29C438.972 387.573 394.125 410.39 349.37 410.713L347.967 410.718C302.19 410.718 275.789 388.552 244.905 358.256L244.664 358.019L244.554 358.113L243.747 358.792L242.574 359.778L241.856 360.383C212.917 384.736 191.324 402.908 158.842 407.55L157.806 407.695C121.183 415.104 65.6386 395.367 57.1031 385.692C49.2823 376.828 58.4044 382.338 60.9087 383.851C61.1375 383.989 61.3112 384.094 61.4115 384.151C85.651 398.029 113.599 403.314 147.131 398.741C151.758 398.109 156.357 397.274 160.926 396.234L160.873 395.741C159.409 381.836 159.4 375.758 161.51 368.782C164.379 359.294 171.346 352.084 183.878 346.352L187.329 344.826C202.809 338.004 215.103 332.882 227.855 327.905L228.789 327.541C230.219 326.985 231.668 326.425 233.147 325.858L234.596 325.305C235.12 325.12 241.951 322.412 252.335 318.295C276.287 308.799 319.144 291.809 347.102 280.999C353.15 278.673 360.473 277.9 369.455 278.364L370.229 278.407C376.958 278.803 383.576 279.716 394.425 281.593L403.958 283.263C414.602 285.105 419.76 285.832 425.782 286.261C427.675 286.396 429.474 286.563 431.184 286.722C437.516 287.31 442.613 287.784 446.673 286.074C450.275 284.557 453.806 283.092 457.266 281.657L457.267 281.656L457.294 281.645H457.295C468.642 276.938 479.226 272.548 489.048 267.665C489.722 263.297 491.443 260.072 494.14 257.948C498.3 254.672 504.189 254.617 509.297 256.603C510.584 257.104 511.221 258.553 510.721 259.839C510.559 260.256 509.519 260.064 508.047 259.793C504.969 259.225 500.004 258.309 497.233 261.876C494.151 265.845 493.127 271.924 495.857 283.894C497.835 292.569 510.659 307.319 516.075 307.319C522.114 307.319 523.526 301.456 524.327 298.131L524.377 297.923C517.195 298.109 511.738 293.564 508.196 284.842L508.023 284.41C504.38 275.134 505.379 267.699 511.27 262.686C511.377 262.595 511.492 262.513 511.612 262.442L511.798 262.342L532.608 251.346ZM499.366 304.029C499.113 303.723 498.863 303.409 498.616 303.088C498.521 302.988 498.432 302.887 498.354 302.793C498.126 302.516 497.893 302.235 497.654 301.949C495.717 299.622 493.472 296.925 491.714 293.037L491.459 292.47C488.639 286.153 488.303 279.057 488.476 273.206L488.502 272.527L488.353 272.602C476.702 278.368 464.028 284.153 450.331 289.956L448.614 290.682C442.749 293.152 435.425 294.897 426.144 294.297L425.427 294.248C419.086 293.796 413.753 293.038 402.57 291.097L394.221 289.633C370.684 285.558 358.906 284.922 349.201 288.551C349.201 288.551 204.468 342.996 185.931 350.91C174.658 356.067 170.833 360.92 166.171 368.782C163.759 372.849 164.003 384.068 164.173 391.86V391.862C164.201 393.168 164.227 394.378 164.239 395.442C191.605 388.598 217.911 374.369 243.174 352.726C244.17 351.873 245.656 351.934 246.578 352.866C248.622 354.933 250.7 356.929 252.812 358.855L357.036 315.312C357.322 315.192 357.617 315.13 357.909 315.119C358.694 314.749 359.541 314.443 360.449 314.201C369.537 311.785 376.795 315.716 381.809 325.392L390.894 318.765C392.234 317.788 394.137 318.362 394.712 319.917C403.002 342.322 400.587 357.674 386.936 365.082C373.169 372.552 361.197 366.392 351.863 347.721C351.39 346.774 351.576 345.679 352.231 344.941C350.006 335.902 349.593 328.7 351.107 323.485L259.793 364.867C273.447 375.952 288.44 384.313 304.783 389.952C305.157 389.594 305.562 389.286 305.96 389.069C319.726 381.528 353.642 372.72 362.02 370.544C362.745 370.356 363.278 370.217 363.591 370.133C367.522 369.08 363.495 372.753 362.308 373.301L362.157 373.365L312.655 392.427C327.381 396.622 343.149 398.718 359.967 398.718C360.924 398.718 361.874 398.711 362.819 398.696L363.926 397.976H363.927L363.928 397.975L363.93 397.974C374.516 391.093 392.217 379.588 395.29 376.69L396.724 375.334C406.916 365.444 414.501 355.957 421.123 347.675C428.387 338.589 434.491 330.954 441.604 325.832C447.134 321.85 449.138 320.94 453.849 318.802C455.109 318.23 456.562 317.57 458.329 316.74C470.823 310.868 485.012 307.469 498.331 304.277L499.366 304.029ZM361.734 319.033C368.935 317.119 374.329 320.501 378.44 329.944L367.818 338.365L367.807 338.369L356.832 342.7L356.558 341.495C353.552 327.871 355.51 320.688 361.734 319.033ZM378.44 329.944L367.827 338.362C368.04 338.278 368.259 338.225 368.478 338.201C368.679 338.18 368.88 338.183 369.076 338.21C369.542 338.272 369.985 338.466 370.349 338.77C370.588 338.97 370.792 339.216 370.946 339.503C373.451 344.014 375.388 345.088 377.354 343.985C379.436 342.818 380.09 338.429 378.569 330.588L378.44 329.944ZM240.738 432.595C241.9 431.847 249.914 427.937 242.777 435.287C235.64 442.636 180.056 473.816 150.052 475.543C121.133 477.207 95.457 465.13 73.1174 449.323L72.377 448.795L72.2294 448.985C71.2405 450.239 70.2244 451.377 69.1802 452.398L68.7309 452.829C66.8387 454.605 63.5638 456.616 58.8322 458.953C57.5943 459.564 53.2201 460.127 55.4836 457.818C57.747 455.51 62.701 452.187 65.5862 450.281C67.4717 449.036 68.0671 447.58 68.6579 446.135C68.9711 445.369 69.283 444.606 69.7852 443.879C70.5916 442.713 72.2061 442.45 73.341 443.3C95.364 459.806 121.09 468.605 150.052 466.938C179.133 465.264 209.168 452.908 240.738 432.595ZM411.787 448.534C412.801 447.598 412.801 440.918 411.787 441.854C400.554 452.219 377.037 461.336 348.018 463.006C318.962 464.678 296.118 460.11 279.441 449.386C278.28 448.639 272.531 446.664 275.986 450.137C279.441 453.609 318.275 471.726 348.305 469.997L349.204 469.944C378.794 468.138 399.655 459.729 411.787 448.534ZM391.275 325.233L391.125 324.784L383.598 330.276L383.736 331.052C385.25 339.905 384.217 345.691 380.02 348.219L379.8 348.347C375.424 350.8 371.305 349.067 367.861 344.025L367.71 343.801L357.589 347.889L357.823 348.314C365.559 362.274 374.134 366.157 384.225 360.861L384.551 360.687C394.685 355.188 397.182 343.965 391.626 326.321L391.275 325.233ZM96 121.5C96 123.43 94.43 125 92.5 125C90.57 125 89 123.43 89 121.5C89 119.57 90.57 118 92.5 118C94.43 118 96 119.57 96 121.5Z" fill="#00160A"/>
</g>
<defs>
<clipPath id="clip0_3_2">
<rect width="750" height="750" fill="white"/>
</clipPath>
</defs>
</svg>
