<svg width="3445" height="1998" viewBox="0 0 3445 1998" fill="none" xmlns="http://www.w3.org/2000/svg">
<path fill-rule="evenodd" clip-rule="evenodd" d="M2310.5 5660C3586.55 5660 4621 4626 4621 3350.5C4621 2075 3586.55 1041 2310.5 1041C1034.45 1041 0 2075 0 3350.5C0 4626 1034.45 5660 2310.5 5660Z" fill="#A8E3D8" fill-opacity="0.9"/>
<path fill-rule="evenodd" clip-rule="evenodd" d="M2765.2 367.084C2765.82 379.079 2766.71 383.846 2775.21 391.584C2778.05 394.161 2780.36 394.009 2782.12 393.892C2784.51 393.735 2785.9 393.643 2786.27 400.448C2786.5 404.738 2783.78 407.685 2781.05 410.652C2779.44 412.41 2777.81 414.174 2776.79 416.227C2763.56 442.826 2771.96 476.926 2778.61 503.922C2778.83 504.841 2779.06 505.751 2779.28 506.653C2782.63 520.311 2787.17 534.263 2791.77 548.377C2805.87 591.67 2820.46 636.49 2802.76 679.08C2801.99 680.91 2801.28 683.44 2800.51 686.17C2798.89 691.9 2797.02 698.52 2793.92 701.47C2787.89 698.29 2783.49 699.68 2780.71 705.65L2780.65 705.72C2779.01 707.57 2777.36 709.42 2775.72 711.27C2765.17 721.03 2753.94 724.66 2739.94 719.47C2711.71 709.01 2707.04 676.21 2706.89 650.38C2706.73 621.917 2712.79 592.106 2719.26 564.376C2719.52 563.282 2719.79 562.173 2720.06 561.052C2723.08 548.503 2726.46 534.492 2718.25 522.928C2713.12 515.711 2707.27 515.339 2701.6 514.979C2697.92 514.745 2694.32 514.516 2691.05 512.426C2686.66 509.622 2687.58 497.984 2688.57 485.622C2689.57 473.065 2690.62 459.761 2686.23 454.209C2671 434.973 2665.69 482.031 2665.45 491.642C2665.18 502.17 2665.75 514.453 2670.71 523.997C2672.5 527.43 2676.12 530.671 2679.74 533.903C2684.02 537.728 2688.29 541.54 2689.47 545.643C2690.79 550.248 2687.47 559.641 2684.61 567.732C2683.08 572.069 2681.68 576.032 2681.2 578.682C2679.08 590.378 2678.34 602.326 2677.73 614.181C2675.67 654.23 2681.95 696.37 2709.5 727.45C2721.58 741.08 2742.06 756.56 2761.21 754.07C2773.76 752.45 2786.35 747 2798.46 741.76C2802.67 739.94 2806.81 738.14 2810.88 736.54C2821.48 777.3 2837.41 816.78 2854.38 855.27C2859.75 867.44 2864.99 879.72 2870.25 892V892.01C2879.44 913.5 2888.64 935.02 2898.49 956.05C2919.59 1001.04 2949.17 1041.72 2978.63 1082.25C2994.79 1104.48 3010.91 1126.65 3025.58 1149.47C3065.57 1211.65 3087.99 1283.01 3093.37 1356.42C3093.89 1363.49 3093.35 1371.62 3092.81 1379.87C3092.02 1391.88 3091.22 1404.15 3093.61 1413.77C3094.3 1416.51 3094.96 1418.97 3095.59 1421.26C3098.41 1431.69 3100.28 1438.59 3098.25 1452.19C3097.52 1457.05 3096.62 1461.82 3095.72 1466.54L3095.71 1466.55C3093.2 1479.73 3090.76 1492.59 3092.45 1506.41C3092.91 1510.21 3093.68 1514.43 3094.49 1518.87V1518.88C3097.24 1533.89 3100.43 1551.38 3093.74 1563.28C3090.55 1559.88 3087.36 1557.03 3084.29 1554.28H3084.28C3077.34 1548.07 3071.01 1542.42 3066.63 1532.15C3064.66 1527.53 3063.53 1523.16 3062.49 1519.13C3060.16 1510.07 3058.27 1502.75 3048.21 1498.18C3043.57 1496.08 3039.42 1494.93 3035.48 1493.84C3028.86 1492 3022.8 1490.32 3015.93 1484.54C3002.62 1473.32 2993.55 1459.61 2987 1443.55C2975.8 1416.15 2974.19 1386.44 2983.65 1358.3C2991.23 1335.74 3013.39 1293.5 3044.46 1308.62C3043.53 1306.71 3042.66 1304.77 3041.8 1302.84V1302.83C3038.38 1295.15 3035 1287.59 3027.97 1282.67C3024.28 1280.08 3019.71 1278.34 3015.01 1276.54C3009.94 1274.61 3004.72 1272.62 3000.28 1269.45C2990.71 1262.63 2979.87 1255.35 2969.19 1250.36C2965.93 1248.84 2962.81 1247.91 2959.54 1246.94H2959.53C2958.64 1246.68 2957.74 1246.41 2956.83 1246.13C2952.77 1244.88 2945.85 1245.32 2942.8 1245.52C2941.98 1245.57 2941.44 1245.6 2941.31 1245.58C2922.96 1242.81 2902.49 1233.97 2891.29 1220.65C2882.85 1210.63 2875.4 1201.27 2868.96 1189.8C2861.49 1176.5 2858.13 1175.8 2846.07 1173.28C2844.63 1172.98 2843.06 1172.65 2841.35 1172.27C2818.04 1167.14 2803.25 1163.63 2784.61 1146.33C2764.48 1127.66 2749.61 1104.51 2734.89 1081.58L2733.67 1079.69C2726.17 1068.02 2719.44 1065.62 2708.8 1061.82C2706.86 1061.13 2704.79 1060.39 2702.57 1059.54C2698.71 1058.07 2694.17 1054.26 2689.65 1050.46C2684.33 1045.98 2679.02 1041.52 2674.89 1040.94C2673.67 1040.77 2669.91 1042.16 2666.18 1043.54C2663.15 1044.66 2660.14 1045.77 2658.53 1046.03C2652.14 1047.06 2646.59 1046.88 2640.19 1046.2C2625.5 1044.66 2612.51 1040.77 2602.63 1029.26C2572.21 993.84 2562.93 910.34 2604.59 880.21C2607.09 878.39 2609.92 876.89 2612.75 875.37C2618.88 872.11 2625.06 868.81 2628.26 862.29C2632.72 853.2 2631.79 837.44 2631.1 825.75C2630.96 823.36 2630.83 821.15 2630.75 819.19C2630.26 806.03 2629.65 791.7 2627.68 778.72C2626.78 772.75 2626.1 770.24 2623.67 764.27C2619.63 754.35 2617.98 753.95 2611.71 752.41C2610.5 752.11 2609.1 751.76 2607.49 751.3C2604.5 750.45 2601.86 749.84 2599.47 749.3C2590.51 747.25 2585.06 746 2578.2 735.37C2571.27 724.63 2568.02 711.09 2567.39 698.39C2567.17 693.86 2567.81 689.45 2568.44 685.14C2569.46 678.19 2570.44 671.48 2567.69 664.86C2564.81 657.94 2560.85 651.76 2556.87 645.55C2551.81 637.65 2546.71 629.691 2543.74 620.072C2543.39 618.947 2543 617.713 2542.58 616.389C2537.6 600.685 2528.59 572.245 2539.1 559.927C2541.33 557.304 2544.33 555.662 2547.42 553.97C2551.38 551.803 2555.48 549.555 2558.33 545.055C2559.68 542.909 2560.91 540.912 2562.08 539.03V539.029C2568.46 528.681 2572.72 521.789 2583.79 512.489C2586.83 509.931 2589.84 506.979 2592.89 503.98C2599.52 497.465 2606.38 490.728 2614.35 487.332C2620.88 484.548 2627.2 485.911 2633.16 487.193C2637.63 488.158 2641.9 489.077 2645.89 488.153C2652.88 486.531 2653.77 474.828 2654.58 464.254V464.253C2654.95 459.511 2655.29 454.996 2656.16 451.72C2659.95 437.45 2668.08 422.574 2677.92 411.439C2679.24 409.942 2680.7 408.932 2682.13 407.937C2684.26 406.459 2686.33 405.014 2687.86 402.059C2689.75 398.416 2690.2 393.932 2690.66 389.42C2691.04 385.639 2691.43 381.839 2692.66 378.501C2695.89 369.752 2703.72 354.69 2712.47 349.895C2726.85 342.018 2735.58 349.979 2743.92 357.589C2750.41 363.517 2756.68 369.232 2765.2 367.084ZM3096.37 1078.88C3124.66 1095.09 3118.47 1138.99 3114.73 1165.55V1165.57C3114.67 1166.02 3114.6 1166.47 3114.54 1166.91C3114.48 1167.36 3114.41 1167.81 3114.35 1168.24C3113.02 1177.77 3114.18 1187.39 3115.31 1196.84C3116.13 1203.67 3116.93 1210.41 3116.79 1216.96C3116.54 1227.89 3112.93 1230.63 3108.83 1233.75C3106.32 1235.66 3103.63 1237.71 3101.41 1241.86C3099.76 1237.56 3097.67 1232.97 3095.53 1228.27C3091.05 1218.46 3086.34 1208.12 3084.91 1198.73L3081.55 1189.93C3084.4 1188.79 3085.91 1186.8 3086.08 1183.97C3086.99 1178.87 3087.2 1173.69 3087.41 1168.5C3087.48 1166.83 3087.55 1165.16 3087.64 1163.48C3089.19 1135.09 3091.34 1106.88 3096.37 1078.88ZM2529.69 709.63C2529.91 708.87 2530.13 708.11 2530.35 707.37C2529.89 695.76 2527.27 671.76 2514.13 666.22C2497.62 659.26 2492.76 678.65 2493.19 691.61C2493.54 701.95 2497.91 720.87 2508.1 726.62C2522.43 734.7 2526.28 721.4 2529.69 709.63ZM2509.51 1041.88C2509.81 1063.08 2510.12 1084.03 2516.58 1104.52C2524.19 1128.61 2536.93 1151.83 2549.54 1173.61C2574.06 1215.95 2579.91 1255.89 2582.87 1304.31C2536.75 1283.64 2511.6 1213 2496.39 1168.82C2494.24 1162.58 2492.07 1156.34 2489.9 1150.09C2483.93 1132.93 2477.95 1115.74 2472.38 1098.48C2471.31 1095.18 2470.13 1091.73 2468.91 1088.18C2461.56 1066.76 2452.88 1041.46 2460.36 1020.49C2460.61 1020.67 2460.85 1020.85 2461.09 1021.03C2461.37 1021.24 2461.65 1021.45 2461.93 1021.65L2462.03 1021.72C2477.61 1033.21 2484.68 1038.43 2493.98 1017.5C2497.65 1021.53 2501.33 1025.56 2505.01 1029.6L2506.26 1030.97C2507.3 1032.11 2508.35 1033.26 2509.39 1034.4C2509.43 1036.9 2509.47 1039.39 2509.51 1041.88ZM2442.85 802.92C2440.34 814.43 2438.36 825.96 2436.5 837.58C2437.07 838.78 2437.63 839.99 2438.2 841.21C2444.46 854.59 2451.27 869.17 2467.11 872.77C2469.65 873.35 2472.03 873.04 2474.39 872.73C2477.26 872.36 2480.1 871.99 2483.12 873.23C2487.17 874.9 2490.11 878.66 2492.99 882.35C2494.89 884.77 2496.76 887.17 2498.91 888.93C2524.04 909.46 2552.14 871 2538.43 849.41C2521.82 867.16 2503.15 861.32 2497.14 837.2C2491.42 814.23 2499.83 785.57 2511.93 766.17C2489.58 756.08 2475.92 756.75 2456.06 770.33C2455.42 770.76 2454.85 771.15 2454.32 771.5C2451.91 773.13 2450.59 774.02 2449.72 775.22C2448.67 776.66 2448.26 778.56 2447.34 782.73V782.74C2447.22 783.31 2447.09 783.92 2446.94 784.57C2446.38 787.09 2445.82 789.6 2445.26 792.11C2444.45 795.72 2443.64 799.32 2442.85 802.92ZM2813.63 1254.55C2812.12 1255.76 2810.57 1256.91 2809.01 1258.07C2805.75 1260.5 2802.49 1262.93 2799.64 1265.8C2798.47 1266.98 2796.58 1269.81 2794.68 1272.67C2792.36 1276.15 2790.01 1279.66 2788.92 1280.27C2780.94 1284.68 2773.97 1279.01 2766.18 1271.9C2750.83 1257.88 2741.26 1228.13 2741.98 1207.55C2742.82 1183.52 2759.8 1167.03 2781.33 1184.16C2798.64 1197.94 2803.65 1217.34 2808.72 1236.95C2810.24 1242.85 2811.76 1248.76 2813.63 1254.55ZM2702.57 1516.59C2719.93 1514.36 2731.34 1517.06 2748.41 1521.28C2753.47 1500.24 2748.16 1472.87 2734.21 1455.83C2731.1 1452.03 2726.44 1449.08 2722.06 1446.31C2717.28 1443.28 2712.83 1440.46 2711.1 1436.97C2708.92 1432.57 2708.44 1426.17 2707.94 1419.67C2707.5 1413.8 2707.05 1407.85 2705.34 1403.23C2702.46 1441.35 2700.82 1478.46 2702.57 1516.59ZM2451.61 1482.9C2457.08 1471.98 2462.55 1461.06 2468.02 1450.14C2471.58 1455.79 2482.04 1470.55 2490.68 1465.83C2494.63 1463.67 2494.24 1454.27 2493.88 1445.62C2493.65 1440.05 2493.43 1434.78 2494.39 1431.97C2506 1444.92 2511.76 1460.19 2510.09 1477.51C2509.49 1483.68 2507.6 1492.32 2505.79 1498.24C2505.1 1500.51 2503.44 1503.45 2501.75 1506.48C2498.56 1512.16 2495.22 1518.13 2497.73 1520.4C2495.68 1520.28 2493.57 1520.22 2491.43 1520.17C2482.26 1519.93 2472.69 1519.69 2466.36 1514C2459.88 1508.19 2455.2 1493.89 2452.29 1484.97L2452.28 1484.96C2452.04 1484.23 2451.82 1483.55 2451.61 1482.9ZM2679.08 1408.01C2680.32 1392.44 2680.06 1377.41 2679.53 1361.79C2661.06 1349.33 2637.35 1346.89 2636.65 1375.53C2636 1402.35 2654.94 1423.01 2672.07 1441.7C2674.28 1444.12 2676.47 1446.51 2678.58 1448.87C2680.29 1441.54 2679.81 1433.21 2679.33 1424.94C2678.99 1419.15 2678.65 1413.38 2679.08 1408.01ZM2650.46 1110.22C2650.05 1111.8 2649.64 1113.57 2649.22 1115.42C2646.35 1128.04 2642.52 1144.91 2626.65 1138.67C2612.29 1133.01 2608.82 1110.17 2608.79 1097.44C2608.77 1086.99 2610.49 1067.8 2625.09 1067.17C2643.02 1066.4 2649.43 1098.15 2650.46 1110.22ZM2521.48 825.57C2526.09 817.41 2531.55 807.73 2536.72 808.97C2534.3 803.59 2531.88 798.21 2529.46 792.83C2527.04 787.43 2524.61 782.04 2522.19 776.64C2521.48 780.2 2520.71 783.77 2519.94 787.36C2516.52 803.2 2513.03 819.34 2515 835.46C2516.8 833.85 2519.02 829.93 2521.48 825.57ZM2891.94 1538.4C2917.6 1514.11 2934.7 1522.97 2962.66 1537.44C2964.01 1538.15 2965.4 1538.86 2966.81 1539.59C2973.74 1543.16 2980.42 1544.72 2987.09 1546.28C2992.29 1547.49 2997.49 1548.71 3002.81 1550.88C3008.87 1553.35 3012.68 1559.74 3016.28 1565.78C3019.83 1571.73 3023.18 1577.35 3028.29 1578.55C3015.78 1579.87 3003.33 1581.57 2990.88 1583.27C2955.82 1588.06 2920.86 1592.84 2885.2 1588.93C2886.88 1582.11 2886.68 1575.22 2886.48 1568.39C2886.19 1558.14 2885.9 1548.01 2891.94 1538.4ZM2880.13 1456.03C2911.09 1454.43 2919.34 1406.73 2919.12 1382.9C2919.8 1365.61 2915.26 1343.33 2901.97 1330.98C2893.57 1323.16 2874.14 1310.87 2862.48 1312.7C2830.82 1317.67 2822.83 1375.45 2825.9 1399.62C2828.7 1421.66 2855.24 1457.32 2880.13 1456.03Z" fill="#8B6F5F"/>
<path fill-rule="evenodd" clip-rule="evenodd" d="M2415.72 385.483C2410.31 387.917 2420.64 406.106 2422.24 409.443C2426.44 418.153 2431.55 436.152 2441.48 431.197C2432.89 415.96 2424.31 400.72 2415.72 385.483ZM1145.14 1440.82C1137.9 1437.61 1128.22 1465.24 1126.93 1470.85C1123.34 1486.48 1126.35 1496.99 1138.86 1507.1C1133.68 1484.75 1139.88 1462.49 1145.14 1440.82ZM2815.95 257.781C2806.95 246.09 2793.95 224.384 2775.76 235.875C2768.58 240.416 2763.05 254.969 2758.62 262.079C2751.66 273.24 2744.93 283.985 2739.64 296.001C2748.63 292.303 2753.93 284.262 2761.97 279.866C2767.46 276.864 2772.47 276.575 2777.76 274.386C2789.47 269.552 2805.49 264.811 2815.95 257.781ZM1348.34 1409.67C1353.21 1428.75 1357.71 1447.76 1361.48 1467.08C1364.03 1480.16 1372.59 1498.62 1368.13 1511.42C1379.7 1509.86 1391.28 1508.3 1402.86 1506.74C1394.27 1487.19 1389.75 1466.32 1387.2 1445.2C1385.64 1432.27 1387.64 1428.59 1377.9 1421.39C1370.36 1415.82 1357.09 1413.14 1348.34 1409.67ZM1284.31 679.65C1306.57 701.95 1326.03 727.36 1349.69 748.12C1361.98 758.92 1374.58 769.41 1387.19 779.82C1397.89 788.64 1414.9 808.1 1428.82 810.8C1430.54 803.69 1434.61 792.04 1433.52 784.75C1437.58 780.55 1436.32 777.48 1429.73 775.54C1425.71 772.44 1421.72 769.29 1417.78 766.08C1402.31 753.16 1387.66 739.13 1373 725.3C1358.43 711.57 1344.95 697.19 1332.29 681.67C1325.63 673.5 1321.73 665.3 1310.8 662.9C1297.81 660.05 1293.49 670.18 1284.31 679.65ZM1729.15 1507.34C1728.52 1519.45 1758.3 1526.88 1767.34 1527.6C1791.79 1529.57 1807.67 1518.84 1816.09 1497.68C1833.61 1453.64 1861.65 1414.85 1873.38 1368.54C1876.86 1354.8 1879.88 1348.55 1867.48 1341.55C1862.39 1338.68 1849.14 1332.27 1843.6 1335.93C1838.34 1339.41 1834.02 1355.06 1830.64 1360.75C1825.26 1369.79 1819.14 1378.38 1813.31 1387.13C1786 1428.03 1758.47 1467.87 1729.15 1507.34ZM1375.82 900.88L1490.12 966.28C1494.89 949.81 1497.08 932.64 1501.55 916.05C1504.73 904.25 1512.91 887.59 1512.4 877.24C1511.63 861.78 1499.66 841.26 1494.44 826.52C1487.94 808.16 1481.44 789.79 1474.94 771.43C1466.13 779.85 1455.99 785.74 1455.89 796.71C1455.83 802.99 1460.01 806.9 1457.58 814.01C1455.88 818.99 1448.65 825.61 1445.15 829.32C1434.95 840.15 1435.27 840.7 1424.55 830.56C1408.3 854 1392.06 877.44 1375.82 900.88ZM1501.57 1207.5C1503.21 1191.74 1505.31 1176.64 1508.85 1161.18C1511.03 1151.68 1520.22 1132.18 1517.2 1123.23C1514.98 1116.66 1501.76 1110.94 1496.61 1107.36C1481.72 1097.01 1467.18 1086.12 1452.44 1075.56C1439.52 1066.3 1426.4 1057.26 1413.71 1047.66C1401.97 1038.78 1393.1 1027.73 1378.88 1023.92C1366.45 1020.59 1350.66 1022.76 1337.78 1022.33C1320.49 1021.76 1302.94 1021.57 1285.66 1022.41C1227.7 1025.25 1162.76 1021.19 1107 1037.37C1080.64 1045.01 1063.65 1049.51 1048.92 1074.49C1031.88 1103.38 1017.32 1133.4 1004.93 1164.6C1003.12 1169.16 999.03 1175.73 999.19 1180.71C999.48 1190.22 1002.88 1188.03 1012 1193.45C1021.84 1199.31 1031.49 1206.26 1040.9 1212.86C1057.03 1224.17 1077.05 1235.98 1093.79 1244.8C1113.92 1255.41 1134.2 1264.93 1154.68 1275.61C1167.66 1282.39 1181.09 1287.92 1193.82 1295.37C1207.64 1303.45 1223.11 1305.75 1238.01 1312.06C1284.14 1331.6 1328.78 1349.66 1374.05 1371.96C1418.23 1393.71 1462.92 1412.1 1508.13 1431.3C1566.55 1456.1 1624.4 1479.05 1685.33 1496.2C1689.8 1497.46 1699.18 1501.89 1703.58 1501.69C1713 1501.25 1715.14 1494.36 1720.8 1486.6C1731.92 1471.35 1742.63 1455.8 1753.27 1440.21C1776.34 1406.39 1798.9 1372.19 1823.75 1339.62C1753.35 1319.97 1688.08 1283.71 1626.2 1246.49C1623.56 1253.9 1621.47 1270.31 1613.02 1272.79C1602.58 1275.86 1594.99 1261.38 1590.31 1254.72C1585.88 1265.76 1578.3 1302.99 1564.12 1302.17C1544.53 1301.05 1547.99 1270.2 1545.55 1257.96C1534.75 1272.32 1522.24 1288.83 1507.56 1266.75C1497.39 1251.44 1498.52 1224.57 1501.57 1207.5ZM2317.19 1031.57C2308.12 1028.73 2299.1 1026.21 2290.22 1023.03C2287.88 1018.08 2284.01 1016.57 2278.59 1018.52C2274.15 1018.92 2269.84 1018.37 2265.64 1016.87C2247.1 1013.7 2226.56 1009.59 2208.84 1004.24C2193.06 999.47 2178.18 995.26 2162.14 991.68C2152.62 989.56 2110.21 977.55 2103.95 984.62C2102.02 986.79 2105.33 1013.15 2104.87 1017.84C2104.04 1026.19 2103.63 1039.94 2098.34 1046.9C2096.31 1049.56 2088.59 1052.52 2085.79 1054.6C2076.73 1061.35 2068.34 1069.73 2059.32 1076.73C2039.63 1092.01 2020.44 1107.86 2000.34 1122.63C1986.14 1133.07 1969.88 1138.24 1954.1 1145.83C1965.33 1147.84 1987.29 1137.03 1998.62 1133.68C2013.3 1129.33 2027.7 1124.51 2042.71 1120.53C2073.49 1112.38 2105.02 1103.17 2136.3 1094.49C2155.51 1089.16 2175.8 1083.61 2194.42 1076.55C2202.68 1073.41 2209.17 1066.13 2214.62 1073.54C2218.98 1079.46 2213.71 1087.24 2210.36 1091.63C2190.83 1117.2 2137.81 1123.42 2109.42 1134.02C2077.39 1145.99 2045.79 1158.6 2012.8 1167.01C1974.28 1176.83 1932.47 1184.34 1896.58 1201.59C1866.8 1215.89 1833.06 1221.44 1801.4 1229.84C1771.67 1237.72 1736.41 1239.3 1708.3 1252.69C1720.44 1262.28 1738.4 1267.28 1752.55 1273.73C1769.87 1281.62 1787.37 1288.82 1804.5 1297.19C1811.8 1300.75 1819.43 1306.04 1826.8 1309C1836.17 1312.76 1834.97 1310.78 1844.64 1310.02C1859.7 1308.83 1880.01 1306.12 1892.24 1317.09C1906.99 1330.32 1897.65 1344.81 1899.81 1361C1901.3 1372.1 1902.05 1370.32 1914.37 1372.01C1925.7 1373.57 1937.03 1375.39 1948.21 1377.81C1962.01 1380.81 1976.14 1385.83 1989.59 1390.16C2010.44 1396.87 2012.71 1404.78 2034.44 1396.11C2096.34 1371.43 2160.35 1351.14 2222.65 1327.78C2251.34 1317.02 2280.15 1296.27 2307.16 1280.69C2341.81 1260.68 2373.14 1239.05 2396.6 1205.75C2407.29 1190.57 2418.44 1164.93 2416.2 1146.09C2414.19 1129.24 2401.73 1110.5 2393.7 1096.01C2383.44 1077.51 2374.41 1070.33 2358.71 1058.04C2347.8 1049.5 2330.95 1031.46 2317.19 1031.57ZM1627.87 1174.77C1628.83 1184.07 1623.39 1222.42 1628.78 1228.32C1637.98 1238.41 1660.55 1226.63 1669.29 1223.63C1697.66 1213.87 1730.64 1216 1759.54 1208.28C1787.57 1200.78 1814.99 1191.06 1843.17 1183.43C1858.29 1179.33 1872.64 1172.9 1887.52 1168.02C1904.07 1162.59 1922.56 1159.61 1937.91 1151.44C1936.01 1146.71 1869.57 1158.08 1862.02 1158.69C1835.8 1160.83 1811.11 1156.78 1785.26 1152.02C1728.25 1141.53 1674.53 1116.65 1618.25 1100.51C1620.89 1126.48 1693.92 1131.65 1685.22 1161.79C1682.8 1170.19 1650.12 1183.92 1639.32 1178.65C1617.36 1167.93 1644.22 1152.86 1655.16 1149.1C1638.5 1139.55 1622.56 1129.18 1607.36 1117.4C1591.08 1104.8 1584.07 1087.11 1575.35 1068.86C1557.11 1030.71 1513.95 1008.51 1480.43 984.76C1444.18 959.08 1405.58 937.24 1369.35 911.62C1362.89 907.04 1359.87 909.14 1357.59 900.79C1355.16 891.85 1364.09 880.48 1368.43 873.66C1379.82 855.72 1393.09 838.75 1408.13 823.73C1388.73 810.52 1367.76 799.61 1349.57 784.65C1331.12 769.49 1315.85 750.98 1299.58 733.62C1273.58 790.22 1237.15 842.72 1208.54 898.22C1197.23 920.14 1191.26 953.3 1208.45 974.55C1226.53 996.91 1260.26 988.2 1285.8 989.39C1312.74 990.64 1337.33 993.7 1363.91 1001.34C1375.93 1004.8 1386.88 1003.78 1398.43 1009.34C1411.99 1015.85 1425.32 1024.22 1438.21 1031.94C1463.57 1047.13 1487.26 1066.14 1511.21 1083.47C1521.03 1090.58 1574.3 1132.71 1532.17 1126.21C1532.17 1165.64 1525.26 1206.02 1521.64 1245.26C1531.63 1233.32 1538.76 1221.19 1544.8 1206.85C1548.39 1198.31 1548.44 1176.54 1560.42 1181.7C1578.44 1189.46 1564.41 1246.51 1564.41 1261.94C1568.87 1253.3 1572 1244 1575.21 1234.85C1577.65 1227.92 1580.69 1208.27 1585.78 1203.62C1602.79 1188.06 1605.17 1230.49 1605.17 1239.35C1610.68 1223.71 1611.7 1207.01 1612.25 1190.49C1612.47 1183.97 1610.86 1173.82 1612.5 1167.51C1615.24 1157 1614.92 1157.69 1625.92 1153.24C1626.57 1160.42 1627.22 1167.6 1627.87 1174.77ZM2153.4 1507.51C2154.75 1520.85 2159.91 1530.51 2151.15 1542.51C2168.09 1541.3 2184.77 1539.8 2201.75 1540.24C2215.37 1540.58 2235.75 1543.7 2248.47 1537.86C2253.65 1535.48 2255.41 1539.58 2258.08 1535.03C2260.6 1530.71 2254.66 1516.38 2253.95 1512.82C2250.52 1495.76 2248.85 1478.25 2245.74 1461.08C2243.6 1449.28 2237.32 1426.07 2245.22 1414.92C2256.83 1398.51 2261.94 1421.62 2264.97 1431.89C2274.93 1465.7 2274.36 1497.81 2274.36 1532.56C2289.36 1532.56 2309.08 1526 2323.55 1522.04C2343.52 1516.59 2364.84 1510.98 2384.18 1503.85C2402.43 1497.13 2418.49 1487.33 2430.03 1471.54C2438.66 1459.73 2457.79 1430.61 2453.03 1417.55C2447.21 1401.55 2419.43 1390.54 2404.59 1388.78C2385.34 1386.5 2365.61 1390.37 2345.91 1391.99C2324.83 1393.73 2304.37 1398.43 2283.51 1400.69C2263.25 1402.88 2236.05 1409.65 2216.37 1404.58C2215.86 1412.68 2222.63 1423.57 2224.99 1431.82C2228.08 1442.63 2230.84 1453.54 2233.35 1464.5C2236.04 1476.24 2252.67 1518.42 2237.54 1526.86C2219.78 1536.76 2211.3 1494.36 2209.09 1484.03C2203.82 1459.39 2199.29 1434.78 2204.81 1410.01C2182.14 1405.92 2154.8 1411.99 2131.42 1413.6C2140.13 1444.3 2145.75 1476.45 2153.4 1507.51ZM1177.01 1520.86C1184.89 1524.37 1195.72 1522.48 1204.29 1523.16C1217.68 1524.21 1231.21 1526.63 1244.69 1526.2C1265.26 1525.55 1286.82 1522.94 1307.41 1520.59C1295.66 1499.4 1288.54 1479.34 1287.07 1455.05C1286.55 1446.33 1281.92 1392.23 1298.01 1394.54C1305.77 1395.66 1304.12 1441.85 1305.63 1450.36C1307.82 1462.71 1310.64 1475.35 1314.08 1487.44C1316.58 1496.2 1325.07 1509.33 1322.89 1518.81C1333.27 1517.13 1343.65 1515.45 1354.03 1513.76C1345.96 1497.66 1340.06 1483.23 1337.04 1465.28C1335.58 1456.61 1336.51 1445.82 1333.68 1437.59C1331.9 1432.4 1327.82 1427.52 1327.28 1423.17C1326.65 1418.15 1332.15 1405.82 1330.11 1401.36C1328.12 1396.98 1314.21 1392.92 1309.34 1390.51C1295.91 1383.85 1288.04 1382.16 1272.99 1385.99C1243.96 1393.37 1198.22 1398.61 1176.56 1418.52C1155.12 1438.25 1147.31 1504.78 1177.01 1520.86ZM2444.9 559.303C2452.94 558.395 2460.9 557.834 2468.97 557.418C2457.17 540.801 2446.45 523.433 2436.66 505.555C2431.87 496.796 2427.34 487.898 2423 478.903C2418.03 468.582 2418.16 461.843 2407.35 459.792C2392.38 456.953 2372.35 462.625 2356.94 461.98C2345.04 461.479 2318.32 450.275 2308.73 454.336C2317.47 472.263 2310.46 500.154 2310.8 519.451C2311.14 538.641 2308.76 557.192 2305.38 576.115C2325.8 576.115 2351.37 569.061 2371.98 565.909C2395.98 562.24 2420.45 562.05 2444.9 559.303ZM2120.72 1544.44C2128.58 1543.43 2136.06 1543.12 2144 1543.12C2126.11 1514.1 2112.6 1481.65 2112.45 1447.07C2112.43 1442.55 2117.87 1416.56 2116.07 1414.4C2112.56 1410.19 2098.02 1413.51 2094.04 1413.91C2077.74 1415.54 2059.63 1415.41 2044.29 1421.29C2033.71 1425.34 2033.59 1422.89 2029.38 1435.36C2026.89 1442.73 2025.1 1451.15 2025.05 1458.9C2024.95 1474.57 2029.95 1492.87 2036.4 1506.98C2042.54 1520.41 2052.25 1534.8 2065.61 1542.02C2080.99 1550.33 2102.67 1545.38 2120.72 1544.44ZM2283.38 466.386C2280.29 454.825 2281.62 457.435 2271.34 456C2269.17 455.699 2245.61 456.188 2244.26 457.569C2242.7 459.163 2243.29 482.702 2243.09 485.396C2242.39 494.629 2241.36 503.838 2240.35 513.042C2236.27 550.407 2228.53 586.578 2222.73 623.635C2237.07 614.732 2257.8 626.871 2270.05 617.234C2279.73 609.618 2278.28 585.249 2279 574.497C2281.41 538.509 2282.24 502.432 2283.38 466.386ZM2801.19 422.751C2799.9 424.824 2798.61 426.897 2797.32 428.97C2802.33 432.182 2831.64 399.509 2838.16 393.663C2846.84 385.88 2860.58 375.486 2864.5 364.106C2869.05 350.881 2864.57 330.003 2863.47 316.328C2862.68 306.541 2864.36 293.006 2856.38 286.169C2849.04 279.878 2830.96 280.046 2822.27 281.392C2796.19 285.432 2780.5 306.893 2767.33 327.343C2780.7 325.698 2827.83 304.17 2833.31 315.813C2841.26 332.728 2791.76 347.852 2786.87 362.695C2797 366.275 2819.35 352.388 2813.06 375.494C2811.99 378.727 2810.12 381.404 2807.45 383.525C2802.82 385.165 2801.73 388.254 2804.16 392.794C2802.09 401.844 2802.52 413.295 2801.19 422.751ZM3101.41 1241.86C3101.55 1247.35 3102.05 1252.59 3106.53 1256.47C3116.47 1224.98 3119.58 1193.48 3123.69 1160.73C3127.81 1127.98 3132.2 1094.41 3132.85 1061.69C3133.58 1025.02 3130.12 985.12 3124.19 948.89C3119.55 920.56 3115.96 885.7 3099.08 861.59C3108.67 924.07 3105.69 983.31 3099.22 1046C3095.79 1079.3 3090.95 1112.33 3088.73 1145.77C3088.14 1154.6 3087.95 1163.53 3087.18 1172.35C3086.73 1177.54 3081.59 1187.38 3081.55 1189.93C3081.29 1204.08 3096.44 1228.86 3101.41 1241.86ZM2591.39 1193.2C2599.36 1211.55 2608.42 1229.63 2613.21 1249.15C2618.25 1269.76 2616.08 1288.95 2616.89 1309.84C2618.23 1344.48 2615.45 1378.93 2615.94 1413.62C2616.35 1443.19 2615.22 1472.03 2615.51 1501.29C2615.7 1519.8 2614.69 1538.24 2614.75 1556.73C2614.75 1556.68 2615.49 1573.34 2614.21 1574.18C2608.5 1577.98 2602.26 1572.59 2600.52 1567.4L2583.59 1586.56C2592.46 1584.33 2603.37 1579.67 2612.49 1579.26C2615.98 1577.98 2619.46 1577.94 2622.92 1579.15C2626.36 1581.23 2628.91 1584.13 2630.57 1587.85C2654.47 1592.95 2668.81 1571.67 2673.1 1552.64C2682.41 1511.36 2679.06 1470.6 2678.38 1428.92C2676.92 1338.38 2691.29 1248.38 2689.93 1157.83C2689.67 1140.31 2689 1122.99 2691.64 1105.5C2696.52 1073.01 2703.73 1102.75 2704.89 1118.08C2708.37 1164.16 2714.43 1211.7 2711.1 1258.06C2708.1 1299.84 2708.38 1342 2706.3 1383.89C2704.09 1428.43 2700.52 1472.02 2702.57 1516.58C2714.53 1515.06 2752.97 1512.78 2756.97 1529.58C2760.47 1544.23 2746.42 1538.81 2739.12 1538.19C2727.28 1537.18 2715.72 1539.96 2702.79 1537.64C2703.74 1557.35 2706.46 1583.78 2688.86 1597.09C2680.2 1603.63 2665.86 1609.54 2655.74 1613.4C2645.83 1617.18 2629.04 1625.57 2618.71 1625.11C2611.4 1624.78 2608.59 1620.85 2600.57 1621.47C2588.67 1622.41 2578.38 1630.37 2565.76 1623.8C2541.85 1611.32 2553.6 1575.04 2568.7 1560.5C2572.6 1556.75 2576.98 1552.65 2582.2 1550.82C2584.68 1549.96 2595.08 1551.01 2596.27 1549.7C2600.7 1544.9 2595.17 1516.8 2594.58 1511.47C2591.48 1483.5 2588.1 1454.93 2586.83 1426.84C2585.64 1400.42 2584.3 1373.95 2583.4 1347.53C2583.2 1341.77 2585.75 1329.94 2583.34 1324.91C2579.33 1316.56 2561.76 1311.23 2554.13 1307.34C2560.93 1373.94 2570.91 1445.52 2546.31 1508.95C2541.43 1521.55 2535.95 1539.53 2523.56 1546.54C2511.89 1553.14 2484.4 1552.21 2470.42 1553C2455.38 1553.84 2440.66 1550.33 2432.37 1536.2C2425.85 1525.08 2429.76 1511.74 2443.14 1506.89C2451.16 1503.99 2452.72 1505.86 2459.74 1509.31C2461.27 1511.78 2462.33 1514.44 2462.95 1517.29H2468.35C2475.66 1520.55 2504.9 1524.2 2512.94 1518.99C2522.26 1512.96 2524.28 1496.65 2528.26 1486.96C2535.63 1468.96 2537.59 1454.34 2540.27 1435.1C2544.46 1404.97 2540.21 1370.05 2540.29 1338.66C2540.31 1329.82 2540.35 1320.98 2540.36 1312.14C2540.38 1298.79 2541.54 1298.88 2533.93 1289.27C2522.46 1274.78 2509.38 1259.98 2497.09 1246.1C2503.75 1286.66 2501.02 1329.37 2498.38 1369.78C2496.9 1392.49 2493.83 1415.61 2492.42 1438.02C2492 1444.75 2496.83 1463.31 2489.02 1466.29C2481.09 1469.3 2471.22 1455.22 2468.02 1450.14C2450.54 1485.03 2429.68 1518.69 2393.62 1536.75C2375.07 1546.03 2355.77 1550.22 2335.53 1553.86C2316.78 1557.23 2299.46 1563.39 2280.98 1566.29C2242.72 1572.3 2207.49 1573.15 2168.99 1571.84C2132.67 1570.6 2097.9 1577.31 2061.7 1568.86C2047.57 1565.56 2033.29 1559.51 2023.63 1548.69C2018.36 1542.78 2016.03 1533.49 2010.71 1528.04C2009.52 1521 2005.38 1518.83 1998.29 1521.52C1993.84 1521.72 1989.4 1521.58 1984.98 1521.08C1948.67 1519.17 1908.32 1521.3 1873.14 1510.92C1859.78 1506.98 1844.87 1500.49 1851.53 1483.77C1857.36 1469.16 1873.43 1473.59 1886.6 1474.87C1924.88 1478.58 1962.56 1485.35 2001.38 1488.76C2000.13 1468.46 2001.21 1447.75 2009.16 1428.76C1982.23 1425.38 1954.3 1420.28 1928.67 1411.67C1920.76 1409.01 1912.88 1406.25 1905.03 1403.41C1892.09 1398.73 1894.78 1397.52 1887.28 1405.69C1877.87 1415.96 1872.1 1437.38 1865.28 1449.78C1857.6 1463.74 1850.23 1477.54 1843.76 1492.11C1837.64 1505.9 1833.07 1524.37 1823.74 1536.25C1803.21 1562.4 1755.81 1564.66 1727.91 1554.39C1714.24 1549.36 1709.31 1548.57 1701.03 1536.32C1691.95 1522.89 1689.7 1522.11 1672.98 1520.28C1642.8 1516.99 1614.31 1509.41 1586.03 1498.94C1556.15 1487.89 1525.48 1479.26 1495.69 1467.33C1467.8 1456.15 1440.85 1444.9 1411.99 1436.18C1408.57 1457.95 1422.76 1482.51 1422.76 1504.96C1439.55 1503.28 1455.2 1501.8 1471.84 1499.13C1477.78 1498.18 1515.16 1489.78 1518.81 1494.74C1534.02 1515.38 1464.83 1525.09 1454.02 1527.82C1419.36 1536.57 1384.03 1544.7 1349.16 1551.46C1313.56 1558.37 1278.87 1565.24 1242.73 1566.48C1181.59 1568.58 1097.26 1565.04 1100.18 1484.67C1101.33 1453.18 1114.29 1419 1139.11 1398.46C1154.54 1385.68 1173.8 1378.66 1192.67 1372.88C1199.65 1370.74 1236.38 1365.74 1237.5 1362.99C1227.15 1355.57 1209.45 1353.64 1197.17 1347.92C1185.46 1342.46 1173.11 1340.43 1161.12 1334.93C1137.17 1323.94 1114.04 1310.51 1091.9 1296.93C1074.28 1286.13 1056.48 1274.2 1040.26 1261.35C1027.38 1251.15 1015.04 1241.34 1004.74 1229.67C999.35 1223.57 989.81 1218.17 985.49 1212.91C970.33 1194.45 986.32 1157.72 992.77 1136.23C1002.2 1104.82 1014.79 1071.4 1033.35 1044.19C1050.41 1019.16 1069.44 1002.3 1100.06 996.44C1128.31 991.03 1156.73 989.32 1185.63 987.8C1180.77 969.32 1173.93 956.27 1175.67 936C1177.31 916.88 1186.95 897.88 1194.53 880.47C1208.61 848.1 1221.89 816.42 1241.14 786.61C1251.73 770.23 1263.61 754.69 1275.17 738.99C1277.03 736.46 1288.61 724.88 1288.16 721.62C1287.72 718.38 1276.1 708.52 1274.32 706.26C1262.36 691.07 1254.09 674.72 1268.13 658.47C1275.45 649.99 1296.98 632.88 1307.33 643.64C1318.54 620.999 1338.13 605.559 1353.38 586.294C1372.4 562.272 1390.55 537.883 1408.36 512.722C1426.08 487.669 1440.56 460.755 1464.05 440.565C1490.24 418.066 1514.88 420.012 1547.04 429.63C1548.88 417.219 1551.43 418.871 1563.43 414.727C1572.51 411.59 1581.33 407.868 1590.26 404.326C1599.75 400.559 1609.36 398.421 1619.06 395.459C1631.99 391.516 1633.93 392.804 1636.03 376.011C1638.57 355.72 1629.89 334.267 1624.29 315.153C1621.53 305.723 1619.61 293.984 1613.39 287.64C1607.77 281.902 1597.8 279.29 1591.65 272.946C1538.66 218.293 1537.83 101.598 1594.27 50.804C1605.24 40.931 1614.29 27.648 1627.95 20.982C1642.94 13.66 1662.72 7.74002 1679.23 4.29002C1713.27 -2.81698 1751.44 -0.560987 1778.35 23.38C1791.62 35.186 1799.71 53.953 1804.24 70.717C1808.56 86.729 1807.63 113.795 1791.25 89.048C1780.92 73.44 1771.95 57.521 1754.46 49.8C1738.83 42.902 1719.75 39.178 1702.73 40.642C1662.61 44.089 1630.09 55.877 1602.32 85.588C1571.61 118.439 1570.05 170.888 1576.67 212.661C1582.5 200.306 1586.45 180.742 1602.8 178.383C1616.43 176.416 1637.92 193.827 1630.6 208.816C1597.42 200.351 1587.71 250.568 1616.41 253.592C1625.1 254.507 1636.1 239.031 1644.1 242.635C1659.06 249.372 1639.01 272.585 1635.06 280.229C1632.96 281.522 1630.86 282.815 1628.76 284.11C1630.83 288.921 1632.91 293.724 1635.02 298.517C1637.58 304.63 1640.02 310.757 1642.27 316.993C1647.73 332.167 1653.41 347.814 1656.7 363.622C1660.05 379.695 1661.79 398.464 1653.87 413.564C1645.17 430.162 1636.97 428.12 1630.28 412.332C1612.78 423.37 1595.18 435.141 1574.61 439.496C1596.18 475.715 1624.11 506.852 1666.11 518.245C1701.71 527.901 1746.52 527.547 1780.48 511.573C1815.72 494.997 1835.12 456.255 1830.92 417.71C1829.56 405.227 1822.3 361.867 1839.58 393.233C1849.05 410.434 1849.74 438.338 1847.58 457.201C1837.25 547.431 1745.84 581.188 1667.01 559.467C1626.57 548.322 1597.43 518.493 1575.74 483.378C1570.68 475.19 1566.05 466.74 1561.53 458.244C1559.72 454.849 1558.13 450.108 1555.72 447.13C1546.27 435.461 1555.55 441.964 1545.52 440.502C1530 438.244 1505.57 450.14 1494.04 459.565C1462.76 485.136 1445.43 526.04 1421.43 558.268C1395.87 592.575 1363.41 623.11 1330.85 650.48C1367.68 688.23 1404.51 725.98 1441.34 763.72C1448.95 755.29 1463.41 736.03 1465.44 724.77C1466.62 718.16 1461.3 696.43 1477.68 706.1C1488.73 712.64 1492.93 740.59 1496.37 752.03C1501.7 769.7 1510.67 786.34 1516.47 803.82C1527.23 836.26 1540.48 868.41 1551.5 901.08C1555.98 914.37 1568.75 930.85 1556.48 942.1C1537.82 959.19 1532.28 925.54 1527.34 912.69C1520.46 922.26 1521.35 937.78 1517.8 948.94C1515.64 955.76 1509.04 966.37 1509.26 973.09C1509.63 984.57 1520.05 987.99 1529.45 994.41C1546.92 1006.35 1564.85 1018.01 1580.85 1031.92C1587.53 1037.72 1593.67 1043.59 1598.54 1051.05C1602.8 1057.57 1604.08 1072.26 1608.78 1076.8C1614.93 1082.72 1637.66 1078.59 1649.67 1079.88C1669.72 1082.04 1690.03 1089.17 1709.49 1094.3C1743.93 1103.37 1779.35 1116.42 1815.42 1121.27C1850.84 1126.02 1884.08 1123.66 1919.38 1117.33C1938.66 1113.86 1959.37 1109.73 1976.97 1100.45C1997.24 1089.76 2015.21 1072.67 2034.14 1059.76C2042.61 1053.98 2051.28 1048.52 2059.95 1043.04C2071.53 1035.72 2068.5 1037.31 2069.25 1025.68C2070.13 1012.22 2075.74 986.52 2066.76 974.54C2063 969.54 2051.49 965.88 2046.07 962.24C2038.19 956.95 2031.12 950.8 2022.67 946.54C2013.45 941.89 2013.18 945.57 2008.9 934.17C2005.01 923.81 2002.45 912.96 1998.88 902.49C1982.55 854.63 1978.33 806.01 1971.57 756.03C1968.42 732.81 1960.71 701.22 1969.45 678.6C1981.59 647.15 1991.76 691.14 1994.32 702.41C2005.91 682.54 2012.58 660.44 2024.64 640.82C2031.67 629.382 2035.11 623.536 2039.08 611.003C2040.68 605.928 2041.32 601.712 2044.72 597.496C2051.9 588.579 2052.96 593.661 2060.42 593.442C2083.9 592.754 2106.97 593.358 2130.47 594.446C2143.46 595.048 2156.45 595.366 2169.53 595.318C2175.9 595.294 2182.35 594.983 2188.71 595.349C2192.14 595.313 2195.56 595.568 2198.96 596.117C2205.97 599.391 2208.64 596.57 2206.99 587.65C2213.09 574.873 2212.68 554.485 2214.84 540.546C2217.02 526.515 2219.04 512.459 2220.86 498.375C2221.82 490.847 2229.98 462.44 2225.65 456.255C2221.36 450.123 2199.01 451.498 2192.39 450.397C2148.41 443.083 2107.51 424.952 2066.38 410.097C2046.13 402.786 2026.9 392.912 2007.48 383.942C1997.37 379.271 1987.81 369.653 1977.16 366.658C1963.71 362.878 1945.85 368.921 1932.45 371.196C1906.91 375.532 1882.27 379.329 1856.36 380.74C1847.2 381.238 1829.78 383.807 1821.52 377.511C1804.93 364.867 1823.82 357.473 1834.67 355.877C1882.64 348.818 1930.47 344.761 1978.81 341.814C1981.07 341.677 1989.38 339.989 1992.14 340.861C1998.43 342.85 1995.89 345.156 1999.67 347.207C2006.66 351.006 2014.63 353.804 2023.5 356.161C2048.81 362.888 2074.3 374.174 2099.71 383.044C2145.41 399.001 2200.01 424.444 2245.72 419.971C2257 418.868 2266.28 417.457 2278.07 418.601C2291.89 419.942 2299.95 427.03 2310.56 429.091C2324.77 431.85 2345.11 429.777 2360.07 430.306C2374.34 430.812 2388.62 431.474 2402.9 431.474C2390.36 406.253 2382.73 382.572 2375.68 355.484C2371.84 340.712 2366.06 327.294 2368.56 311.737C2369.74 304.394 2372.68 297.494 2375.88 290.861C2380.7 280.848 2382.07 282.943 2383.79 271.853C2386.15 256.592 2382.76 240.5 2384.62 225.193C2386.52 209.483 2398.38 195.481 2399.7 180.463C2400.41 172.472 2395.94 165.95 2397.28 157.331C2398.47 149.622 2403.04 141.54 2407.14 135.049C2416.68 119.925 2428.3 111.349 2444.43 105.188C2457.39 100.236 2473.93 95.693 2487.03 103.712C2500.4 111.893 2499.43 128.358 2505.84 140.372C2519.61 166.205 2551.37 189.291 2576.7 202.485C2599.96 214.604 2625.02 222.26 2649.96 230.164C2665.15 234.974 2680.75 238.405 2695.67 243.902C2706.41 247.86 2723.92 257.459 2734.86 251.628C2744.39 246.545 2755.51 231.036 2764.94 223.835C2775.98 215.411 2790.7 207.189 2804.59 214.527C2818.49 221.863 2817.35 248.905 2828.16 253.989C2831.92 255.761 2843.11 250.571 2848.24 251.389C2856.54 252.708 2862.25 257.844 2867.22 264.166C2885.78 287.791 2891.53 325.265 2892.35 354.389C2892.75 368.935 2892.4 387.028 2883.52 399.379C2873.16 413.786 2853.56 414.142 2840.27 424.28C2829.63 432.389 2822.1 445.645 2811.31 454.286C2804.66 459.611 2802.09 455.521 2799.34 463.82C2797.55 469.217 2801.17 479.748 2802.24 484.97C2808.85 517.188 2821.23 546.904 2832.98 577.596C2838.51 592.058 2843.21 606.522 2845.73 621.849C2847.39 631.91 2845.48 640.7 2846.28 650.37C2846.85 657.26 2849.77 663.21 2849.13 670.27C2847.77 685.23 2839.65 698.45 2834.48 711.6C2828.6 726.6 2836.68 752.58 2842.61 768.09C2856.82 805.25 2876.8 842.8 2894.55 878.5C2911.98 913.58 2924.95 950.93 2945.27 984.63C2964.99 1017.35 2988.21 1049.39 3010.66 1080.34C3023.14 1097.56 3036.39 1113.94 3047.71 1131.99C3050.18 1135.94 3067.07 1168.69 3071.45 1167.55C3066.08 1110.41 3071.51 1050.98 3073.91 993.87C3076.91 922.39 3067.82 857.64 3047.71 789.4C3043.02 773.45 3038.83 757.13 3035.52 740.83C3033.21 729.41 3026.67 720.03 3042.71 725.02C3069.27 733.28 3092.65 783.46 3106.16 805.3C3136.4 854.21 3161.67 919.44 3165.06 976.81C3168.39 1033.13 3165.52 1087.01 3158.48 1142.49C3155.01 1169.86 3149.4 1200.37 3140.83 1226.55C3136.42 1240.02 3131.13 1253.96 3125.26 1266.87C3122.78 1272.31 3117.34 1278.47 3116.4 1284.45C3114.91 1293.94 3121.86 1306.75 3123.6 1316.12C3129.29 1346.8 3130.59 1378.59 3128.66 1409.72C3127.62 1426.41 3125.31 1441.35 3119.87 1457.05C3112.93 1477.05 3116.16 1492.33 3119.04 1512.95C3122.13 1535.02 3125.09 1585.18 3102.16 1597.72C3100.54 1597.56 3098.91 1597.39 3097.29 1597.22C3093.2 1592.49 3089.56 1592.77 3086.38 1598.06C3080.45 1600 3074.66 1604.98 3068.41 1607.13C3053.91 1612.11 3038.27 1612.41 3023.15 1614.6C2993.55 1618.89 2964.06 1626.45 2934.98 1627.37C2900.55 1628.45 2864.64 1627.1 2830.97 1621.06C2824.01 1619.81 2815.88 1616.51 2808.92 1615.88C2799.48 1615.02 2792.85 1621.3 2783.1 1619.82C2767.99 1617.54 2758.44 1601.53 2757.45 1588.42C2754.3 1546.64 2777.47 1527.48 2815.33 1520.06C2790.86 1485.02 2762.7 1456.27 2756.19 1411.27C2749.78 1366.99 2763.68 1315.74 2788.92 1280.27C2813.14 1246.21 2854.48 1223.44 2897.11 1232.08C2916.9 1236.09 3010.25 1263.67 2992.2 1294.95C2988.2 1280.64 2963.59 1283.41 2951.7 1281.34C2931.98 1277.91 2912.25 1272.74 2892.24 1273.81C2852.88 1275.9 2814.84 1299.2 2795.78 1334.46C2773.8 1375.12 2783.83 1415.69 2810.29 1450.4C2834.47 1482.14 2859.41 1515.49 2891.94 1538.4C2885.65 1548.41 2887.92 1551.55 2875.43 1549.76C2866.86 1548.53 2858.83 1541.83 2850.17 1540.17C2832.19 1536.72 2803.91 1551.45 2792.8 1566.18C2786.24 1574.89 2786.48 1579.19 2798.58 1584.55C2807.51 1588.51 2821.57 1586.47 2831.15 1587.32C2855.01 1589.45 2879.32 1590.17 2903.25 1590.08C2944.67 1589.93 2983.2 1583.28 3024.19 1578.98C3042.36 1577.07 3061.37 1579.27 3079.14 1572.58C3103.22 1563.52 3097.32 1536.91 3094.2 1515.35C3091.11 1494 3094.26 1477.44 3097.61 1456.29C3099.06 1447.1 3101.78 1436.5 3099.86 1427.26C3097.57 1416.27 3093.48 1411.41 3094 1399.16C3095.86 1355.57 3090.39 1309.66 3078.85 1267.59C3053.77 1176.2 2992.52 1104.08 2941.45 1026.41C2927.02 1004.47 2911.85 983.68 2900.37 959.93C2889.49 937.42 2882 913.61 2871.19 891.04C2847.38 841.29 2824.79 790.05 2810.88 736.54C2795.11 742.75 2778.12 751.88 2761.21 754.07C2742.06 756.56 2721.58 741.08 2709.5 727.45C2681.95 696.37 2675.67 654.23 2677.73 614.181C2678.34 602.326 2679.07 590.377 2681.2 578.681C2682.58 571.09 2691.5 552.716 2689.47 545.643C2687.29 538.073 2674.61 531.493 2670.72 523.996C2665.75 514.453 2665.18 502.169 2665.45 491.641C2665.69 482.03 2671 434.972 2686.23 454.206C2694.95 465.225 2682.2 506.77 2691.05 512.426C2699.02 517.513 2709.99 511.296 2718.25 522.927C2727.17 535.497 2722.39 550.99 2719.26 564.376C2712.8 592.058 2706.73 621.95 2706.89 650.38C2707.04 676.27 2711.67 709 2739.94 719.47C2754.22 724.76 2765.06 721.12 2775.72 711.27C2778.16 708.46 2780.65 705.69 2783.19 702.97C2785.52 698.96 2789.1 698.46 2793.92 701.47C2797.49 698.64 2802.78 679.04 2804.56 674.66C2826.46 620.972 2791.94 559.33 2779.28 506.652C2771.54 474.432 2764.79 442.113 2780.46 411.017C2782.99 405.983 2789.98 401.608 2785.79 394.386C2784.69 392.486 2774.14 391.595 2771.64 389.388C2763.5 382.201 2765.2 368.803 2765.2 359.209C2746.38 365.016 2740.95 350.366 2743.4 332.411C2729.36 334.638 2719.61 338.933 2714.42 322.682C2709.81 308.27 2716.77 293.574 2721.38 280.145C2656.43 273.18 2586.28 264.255 2534.52 219.412C2521.76 208.354 2511.14 194.436 2502.3 180.017C2500.7 177.41 2493.17 159.055 2490.68 158.097C2483.26 155.248 2477.04 169.761 2470.46 173.356C2464.6 176.548 2456.27 178.308 2449.77 180.253C2443.64 182.085 2422.06 182.451 2418.23 185.632C2408.66 193.586 2409.41 239.573 2409.34 250.246C2409.08 287.004 2417.28 323.635 2432.44 357.102C2446.73 388.622 2468.58 431.968 2497.15 452.596C2504.37 457.81 2510.87 460.514 2520.02 460.083C2526.55 459.777 2533.03 455.198 2539.84 457.579C2557.06 463.608 2550.9 475.585 2537.66 481.248C2499.82 497.441 2467.93 461.843 2446.05 436.973C2439.64 466.48 2469.35 501.397 2485.07 525.472C2495.09 540.815 2504.99 556.173 2514.53 571.83C2521.45 583.2 2535.05 604.199 2510.89 595.416C2499.23 656.62 2467.24 710.15 2450.91 769.63C2434.14 830.68 2419.52 900.4 2419.52 963.98C2432.29 955.09 2438.73 914.56 2455.9 945.58C2457.76 948.93 2457.18 954.49 2459.63 957.42C2463.02 961.48 2467.09 960.35 2472.28 963.24C2480.51 967.82 2485.82 976.96 2478.46 984.88C2487.94 982.67 2497.86 983.8 2499.91 995.01C2501.05 1001.3 2491.84 1030.46 2484.97 1032.84C2464.02 1040.09 2440.79 998.25 2435.11 984.93C2422.02 998.08 2406.94 1008.19 2394.88 986.93C2385.89 971.09 2391.11 947.12 2392.38 929.87C2394.93 895.13 2398.27 861.25 2403.28 826.84C2412.67 762.32 2436.52 704.94 2465.8 646.87C2473.86 630.887 2482.8 614.525 2490 598.171C2500.86 573.496 2483.87 579.317 2467.26 582.899C2434.71 589.922 2400.63 595.371 2367.74 597.858C2350.58 599.155 2328.59 599.928 2312.1 604.892C2300.5 608.383 2302.49 605.973 2297.83 618.401C2295.75 623.963 2293.4 629.878 2289.72 634.64C2270.98 658.94 2222.44 654.87 2195.64 653.06C2197.26 642.81 2198.87 632.56 2200.55 622.326C2179.92 627.177 2155.41 630.555 2134.15 630.307C2122.71 630.177 2110.54 628.431 2099.13 627.48C2090.72 626.779 2074.76 620.811 2066.84 623.132C2057.66 625.826 2043.77 659.04 2038.52 669.75C2028.67 689.87 2011.05 712.22 2004.83 733.4C1999.31 752.17 2010.57 784.57 2014.1 803.26C2019.21 830.28 2023.87 857.34 2032.43 883.54C2038.64 902.53 2045.79 928.72 2064.85 938.19C2083.84 947.63 2097.49 952.94 2118.04 951.02C2154.24 947.64 2192.75 953.2 2228.48 960.24C2265.27 967.48 2298.97 970.75 2333.91 983.67C2413.16 1012.97 2463.63 1103.25 2433.75 1185.96C2416.56 1233.53 2388.25 1268.88 2346.72 1298.31C2325.55 1313.3 2300.55 1325.47 2277.35 1337.02C2266.7 1342.33 2256.22 1348.77 2245.37 1353.48C2237.43 1356.93 2223.8 1364.86 2215.18 1365.73C2224.75 1370.28 2233.21 1366.02 2243.17 1364.6C2257.25 1362.6 2271.63 1362.17 2285.77 1360.42C2307.77 1357.7 2329.44 1355.64 2351.45 1352.91C2370.24 1350.57 2391.44 1349.75 2410.11 1352.43C2419.13 1353.73 2432.7 1356.29 2440.73 1360.64C2447.05 1364.06 2452.84 1371.94 2459.63 1375.84C2467.1 1345.14 2463.61 1307.3 2463.96 1275.75C2464.24 1250 2465.39 1224.82 2467.82 1199.19C2470.53 1170.52 2453 1137.92 2446.53 1109.84C2440.47 1083.56 2424.33 1050.26 2430.27 1022.83C2437.76 988.26 2457.37 1050.37 2460.06 1059.25C2468.5 1087.04 2478.3 1114.16 2487.65 1141.62C2498.77 1174.28 2509.98 1205.93 2526.18 1236.54C2539.66 1262.01 2555.16 1291.89 2582.87 1304.31C2580.58 1266.85 2578.04 1232.17 2562.48 1197.64C2547.72 1164.89 2525.21 1135.77 2515.38 1100.68C2510.49 1083.24 2509.77 1065.41 2509.53 1047.4C2509.36 1035.28 2509.92 1018.99 2522.91 1032.05C2533.21 1042.41 2535.21 1075.46 2539.72 1089.41C2541.89 1096.12 2544.9 1102.29 2547.3 1108.81C2548.38 1111.75 2555.65 1126.08 2555.65 1128C2563.15 1150.65 2579.74 1172.36 2591.39 1193.2Z" fill="black"/>
<path fill-rule="evenodd" clip-rule="evenodd" d="M1795.98 367.721C1796.69 376.492 1801.78 399.224 1795.27 406.165C1786.64 415.374 1782.54 403.529 1778.81 394.19C1771.01 374.674 1767.13 336.883 1782.55 320.62C1798.64 303.637 1830.44 303.179 1847.61 286.266C1854.51 279.472 1853.84 280.89 1853.24 270.268C1852.9 264.271 1849.03 256.302 1847.15 250.912C1842.28 236.904 1836.94 223.066 1831.84 209.14C1822.93 213.202 1810.12 225.731 1801.34 215.229C1793.24 205.52 1806.73 189.61 1816.12 186.772C1811.22 176.041 1788.11 178.025 1783.7 162.263C1779.88 148.564 1790.87 154.008 1793.27 148.612C1796.1 142.264 1790.31 133.681 1793.29 127.83C1803.64 107.518 1815.1 144.866 1820.25 151.533C1829.84 163.931 1846.55 166.64 1848.02 185.395C1848.92 196.941 1848.05 202.31 1852.81 213.65C1857.19 224.089 1862.39 234.1 1866.06 244.842C1871.59 261.028 1880.11 290.484 1869.31 306.158C1860.2 319.377 1838.08 329.456 1823.69 335.108C1816.49 337.937 1806.5 339.661 1800.67 345.172C1793.07 352.361 1795.43 356.779 1795.98 367.721Z" fill="black"/>
<path fill-rule="evenodd" clip-rule="evenodd" d="M2543.36 857.17C2541.72 854.58 2540.07 852 2538.43 849.41C2527.05 861.58 2514.44 866.58 2502.94 851.12C2491.09 835.21 2495.54 811.36 2500.15 793.98C2502.52 785.04 2514.51 749.79 2522.19 776.64C2523.88 782.57 2518.21 795.77 2517.19 801.57C2515.17 812.95 2513.58 823.87 2515 835.46C2528.35 823.51 2534.88 793.21 2548.43 824.68C2553.34 836.08 2553.88 854.87 2566.96 837.54C2573.94 828.29 2574.38 811.2 2577.65 800.3C2599.94 805.63 2595.88 838.61 2588.44 854.68C2576.59 880.27 2560.47 872.03 2543.36 857.17Z" fill="black"/>
<path fill-rule="evenodd" clip-rule="evenodd" d="M2621.4 283.23C2629.33 296.46 2614.33 320.653 2611.61 334.237C2624.89 332.698 2657.76 300.647 2667.01 305.931C2686.27 316.929 2645.59 355.286 2637.77 360.908C2575.31 405.828 2586.57 275.89 2621.4 283.23Z" fill="black"/>
<path fill-rule="evenodd" clip-rule="evenodd" d="M2543.07 430.556C2566.41 424.056 2597.87 465.962 2582.74 486.715C2571.88 501.601 2558.46 493.088 2555.06 479.983C2553.33 473.3 2554.86 465.247 2552.59 457.793C2549.8 448.615 2546.06 439.676 2543.07 430.556Z" fill="black"/>
<path fill-rule="evenodd" clip-rule="evenodd" d="M1825.31 249.924C1843.05 264.848 1806.79 301.234 1788.61 272.743C1783.61 264.906 1782.7 257.753 1790.11 254.859C1793.86 253.4 1802.69 258.179 1807.97 257.334C1813.76 256.407 1820.06 252.331 1825.31 249.924Z" fill="black"/>
<path fill-rule="evenodd" clip-rule="evenodd" d="M1764.32 190.245C1757.44 181.65 1738.08 128.78 1762.07 140.556C1774.11 146.469 1784.06 191.666 1764.32 190.245Z" fill="black"/>
<path fill-rule="evenodd" clip-rule="evenodd" d="M2556.17 1327.36C2555.49 1320.69 2554.81 1314.02 2554.13 1307.34C2562.98 1311.86 2580.75 1316.32 2583.83 1326.44C2589.62 1345.44 2562.74 1330.24 2556.17 1327.36Z" fill="black"/>
<path fill-rule="evenodd" clip-rule="evenodd" d="M2813.23 522.603C2807.95 515.474 2791.55 456.01 2805.78 457.371C2808.27 478.942 2808.78 501.345 2813.23 522.603Z" fill="black"/>
<path fill-rule="evenodd" clip-rule="evenodd" d="M2591.39 1193.2C2579.74 1172.37 2563.15 1150.65 2555.65 1128C2573.23 1142.25 2586.97 1171.34 2591.39 1193.2Z" fill="black"/>
<path fill-rule="evenodd" clip-rule="evenodd" d="M3069.32 1144.9C3070.03 1152.45 3070.74 1160 3071.45 1167.55C3060.89 1170.28 3068.67 1147.39 3069.32 1144.9Z" fill="black"/>
<path fill-rule="evenodd" clip-rule="evenodd" d="M2555.68 1128.04C2550.68 1122.59 2548.54 1115.9 2547.3 1108.82C2550.09 1115.22 2552.88 1121.63 2555.68 1128.04Z" fill="black"/>
<path fill-rule="evenodd" clip-rule="evenodd" d="M2616.12 1469.91C2616.3 1463.19 2616.49 1456.47 2616.67 1449.77C2616.49 1456.49 2616.3 1463.2 2616.12 1469.91Z" fill="black"/>
<path fill-rule="evenodd" clip-rule="evenodd" d="M1826.58 379.635C1831.05 380.191 1835.53 380.747 1840 381.303C1836.47 382.957 1828.15 385.155 1826.58 379.635Z" fill="black"/>
<path fill-rule="evenodd" clip-rule="evenodd" d="M2718.35 1540.43C2723.01 1539.73 2727.68 1538.13 2732.25 1540.71C2727.61 1540.62 2722.98 1540.53 2718.35 1540.43Z" fill="black"/>
<path fill-rule="evenodd" clip-rule="evenodd" d="M2585.4 1388.63C2585.47 1393.61 2585.53 1398.59 2585.58 1403.55C2585.52 1398.57 2585.46 1393.6 2585.4 1388.63Z" fill="black"/>
<path fill-rule="evenodd" clip-rule="evenodd" d="M2681.54 1311.2C2681.25 1316.5 2680.96 1321.81 2680.66 1327.11C2680.96 1321.8 2681.25 1316.5 2681.54 1311.2Z" fill="black"/>
<path fill-rule="evenodd" clip-rule="evenodd" d="M2618.24 1331.97C2617.99 1327.35 2617.74 1322.73 2617.49 1318.12C2617.74 1322.74 2617.99 1327.36 2618.24 1331.97Z" fill="black"/>
<path fill-rule="evenodd" clip-rule="evenodd" d="M2756.51 1372.71C2756.26 1376.82 2756.01 1380.93 2755.76 1385.04C2756.01 1380.92 2756.26 1376.81 2756.51 1372.71Z" fill="black"/>
<path fill-rule="evenodd" clip-rule="evenodd" d="M1921.1 1476.61C1916.58 1478.89 1912.05 1479.12 1907.54 1476.58C1912.07 1476.59 1916.59 1476.6 1921.1 1476.61Z" fill="black"/>
<path fill-rule="evenodd" clip-rule="evenodd" d="M2384.37 233.814C2384.44 237.881 2384.5 241.947 2384.56 245.997C2384.5 241.926 2384.43 237.871 2384.37 233.814Z" fill="black"/>
<path fill-rule="evenodd" clip-rule="evenodd" d="M2892.38 360.41C2892.36 356.397 2892.33 352.383 2892.31 348.377C2894.44 352.383 2894.48 356.392 2892.38 360.41Z" fill="black"/>
<path fill-rule="evenodd" clip-rule="evenodd" d="M1795.98 367.721C1795.77 363.457 1795.55 359.196 1795.35 354.939C1795.56 359.206 1795.77 363.462 1795.98 367.721Z" fill="black"/>
<path fill-rule="evenodd" clip-rule="evenodd" d="M2934.98 1627.37C2938.11 1627.39 2941.24 1627.41 2944.34 1627.43C2941.2 1627.41 2938.09 1627.39 2934.98 1627.37Z" fill="black"/>
<path fill-rule="evenodd" clip-rule="evenodd" d="M2520.02 460.085C2515.99 459.683 2511.97 459.278 2507.94 458.874C2511.97 459.278 2516 459.683 2520.02 460.085Z" fill="black"/>
<path fill-rule="evenodd" clip-rule="evenodd" d="M2703 1567.29C2703.25 1563.97 2703.5 1560.65 2703.75 1557.35C2703.5 1560.67 2703.25 1563.98 2703 1567.29Z" fill="black"/>
<path fill-rule="evenodd" clip-rule="evenodd" d="M2267.24 417.575C2263.28 417.539 2259.31 417.505 2255.35 417.472C2259.34 415.165 2263.29 415.825 2267.24 417.575Z" fill="black"/>
<path fill-rule="evenodd" clip-rule="evenodd" d="M1738.44 2.57401C1734.44 2.44701 1730.22 4.52899 1726.54 1.36099C1730.5 1.76499 1734.47 2.17001 1738.44 2.57401Z" fill="black"/>
<path fill-rule="evenodd" clip-rule="evenodd" d="M1630.55 394.408C1626.72 394.76 1622.89 395.111 1619.06 395.46C1622.89 395.109 1626.72 394.76 1630.55 394.408Z" fill="black"/>
<path fill-rule="evenodd" clip-rule="evenodd" d="M1871.75 1473.17C1867.72 1473.59 1863.68 1474.01 1859.66 1474.43C1863.69 1474.01 1867.72 1473.59 1871.75 1473.17Z" fill="black"/>
<path fill-rule="evenodd" clip-rule="evenodd" d="M1972.14 342.332C1968.21 342.416 1964.28 342.501 1960.35 342.585C1964.25 341.022 1968.15 339.549 1972.14 342.332Z" fill="black"/>
<path fill-rule="evenodd" clip-rule="evenodd" d="M2615.97 1418.74C2615.95 1415.33 2615.93 1411.92 2615.9 1408.51C2615.93 1411.93 2615.95 1415.33 2615.97 1418.74Z" fill="black"/>
<path fill-rule="evenodd" clip-rule="evenodd" d="M3070.76 1129.45C3070.34 1133.57 3069.91 1137.69 3069.49 1141.82C3069.91 1137.7 3070.34 1133.57 3070.76 1129.45Z" fill="black"/>
<path fill-rule="evenodd" clip-rule="evenodd" d="M2560.44 1395.24C2560.14 1391.73 2559.85 1388.22 2559.56 1384.72C2559.85 1388.23 2560.15 1391.74 2560.44 1395.24Z" fill="black"/>
<path fill-rule="evenodd" clip-rule="evenodd" d="M1237.5 1362.99C1236.78 1366.49 1234.23 1367.18 1229.85 1365.06L1237.5 1362.99Z" fill="black"/>
<path fill-rule="evenodd" clip-rule="evenodd" d="M2707.26 1364.55C2707.02 1361.5 2706.79 1358.45 2706.56 1355.41C2706.8 1358.46 2707.02 1361.51 2707.26 1364.55Z" fill="black"/>
<path fill-rule="evenodd" clip-rule="evenodd" d="M2583.41 1338.55C2583.41 1341.55 2583.4 1344.54 2583.39 1347.53C2583.4 1344.53 2583.41 1341.54 2583.41 1338.55Z" fill="black"/>
<path fill-rule="evenodd" clip-rule="evenodd" d="M2383.78 263.369C2383.78 266.203 2383.78 269.034 2383.79 271.853C2383.78 269.017 2383.78 266.193 2383.78 263.369Z" fill="black"/>
<path fill-rule="evenodd" clip-rule="evenodd" d="M1176.65 927.05C1176.32 930.04 1176 933.03 1175.67 936C1176 933.01 1176.32 930.03 1176.65 927.05Z" fill="black"/>
<path fill-rule="evenodd" clip-rule="evenodd" d="M3159.24 1132.3C3159.07 1129.49 3158.89 1126.68 3158.72 1123.88C3158.89 1126.7 3159.07 1129.5 3159.24 1132.3Z" fill="black"/>
<path fill-rule="evenodd" clip-rule="evenodd" d="M1449.92 1503.43C1446.5 1503.37 1443.08 1503.32 1439.66 1503.27C1443.12 1500.89 1446.53 1501.4 1449.92 1503.43Z" fill="black"/>
<path fill-rule="evenodd" clip-rule="evenodd" d="M1848.1 189.618C1848.05 186.799 1847.99 183.98 1847.93 181.17C1849.69 183.96 1850.25 186.763 1848.1 189.618Z" fill="black"/>
<path fill-rule="evenodd" clip-rule="evenodd" d="M1575.09 153.86C1575.33 151.08 1575.57 148.299 1575.8 145.535C1575.56 148.321 1575.33 151.089 1575.09 153.86Z" fill="black"/>
<path fill-rule="evenodd" clip-rule="evenodd" d="M2705.24 1127.28C2705.13 1124.21 2705.01 1121.15 2704.89 1118.09C2705.01 1121.15 2705.13 1124.22 2705.24 1127.28Z" fill="black"/>
<path fill-rule="evenodd" clip-rule="evenodd" d="M2683.23 1285.61C2683.15 1288.5 2683.06 1291.39 2682.98 1294.26C2683.06 1291.36 2683.15 1288.48 2683.23 1285.61Z" fill="black"/>
<path fill-rule="evenodd" clip-rule="evenodd" d="M2289.67 1564.36C2291.81 1564.36 2293.95 1564.35 2296.07 1564.35C2293.92 1564.36 2291.8 1564.36 2289.67 1564.36Z" fill="black"/>
<path fill-rule="evenodd" clip-rule="evenodd" d="M1247.06 1565.83C1249.2 1565.88 1251.33 1565.94 1253.44 1566C1251.3 1565.94 1249.18 1565.89 1247.06 1565.83Z" fill="black"/>
<path fill-rule="evenodd" clip-rule="evenodd" d="M2540.36 1312.14C2519.51 1296.02 2501.33 1271.91 2497.09 1246.1C2506.06 1256.23 2513.6 1267.55 2522.57 1277.68C2526.14 1281.7 2530.51 1285.17 2533.93 1289.27C2541.74 1298.61 2540.36 1299.03 2540.36 1312.14Z" fill="black"/>
<path fill-rule="evenodd" clip-rule="evenodd" d="M2467.1 1203.16C2457.09 1180.09 2448.4 1152.11 2450.15 1126.65C2457.05 1149.76 2473.07 1178.79 2467.1 1203.16Z" fill="black"/>
<path fill-rule="evenodd" clip-rule="evenodd" d="M2500.68 1338.81C2500.51 1345.51 2500.34 1352.21 2500.18 1358.89C2500.35 1352.19 2500.52 1345.5 2500.68 1338.81Z" fill="black"/>
<path fill-rule="evenodd" clip-rule="evenodd" d="M1177.01 1520.86C1183.85 1521.26 1190.69 1521.67 1197.53 1522.08C1190.66 1522.17 1183.7 1523.84 1177.01 1520.86Z" fill="black"/>
<path fill-rule="evenodd" clip-rule="evenodd" d="M2500.65 1316.69C2500.67 1322.4 2500.69 1328.11 2500.72 1333.81C2500.69 1328.09 2500.67 1322.39 2500.65 1316.69Z" fill="black"/>
<path fill-rule="evenodd" clip-rule="evenodd" d="M2219.56 654.5C2215.71 654.3 2211.86 654.1 2208.03 653.9C2211.9 654.1 2215.73 654.3 2219.56 654.5Z" fill="black"/>
<path fill-rule="evenodd" clip-rule="evenodd" d="M2282.21 512.447C2282.2 507.812 2282.18 503.178 2282.17 498.553C2282.18 503.19 2282.2 507.819 2282.21 512.447Z" fill="black"/>
<path fill-rule="evenodd" clip-rule="evenodd" d="M2199.5 628.708C2199.33 625.448 2197.59 623.806 2194.29 623.785C2200.91 620.207 2202.65 621.849 2199.5 628.708Z" fill="black"/>
<path fill-rule="evenodd" clip-rule="evenodd" d="M2395.73 886.54C2395.99 882.42 2396.25 878.29 2396.51 874.18C2396.25 878.3 2395.99 882.42 2395.73 886.54Z" fill="black"/>
<path fill-rule="evenodd" clip-rule="evenodd" d="M2243.46 963.86L2257.2 963.77C2252.62 963.8 2248.04 963.83 2243.46 963.86Z" fill="black"/>
<path fill-rule="evenodd" clip-rule="evenodd" d="M2374.54 461.298C2371.35 461.325 2368.16 461.351 2364.99 461.375C2368.2 461.349 2371.37 461.325 2374.54 461.298Z" fill="black"/>
<path fill-rule="evenodd" clip-rule="evenodd" d="M3040.27 1577.25C3044.28 1577.23 3048.28 1577.21 3052.28 1577.19C3048.29 1579.71 3044.29 1579.65 3040.27 1577.25Z" fill="black"/>
<path fill-rule="evenodd" clip-rule="evenodd" d="M1359.46 1022.79C1356.74 1022.86 1354.03 1022.94 1351.34 1023.02C1354.07 1022.94 1356.76 1022.86 1359.46 1022.79Z" fill="black"/>
<path fill-rule="evenodd" clip-rule="evenodd" d="M2801.19 422.752C2803.76 425.232 2800.38 430.933 2797.32 428.968C2798.61 426.895 2799.9 424.825 2801.19 422.752Z" fill="black"/>
<path fill-rule="evenodd" clip-rule="evenodd" d="M1546.28 1273.81C1546.39 1270.31 1546.51 1266.8 1546.62 1263.29C1546.5 1266.81 1546.39 1270.31 1546.28 1273.81Z" fill="black"/>
<path fill-rule="evenodd" clip-rule="evenodd" d="M2463.96 1275.75C2464.14 1272.09 2464.33 1268.43 2464.51 1264.78C2464.33 1268.44 2464.14 1272.1 2463.96 1275.75Z" fill="black"/>
<path fill-rule="evenodd" clip-rule="evenodd" d="M3104.38 894.35C3104.53 898.02 3104.69 901.68 3104.84 905.33C3104.68 901.67 3104.53 898.01 3104.38 894.35Z" fill="black"/>
<path fill-rule="evenodd" clip-rule="evenodd" d="M2429.98 1028.28C2430.18 1024.64 2430.38 1021 2430.58 1017.37C2430.38 1021.01 2430.18 1024.65 2429.98 1028.28Z" fill="black"/>
<path fill-rule="evenodd" clip-rule="evenodd" d="M2079.18 1415.82C2076.54 1415.83 2073.91 1415.83 2071.31 1415.83C2073.95 1415.82 2076.57 1415.82 2079.18 1415.82Z" fill="black"/>
<path fill-rule="evenodd" clip-rule="evenodd" d="M2311.27 526.137C2311.11 529.539 2310.96 532.938 2310.81 536.323C2310.96 532.919 2311.12 529.527 2311.27 526.137Z" fill="black"/>
<path fill-rule="evenodd" clip-rule="evenodd" d="M2369.56 1351.26C2373.61 1348.39 2377.54 1350.29 2381.49 1351.53C2377.51 1351.44 2373.54 1351.35 2369.56 1351.26Z" fill="black"/>
<path fill-rule="evenodd" clip-rule="evenodd" d="M1896.71 377.924C1894.05 377.816 1891.39 377.705 1888.76 377.585C1891.43 377.693 1894.07 377.809 1896.71 377.924Z" fill="black"/>
<path fill-rule="evenodd" clip-rule="evenodd" d="M2541.49 1413.82C2541.25 1410.43 2541.01 1407.05 2540.77 1403.67C2541.01 1407.06 2541.25 1410.44 2541.49 1413.82Z" fill="black"/>
<path fill-rule="evenodd" clip-rule="evenodd" d="M2323.72 1031.52C2321.52 1031.53 2319.33 1031.55 2317.17 1031.57C2319.37 1031.56 2321.54 1031.54 2323.72 1031.52Z" fill="black"/>
<path fill-rule="evenodd" clip-rule="evenodd" d="M2416.19 1154.53C2416.19 1151.71 2416.19 1148.88 2416.2 1146.07C2416.19 1148.9 2416.19 1151.72 2416.19 1154.53Z" fill="black"/>
<path fill-rule="evenodd" clip-rule="evenodd" d="M2275.92 1361.7C2279.21 1361.27 2282.49 1360.85 2285.77 1360.42C2282.49 1360.85 2279.2 1361.27 2275.92 1361.7Z" fill="black"/>
<path fill-rule="evenodd" clip-rule="evenodd" d="M2133.98 950.73C2137.53 950.71 2141.09 950.68 2144.64 950.66C2141.1 952.75 2137.54 952.36 2133.98 950.73Z" fill="black"/>
<path fill-rule="evenodd" clip-rule="evenodd" d="M2318.21 604.95C2316.15 604.931 2314.1 604.912 2312.07 604.895C2314.13 604.912 2316.17 604.931 2318.21 604.95Z" fill="black"/>
<path fill-rule="evenodd" clip-rule="evenodd" d="M1710.87 1128.95C1708.75 1128.92 1706.63 1128.89 1704.54 1128.86C1706.67 1128.89 1708.77 1128.92 1710.87 1128.95Z" fill="black"/>
<path fill-rule="evenodd" clip-rule="evenodd" d="M1301.42 989.89C1304.97 989.93 1308.52 989.97 1312.07 990C1308.5 992.01 1304.95 992.06 1301.42 989.89Z" fill="black"/>
<path fill-rule="evenodd" clip-rule="evenodd" d="M3104.72 995.77C3104.5 998.47 3104.27 1001.18 3104.06 1003.88C3104.28 1001.16 3104.5 998.46 3104.72 995.77Z" fill="black"/>
<path fill-rule="evenodd" clip-rule="evenodd" d="M2201.15 1431.21C2201.45 1428.25 2201.75 1425.29 2202.06 1422.35C2201.75 1425.31 2201.45 1428.26 2201.15 1431.21Z" fill="black"/>
<path fill-rule="evenodd" clip-rule="evenodd" d="M1627.26 1078.7C1630.84 1078.75 1634.43 1078.8 1638.02 1078.86C1634.4 1081.35 1630.83 1079.78 1627.26 1078.7Z" fill="black"/>
<path fill-rule="evenodd" clip-rule="evenodd" d="M2153.4 1507.51C2153.72 1510.62 2154.03 1513.73 2154.35 1516.83C2154.03 1513.72 2153.72 1510.62 2153.4 1507.51Z" fill="black"/>
<path fill-rule="evenodd" clip-rule="evenodd" d="M2464.02 1303.1C2464.01 1300.2 2464 1297.3 2464 1294.41C2464.01 1297.32 2464.01 1300.21 2464.02 1303.1Z" fill="black"/>
<path fill-rule="evenodd" clip-rule="evenodd" d="M1199.23 1522.49C1202.61 1522.94 1205.98 1523.38 1209.36 1523.82C1205.98 1523.38 1202.6 1522.94 1199.23 1522.49Z" fill="black"/>
<path fill-rule="evenodd" clip-rule="evenodd" d="M1262.57 1523.86C1265.9 1521.13 1269.28 1521.97 1272.68 1523.71C1269.31 1523.76 1265.93 1523.81 1262.57 1523.86Z" fill="black"/>
<path fill-rule="evenodd" clip-rule="evenodd" d="M2238.38 1539.21C2241.74 1538.76 2245.11 1538.31 2248.47 1537.86C2245.1 1538.31 2241.74 1538.76 2238.38 1539.21Z" fill="black"/>
<path fill-rule="evenodd" clip-rule="evenodd" d="M2309.6 546.699C2309.45 549.47 2309.3 552.244 2309.15 554.998C2309.3 552.22 2309.45 549.458 2309.6 546.699Z" fill="black"/>
<path fill-rule="evenodd" clip-rule="evenodd" d="M1501.57 1207.5C1501.88 1204.56 1502.18 1201.61 1502.49 1198.68C1502.18 1201.63 1501.88 1204.56 1501.57 1207.5Z" fill="black"/>
<path fill-rule="evenodd" clip-rule="evenodd" d="M2283.11 475.017C2283.2 472.13 2283.29 469.243 2283.38 466.371C2283.29 469.263 2283.2 472.14 2283.11 475.017Z" fill="black"/>
<path fill-rule="evenodd" clip-rule="evenodd" d="M1627.87 1174.77C1628.17 1177.72 1628.47 1180.67 1628.77 1183.6C1628.47 1180.65 1628.17 1177.71 1627.87 1174.77Z" fill="black"/>
<path fill-rule="evenodd" clip-rule="evenodd" d="M2193.13 1508.3C2195.12 1514.12 2194.39 1527.66 2188.76 1531.76C2177.09 1540.27 2175.89 1524.73 2173.57 1516.33C2167.14 1493.04 2156.79 1467.03 2154.16 1443.08C2153.35 1435.73 2152.91 1421.97 2162.62 1419.5C2172 1417.11 2176.74 1431.97 2179.98 1439.6C2188.95 1460.78 2194.15 1485.34 2193.13 1508.3Z" fill="black"/>
<path fill-rule="evenodd" clip-rule="evenodd" d="M2193.13 1508.3C2193.27 1505.3 2193.4 1502.29 2193.53 1499.29C2193.4 1502.3 2193.27 1505.3 2193.13 1508.3Z" fill="black"/>
</svg>
