<svg width="1455" height="1455" viewBox="0 0 1455 1455" fill="none" xmlns="http://www.w3.org/2000/svg">
<circle opacity="0.1" cx="727.5" cy="727.5" r="679.5" stroke="#FB34DB" stroke-width="96"/>
<circle opacity="0.1" cx="728" cy="727" r="452" stroke="#EB35C3" stroke-width="96"/>
<g filter="url(#filter0_d_116_2)">
<rect x="894" y="850" width="310" height="99" rx="16" fill="white" shape-rendering="crispEdges"/>
<circle cx="940" cy="899.5" r="30" fill="#FF76E1"/>
<path d="M952.999 911.28V907.215C953.016 906.551 952.787 905.903 952.356 905.396C951.142 903.966 946.978 903.051 945.328 903.402C944.041 903.676 943.141 904.968 942.261 905.847C938.862 903.918 936.048 901.109 934.115 897.717C934.995 896.839 936.29 895.941 936.564 894.656C936.916 893.012 936.002 888.874 934.582 887.655C934.082 887.226 933.444 886.994 932.785 887H928.712C927.16 887.002 925.869 888.393 926.011 889.954C926 903.402 936.5 914 950.04 913.989C951.608 914.131 953.005 912.833 952.999 911.28Z" stroke="#001A72" stroke-width="1.5" stroke-linecap="round" stroke-linejoin="round"/>
<path d="M986.666 879.718C986.666 878.494 986.948 877.396 987.512 876.424C988.088 875.452 988.862 874.696 989.834 874.156C990.818 873.604 991.892 873.328 993.056 873.328C994.388 873.328 995.57 873.658 996.602 874.318C997.646 874.966 998.402 875.89 998.87 877.09H996.404C996.08 876.43 995.63 875.938 995.054 875.614C994.478 875.29 993.812 875.128 993.056 875.128C992.228 875.128 991.49 875.314 990.842 875.686C990.194 876.058 989.684 876.592 989.312 877.288C988.952 877.984 988.772 878.794 988.772 879.718C988.772 880.642 988.952 881.452 989.312 882.148C989.684 882.844 990.194 883.384 990.842 883.768C991.49 884.14 992.228 884.326 993.056 884.326C993.812 884.326 994.478 884.164 995.054 883.84C995.63 883.516 996.08 883.024 996.404 882.364H998.87C998.402 883.564 997.646 884.488 996.602 885.136C995.57 885.784 994.388 886.108 993.056 886.108C991.88 886.108 990.806 885.838 989.834 885.298C988.862 884.746 988.088 883.984 987.512 883.012C986.948 882.04 986.666 880.942 986.666 879.718ZM1005.57 886.162C1004.64 886.162 1003.79 885.952 1003.04 885.532C1002.28 885.1 1001.69 884.5 1001.25 883.732C1000.82 882.952 1000.61 882.052 1000.61 881.032C1000.61 880.024 1000.83 879.13 1001.27 878.35C1001.72 877.57 1002.32 876.97 1003.09 876.55C1003.86 876.13 1004.72 875.92 1005.66 875.92C1006.61 875.92 1007.47 876.13 1008.24 876.55C1009.01 876.97 1009.61 877.57 1010.06 878.35C1010.5 879.13 1010.72 880.024 1010.72 881.032C1010.72 882.04 1010.49 882.934 1010.04 883.714C1009.58 884.494 1008.96 885.1 1008.17 885.532C1007.39 885.952 1006.52 886.162 1005.57 886.162ZM1005.57 884.38C1006.1 884.38 1006.59 884.254 1007.05 884.002C1007.52 883.75 1007.9 883.372 1008.18 882.868C1008.47 882.364 1008.62 881.752 1008.62 881.032C1008.62 880.312 1008.48 879.706 1008.2 879.214C1007.93 878.71 1007.56 878.332 1007.1 878.08C1006.65 877.828 1006.16 877.702 1005.63 877.702C1005.1 877.702 1004.61 877.828 1004.15 878.08C1003.71 878.332 1003.35 878.71 1003.09 879.214C1002.83 879.706 1002.69 880.312 1002.69 881.032C1002.69 882.1 1002.96 882.928 1003.5 883.516C1004.06 884.092 1004.75 884.38 1005.57 884.38ZM1017.75 875.92C1018.53 875.92 1019.23 876.082 1019.84 876.406C1020.47 876.73 1020.95 877.21 1021.3 877.846C1021.65 878.482 1021.82 879.25 1021.82 880.15V886H1019.79V880.456C1019.79 879.568 1019.57 878.89 1019.12 878.422C1018.68 877.942 1018.07 877.702 1017.3 877.702C1016.54 877.702 1015.92 877.942 1015.47 878.422C1015.02 878.89 1014.8 879.568 1014.8 880.456V886H1012.75V876.082H1014.8V877.216C1015.14 876.808 1015.56 876.49 1016.08 876.262C1016.61 876.034 1017.17 875.92 1017.75 875.92ZM1026.83 877.756V883.246C1026.83 883.618 1026.92 883.888 1027.09 884.056C1027.27 884.212 1027.57 884.29 1027.99 884.29H1029.25V886H1027.63C1026.7 886 1025.99 885.784 1025.5 885.352C1025.01 884.92 1024.76 884.218 1024.76 883.246V877.756H1023.59V876.082H1024.76V873.616H1026.83V876.082H1029.25V877.756H1026.83ZM1030.45 880.996C1030.45 880 1030.66 879.118 1031.07 878.35C1031.49 877.582 1032.05 876.988 1032.76 876.568C1033.48 876.136 1034.27 875.92 1035.13 875.92C1035.91 875.92 1036.59 876.076 1037.17 876.388C1037.76 876.688 1038.22 877.066 1038.57 877.522V876.082H1040.64V886H1038.57V884.524C1038.22 884.992 1037.75 885.382 1037.15 885.694C1036.55 886.006 1035.87 886.162 1035.1 886.162C1034.25 886.162 1033.47 885.946 1032.76 885.514C1032.05 885.07 1031.49 884.458 1031.07 883.678C1030.66 882.886 1030.45 881.992 1030.45 880.996ZM1038.57 881.032C1038.57 880.348 1038.43 879.754 1038.14 879.25C1037.86 878.746 1037.5 878.362 1037.04 878.098C1036.59 877.834 1036.09 877.702 1035.57 877.702C1035.04 877.702 1034.55 877.834 1034.09 878.098C1033.63 878.35 1033.26 878.728 1032.97 879.232C1032.7 879.724 1032.56 880.312 1032.56 880.996C1032.56 881.68 1032.7 882.28 1032.97 882.796C1033.26 883.312 1033.63 883.708 1034.09 883.984C1034.56 884.248 1035.05 884.38 1035.57 884.38C1036.09 884.38 1036.59 884.248 1037.04 883.984C1037.5 883.72 1037.86 883.336 1038.14 882.832C1038.43 882.316 1038.57 881.716 1038.57 881.032ZM1042.65 881.032C1042.65 880.012 1042.86 879.118 1043.26 878.35C1043.68 877.57 1044.26 876.97 1044.99 876.55C1045.72 876.13 1046.56 875.92 1047.51 875.92C1048.71 875.92 1049.7 876.208 1050.48 876.784C1051.27 877.348 1051.81 878.158 1052.08 879.214H1049.87C1049.69 878.722 1049.4 878.338 1049.01 878.062C1048.61 877.786 1048.11 877.648 1047.51 877.648C1046.67 877.648 1046 877.948 1045.5 878.548C1045 879.136 1044.76 879.964 1044.76 881.032C1044.76 882.1 1045 882.934 1045.5 883.534C1046 884.134 1046.67 884.434 1047.51 884.434C1048.7 884.434 1049.49 883.912 1049.87 882.868H1052.08C1051.8 883.876 1051.26 884.68 1050.46 885.28C1049.67 885.868 1048.69 886.162 1047.51 886.162C1046.56 886.162 1045.72 885.952 1044.99 885.532C1044.26 885.1 1043.68 884.5 1043.26 883.732C1042.86 882.952 1042.65 882.052 1042.65 881.032ZM1056.52 877.756V883.246C1056.52 883.618 1056.61 883.888 1056.78 884.056C1056.96 884.212 1057.26 884.29 1057.68 884.29H1058.94V886H1057.32C1056.39 886 1055.68 885.784 1055.19 885.352C1054.7 884.92 1054.45 884.218 1054.45 883.246V877.756H1053.28V876.082H1054.45V873.616H1056.52V876.082H1058.94V877.756H1056.52ZM1067.54 873.49V881.464C1067.54 882.412 1067.78 883.126 1068.27 883.606C1068.78 884.086 1069.47 884.326 1070.36 884.326C1071.26 884.326 1071.96 884.086 1072.45 883.606C1072.95 883.126 1073.21 882.412 1073.21 881.464V873.49H1075.26V881.428C1075.26 882.448 1075.04 883.312 1074.59 884.02C1074.15 884.728 1073.55 885.256 1072.81 885.604C1072.07 885.952 1071.24 886.126 1070.34 886.126C1069.44 886.126 1068.62 885.952 1067.88 885.604C1067.15 885.256 1066.56 884.728 1066.13 884.02C1065.7 883.312 1065.48 882.448 1065.48 881.428V873.49H1067.54ZM1081.53 886.162C1080.75 886.162 1080.05 886.024 1079.42 885.748C1078.81 885.46 1078.33 885.076 1077.97 884.596C1077.61 884.104 1077.41 883.558 1077.39 882.958H1079.51C1079.55 883.378 1079.75 883.732 1080.11 884.02C1080.48 884.296 1080.94 884.434 1081.49 884.434C1082.07 884.434 1082.51 884.326 1082.83 884.11C1083.15 883.882 1083.31 883.594 1083.31 883.246C1083.31 882.874 1083.13 882.598 1082.77 882.418C1082.42 882.238 1081.87 882.04 1081.1 881.824C1080.35 881.62 1079.75 881.422 1079.28 881.23C1078.81 881.038 1078.4 880.744 1078.06 880.348C1077.72 879.952 1077.55 879.43 1077.55 878.782C1077.55 878.254 1077.71 877.774 1078.02 877.342C1078.33 876.898 1078.78 876.55 1079.35 876.298C1079.94 876.046 1080.61 875.92 1081.37 875.92C1082.5 875.92 1083.4 876.208 1084.09 876.784C1084.78 877.348 1085.15 878.122 1085.2 879.106H1083.15C1083.11 878.662 1082.93 878.308 1082.61 878.044C1082.29 877.78 1081.85 877.648 1081.3 877.648C1080.76 877.648 1080.34 877.75 1080.05 877.954C1079.77 878.158 1079.62 878.428 1079.62 878.764C1079.62 879.028 1079.72 879.25 1079.91 879.43C1080.1 879.61 1080.34 879.754 1080.61 879.862C1080.89 879.958 1081.3 880.084 1081.84 880.24C1082.56 880.432 1083.14 880.63 1083.6 880.834C1084.07 881.026 1084.47 881.314 1084.81 881.698C1085.14 882.082 1085.32 882.592 1085.33 883.228C1085.33 883.792 1085.17 884.296 1084.86 884.74C1084.55 885.184 1084.1 885.532 1083.53 885.784C1082.96 886.036 1082.3 886.162 1081.53 886.162Z" fill="#FF76E1"/>
<path d="M993.008 928.016C991.456 926.528 990.248 924.608 989.384 922.256C988.52 919.904 988.088 917.368 988.088 914.648C988.088 911.896 988.536 909.328 989.432 906.944C990.328 904.544 991.6 902.592 993.248 901.088H997.28V901.472C995.6 903.136 994.304 905.136 993.392 907.472C992.48 909.792 992.024 912.184 992.024 914.648C992.024 917.096 992.464 919.456 993.344 921.728C994.224 924 995.464 925.968 997.064 927.632V928.016H993.008ZM1001.4 913.592C999.894 912.792 999.142 911.536 999.142 909.824C999.142 908.96 999.366 908.176 999.814 907.472C1000.26 906.752 1000.94 906.184 1001.85 905.768C1002.77 905.336 1003.89 905.12 1005.21 905.12C1006.54 905.12 1007.65 905.336 1008.55 905.768C1009.46 906.184 1010.14 906.752 1010.59 907.472C1011.04 908.176 1011.26 908.96 1011.26 909.824C1011.26 910.688 1011.05 911.44 1010.64 912.08C1010.24 912.72 1009.69 913.224 1009.01 913.592C1009.87 914.008 1010.53 914.584 1011 915.32C1011.46 916.04 1011.69 916.888 1011.69 917.864C1011.69 919 1011.41 919.984 1010.83 920.816C1010.25 921.632 1009.47 922.256 1008.48 922.688C1007.5 923.12 1006.41 923.336 1005.21 923.336C1004.01 923.336 1002.92 923.12 1001.93 922.688C1000.95 922.256 1000.17 921.632 999.598 920.816C999.022 919.984 998.734 919 998.734 917.864C998.734 916.872 998.966 916.016 999.43 915.296C999.894 914.56 1000.55 913.992 1001.4 913.592ZM1007.28 910.448C1007.28 909.792 1007.09 909.288 1006.7 908.936C1006.33 908.568 1005.84 908.384 1005.21 908.384C1004.59 908.384 1004.09 908.568 1003.7 908.936C1003.33 909.304 1003.15 909.816 1003.15 910.472C1003.15 911.096 1003.34 911.592 1003.73 911.96C1004.11 912.312 1004.61 912.488 1005.21 912.488C1005.82 912.488 1006.32 912.304 1006.7 911.936C1007.09 911.568 1007.28 911.072 1007.28 910.448ZM1005.21 915.368C1004.46 915.368 1003.85 915.576 1003.39 915.992C1002.93 916.392 1002.69 916.952 1002.69 917.672C1002.69 918.344 1002.92 918.896 1003.37 919.328C1003.83 919.76 1004.45 919.976 1005.21 919.976C1005.98 919.976 1006.58 919.76 1007.01 919.328C1007.46 918.896 1007.69 918.344 1007.69 917.672C1007.69 916.968 1007.45 916.408 1006.99 915.992C1006.54 915.576 1005.95 915.368 1005.21 915.368ZM1026.42 909.056H1018.93V912.368C1019.25 912.016 1019.7 911.728 1020.27 911.504C1020.85 911.28 1021.47 911.168 1022.14 911.168C1023.34 911.168 1024.34 911.44 1025.12 911.984C1025.92 912.528 1026.5 913.232 1026.87 914.096C1027.24 914.96 1027.42 915.896 1027.42 916.904C1027.42 918.776 1026.9 920.264 1025.84 921.368C1024.78 922.456 1023.3 923 1021.38 923C1020.1 923 1018.98 922.784 1018.04 922.352C1017.1 921.904 1016.37 921.288 1015.86 920.504C1015.34 919.72 1015.06 918.816 1015.02 917.792H1019.02C1019.12 918.288 1019.35 918.704 1019.72 919.04C1020.09 919.36 1020.59 919.52 1021.23 919.52C1021.98 919.52 1022.54 919.28 1022.91 918.8C1023.28 918.32 1023.46 917.68 1023.46 916.88C1023.46 916.096 1023.27 915.496 1022.89 915.08C1022.5 914.664 1021.94 914.456 1021.21 914.456C1020.66 914.456 1020.22 914.592 1019.86 914.864C1019.51 915.12 1019.28 915.464 1019.17 915.896H1015.21V905.456H1026.42V909.056ZM1032.57 913.592C1031.07 912.792 1030.31 911.536 1030.31 909.824C1030.31 908.96 1030.54 908.176 1030.99 907.472C1031.43 906.752 1032.11 906.184 1033.03 905.768C1033.94 905.336 1035.06 905.12 1036.39 905.12C1037.71 905.12 1038.83 905.336 1039.72 905.768C1040.63 906.184 1041.31 906.752 1041.76 907.472C1042.21 908.176 1042.43 908.96 1042.43 909.824C1042.43 910.688 1042.23 911.44 1041.81 912.08C1041.41 912.72 1040.87 913.224 1040.18 913.592C1041.04 914.008 1041.71 914.584 1042.17 915.32C1042.63 916.04 1042.87 916.888 1042.87 917.864C1042.87 919 1042.58 919.984 1042 920.816C1041.43 921.632 1040.64 922.256 1039.65 922.688C1038.67 923.12 1037.59 923.336 1036.39 923.336C1035.19 923.336 1034.09 923.12 1033.1 922.688C1032.12 922.256 1031.35 921.632 1030.77 920.816C1030.19 919.984 1029.91 919 1029.91 917.864C1029.91 916.872 1030.14 916.016 1030.6 915.296C1031.07 914.56 1031.72 913.992 1032.57 913.592ZM1038.45 910.448C1038.45 909.792 1038.26 909.288 1037.87 908.936C1037.51 908.568 1037.01 908.384 1036.39 908.384C1035.76 908.384 1035.26 908.568 1034.87 908.936C1034.51 909.304 1034.32 909.816 1034.32 910.472C1034.32 911.096 1034.51 911.592 1034.9 911.96C1035.28 912.312 1035.78 912.488 1036.39 912.488C1036.99 912.488 1037.49 912.304 1037.87 911.936C1038.26 911.568 1038.45 911.072 1038.45 910.448ZM1036.39 915.368C1035.63 915.368 1035.03 915.576 1034.56 915.992C1034.1 916.392 1033.87 916.952 1033.87 917.672C1033.87 918.344 1034.09 918.896 1034.54 919.328C1035 919.76 1035.62 919.976 1036.39 919.976C1037.15 919.976 1037.75 919.76 1038.19 919.328C1038.63 918.896 1038.86 918.344 1038.86 917.672C1038.86 916.968 1038.63 916.408 1038.16 915.992C1037.71 915.576 1037.12 915.368 1036.39 915.368ZM1044.56 928.016V927.632C1046.16 925.968 1047.4 924 1048.28 921.728C1049.16 919.456 1049.6 917.096 1049.6 914.648C1049.6 912.184 1049.14 909.792 1048.23 907.472C1047.32 905.136 1046.02 903.136 1044.34 901.472V901.088H1048.37C1050.02 902.592 1051.29 904.544 1052.19 906.944C1053.08 909.328 1053.53 911.896 1053.53 914.648C1053.53 917.368 1053.1 919.904 1052.24 922.256C1051.37 924.608 1050.16 926.528 1048.61 928.016H1044.56ZM1061.63 919.712C1062.18 919.28 1062.42 919.08 1062.38 919.112C1063.94 917.816 1065.18 916.752 1066.07 915.92C1066.98 915.088 1067.75 914.216 1068.38 913.304C1069 912.392 1069.31 911.504 1069.31 910.64C1069.31 909.984 1069.16 909.472 1068.86 909.104C1068.55 908.736 1068.1 908.552 1067.49 908.552C1066.88 908.552 1066.4 908.784 1066.05 909.248C1065.71 909.696 1065.54 910.336 1065.54 911.168H1061.58C1061.62 909.808 1061.9 908.672 1062.45 907.76C1063.01 906.848 1063.74 906.176 1064.63 905.744C1065.54 905.312 1066.55 905.096 1067.66 905.096C1069.56 905.096 1070.99 905.584 1071.95 906.56C1072.93 907.536 1073.42 908.808 1073.42 910.376C1073.42 912.088 1072.83 913.68 1071.66 915.152C1070.5 916.608 1069.01 918.032 1067.2 919.424H1073.68V922.76H1061.63V919.712ZM1075.49 914C1075.49 911.248 1076.01 909.08 1077.07 907.496C1078.14 905.912 1079.86 905.12 1082.23 905.12C1084.6 905.12 1086.31 905.912 1087.37 907.496C1088.44 909.08 1088.97 911.248 1088.97 914C1088.97 916.784 1088.44 918.968 1087.37 920.552C1086.31 922.136 1084.6 922.928 1082.23 922.928C1079.86 922.928 1078.14 922.136 1077.07 920.552C1076.01 918.968 1075.49 916.784 1075.49 914ZM1084.94 914C1084.94 912.384 1084.77 911.144 1084.41 910.28C1084.06 909.4 1083.33 908.96 1082.23 908.96C1081.13 908.96 1080.4 909.4 1080.05 910.28C1079.69 911.144 1079.52 912.384 1079.52 914C1079.52 915.088 1079.58 915.992 1079.71 916.712C1079.84 917.416 1080.09 917.992 1080.48 918.44C1080.88 918.872 1081.46 919.088 1082.23 919.088C1083 919.088 1083.57 918.872 1083.96 918.44C1084.36 917.992 1084.62 917.416 1084.75 916.712C1084.88 915.992 1084.94 915.088 1084.94 914ZM1091.24 919.88V916.568L1098.82 905.72H1103.41V916.328H1105.37V919.88H1103.41V923H1099.3V919.88H1091.24ZM1099.59 910.232L1095.56 916.328H1099.59V910.232ZM1121.13 910.208C1121.01 909.616 1120.78 909.176 1120.46 908.888C1120.14 908.584 1119.69 908.432 1119.09 908.432C1118.18 908.432 1117.53 908.832 1117.13 909.632C1116.73 910.416 1116.52 911.664 1116.5 913.376C1116.85 912.816 1117.36 912.376 1118.01 912.056C1118.69 911.736 1119.42 911.576 1120.22 911.576C1121.79 911.576 1123.05 912.072 1123.99 913.064C1124.95 914.056 1125.43 915.44 1125.43 917.216C1125.43 918.384 1125.19 919.408 1124.71 920.288C1124.25 921.168 1123.56 921.856 1122.65 922.352C1121.75 922.848 1120.69 923.096 1119.45 923.096C1116.99 923.096 1115.28 922.328 1114.32 920.792C1113.36 919.24 1112.88 917.016 1112.88 914.12C1112.88 911.08 1113.38 908.824 1114.39 907.352C1115.41 905.864 1117.05 905.12 1119.29 905.12C1120.49 905.12 1121.49 905.36 1122.31 905.84C1123.14 906.304 1123.77 906.92 1124.18 907.688C1124.61 908.456 1124.87 909.296 1124.95 910.208H1121.13ZM1119.24 914.816C1118.55 914.816 1117.97 915.024 1117.51 915.44C1117.06 915.84 1116.84 916.416 1116.84 917.168C1116.84 917.936 1117.05 918.536 1117.46 918.968C1117.89 919.4 1118.5 919.616 1119.29 919.616C1119.99 919.616 1120.54 919.408 1120.94 918.992C1121.36 918.56 1121.57 917.976 1121.57 917.24C1121.57 916.488 1121.37 915.896 1120.97 915.464C1120.57 915.032 1119.99 914.816 1119.24 914.816ZM1132.17 917.864C1132.41 919.128 1133.14 919.76 1134.38 919.76C1135.22 919.76 1135.82 919.384 1136.18 918.632C1136.53 917.88 1136.7 916.656 1136.7 914.96C1136.35 915.456 1135.87 915.84 1135.26 916.112C1134.66 916.384 1133.98 916.52 1133.22 916.52C1132.2 916.52 1131.29 916.312 1130.49 915.896C1129.69 915.464 1129.06 914.832 1128.59 914C1128.14 913.152 1127.92 912.128 1127.92 910.928C1127.92 909.744 1128.16 908.712 1128.64 907.832C1129.14 906.952 1129.83 906.272 1130.73 905.792C1131.64 905.312 1132.71 905.072 1133.94 905.072C1136.31 905.072 1137.97 905.808 1138.91 907.28C1139.86 908.752 1140.33 910.92 1140.33 913.784C1140.33 915.864 1140.14 917.584 1139.75 918.944C1139.38 920.288 1138.75 921.312 1137.86 922.016C1136.98 922.72 1135.77 923.072 1134.23 923.072C1133.02 923.072 1131.98 922.832 1131.11 922.352C1130.26 921.872 1129.61 921.24 1129.14 920.456C1128.7 919.672 1128.44 918.808 1128.38 917.864H1132.17ZM1134.16 913.28C1134.83 913.28 1135.37 913.08 1135.77 912.68C1136.17 912.264 1136.37 911.704 1136.37 911C1136.37 910.232 1136.16 909.64 1135.74 909.224C1135.33 908.808 1134.77 908.6 1134.06 908.6C1133.36 908.6 1132.8 908.816 1132.38 909.248C1131.98 909.664 1131.78 910.24 1131.78 910.976C1131.78 911.664 1131.98 912.224 1132.38 912.656C1132.8 913.072 1133.39 913.28 1134.16 913.28ZM1142.61 919.88V916.568L1150.2 905.72H1154.78V916.328H1156.75V919.88H1154.78V923H1150.68V919.88H1142.61ZM1150.97 910.232L1146.93 916.328H1150.97V910.232ZM1169.94 908.552L1163.92 923H1159.72L1165.82 909.008H1158.35V905.504H1169.94V908.552Z" fill="#2E2E2E"/>
</g>
<g filter="url(#filter1_d_116_2)">
<rect x="136" y="329" width="132" height="72" rx="8" fill="white" shape-rendering="crispEdges"/>
<g clip-path="url(#clip0_116_2)">
<path fill-rule="evenodd" clip-rule="evenodd" d="M171.784 369.409C172.742 367.905 173.25 366.158 173.25 364.375C173.25 362.592 172.742 360.845 171.784 359.341C171.414 358.759 170.64 358.587 170.058 358.958C169.476 359.328 169.304 360.101 169.675 360.683C170.378 361.787 170.751 363.067 170.751 364.375C170.751 365.683 170.378 366.963 169.675 368.067C169.304 368.649 169.476 369.422 170.058 369.792C170.64 370.163 171.414 369.991 171.784 369.409Z" fill="#F178B6"/>
<path fill-rule="evenodd" clip-rule="evenodd" d="M177 360H185.75L188.25 355.625L185.75 351.25H165.125V360H172" fill="#F498E0" fill-opacity="0.8"/>
<path fill-rule="evenodd" clip-rule="evenodd" d="M166.375 358.75H172C172.69 358.75 173.25 359.31 173.25 360C173.25 360.69 172.69 361.25 172 361.25H165.125C164.434 361.25 163.875 360.69 163.875 360V351.25C163.875 350.56 164.434 350 165.125 350H185.75C186.199 350 186.612 350.24 186.835 350.63L189.335 355.005C189.555 355.389 189.555 355.861 189.335 356.245L186.835 360.62C186.612 361.01 186.199 361.25 185.75 361.25H177C176.31 361.25 175.75 360.69 175.75 360C175.75 359.31 176.31 358.75 177 358.75H185.024L186.81 355.625L185.024 352.5H166.375V358.75Z" fill="#F178B6"/>
<path fill-rule="evenodd" clip-rule="evenodd" d="M168.607 356.282C167.171 355.443 165.538 355 163.875 355C158.701 355 154.5 359.201 154.5 364.375C154.5 367.58 156.137 370.563 158.841 372.284C159.424 372.654 160.196 372.482 160.567 371.9C160.937 371.318 160.766 370.546 160.184 370.175C158.201 368.912 157 366.725 157 364.375C157 360.581 160.081 357.5 163.875 357.5C165.095 357.5 166.292 357.824 167.345 358.44C167.941 358.788 168.707 358.587 169.055 357.992C169.403 357.396 169.202 356.63 168.607 356.282Z" fill="#F178B6"/>
<path fill-rule="evenodd" clip-rule="evenodd" d="M163.173 379.999H163.164H163.155C163.129 379.999 163.104 379.999 163.079 379.998L163.024 379.997L163.002 379.996H162.984C162.959 379.995 162.933 379.994 162.909 379.993L162.856 379.991L162.831 379.99L162.814 379.989C162.789 379.988 162.764 379.987 162.739 379.985L162.688 379.983L162.661 379.981L162.646 379.979C162.62 379.977 162.594 379.976 162.57 379.974L162.522 379.97L162.491 379.968L162.477 379.966C162.452 379.964 162.427 379.962 162.401 379.959L162.356 379.955L162.314 379.951L162.311 379.95C162.285 379.947 162.259 379.944 162.234 379.941L162.191 379.936L162.145 379.931C162.119 379.927 162.093 379.924 162.067 379.921L162.027 379.915L161.98 379.908C161.954 379.904 161.927 379.901 161.901 379.896L161.893 379.895C161.841 379.887 161.788 379.878 161.736 379.869L161.729 379.868C161.677 379.859 161.624 379.849 161.571 379.839L161.567 379.838C161.514 379.828 161.461 379.817 161.408 379.805H161.406C160.569 379.625 159.776 379.325 159.046 378.924L159.046 378.924C159.023 378.911 158.999 378.899 158.977 378.886L158.942 378.866L158.904 378.844C158.882 378.832 158.861 378.819 158.839 378.807L158.805 378.787L158.766 378.764L158.764 378.763C158.744 378.751 158.724 378.739 158.704 378.726L158.698 378.723L158.687 378.716L158.669 378.705L158.64 378.687L158.626 378.677C158.607 378.666 158.589 378.655 158.571 378.644L158.561 378.637L158.547 378.629L158.535 378.621L158.511 378.605L158.494 378.594L158.474 378.581L158.447 378.563L158.426 378.55L158.403 378.534L158.387 378.523L158.359 378.505L158.316 378.475L158.293 378.46C156.495 377.221 155.182 375.326 154.701 373.122L154.694 373.089L154.68 373.023C154.676 373.001 154.671 372.979 154.667 372.957L154.654 372.891L154.646 372.852L154.641 372.824L154.637 372.798L154.629 372.757L154.618 372.69L154.607 372.623L154.603 372.597L154.601 372.582L154.597 372.556L154.593 372.527L154.591 372.513L154.587 372.489L154.585 372.473L154.578 372.421L154.571 372.364L154.569 372.354L154.566 372.33L154.564 372.309L154.561 372.286L154.559 372.269L154.557 372.254L154.555 372.236L154.553 372.218L154.551 372.199L154.548 372.171L154.546 372.145C154.543 372.126 154.541 372.106 154.539 372.086L154.539 372.081L154.537 372.062L154.534 372.034L154.533 372.013L154.531 371.997L154.53 371.978L154.529 371.959L154.527 371.944L154.526 371.923L154.523 371.892L154.522 371.871C154.52 371.851 154.519 371.83 154.517 371.809L154.514 371.756L154.513 371.737L154.512 371.723L154.511 371.7L154.511 371.681L154.51 371.668L154.509 371.644L154.508 371.614L154.507 371.594C154.506 371.572 154.505 371.552 154.504 371.531L154.503 371.476L154.502 371.459L154.502 371.445V371.419L154.501 371.402V371.39L154.501 371.363V371.334L154.5 371.314C154.5 371.293 154.5 371.271 154.5 371.25C154.5 371.228 154.5 371.206 154.5 371.185L154.501 371.137L154.501 371.109L154.502 371.081L154.502 371.051V371.033C154.504 370.989 154.505 370.946 154.507 370.902L154.509 370.856L154.51 370.828L154.511 370.8L154.514 370.756C154.728 366.911 157.431 363.724 161.037 362.783L161.04 362.782C161.126 362.759 161.214 362.738 161.302 362.718L161.307 362.717C161.336 362.711 161.364 362.704 161.393 362.697L161.397 362.697C161.454 362.684 161.512 362.672 161.57 362.661L161.578 362.66C161.606 362.654 161.634 362.649 161.662 362.644L161.67 362.643C161.727 362.633 161.784 362.622 161.841 362.613L161.851 362.611C161.879 362.607 161.906 362.603 161.934 362.599L161.945 362.597C161.974 362.593 162.002 362.589 162.031 362.584L162.081 362.578L162.116 362.573L162.126 362.572C162.154 362.568 162.181 362.565 162.209 362.561L162.223 362.56C162.25 362.557 162.278 362.554 162.306 362.551L162.356 362.545L162.394 362.541L162.404 362.541C162.431 362.538 162.459 362.536 162.486 362.533L162.502 362.532C162.529 362.529 162.557 362.527 162.584 362.525L162.633 362.521L162.681 362.518H162.684C162.711 362.516 162.739 362.514 162.767 362.513L162.783 362.513C162.811 362.511 162.838 362.509 162.865 362.508L162.912 362.506L162.966 362.504C162.994 362.504 163.022 362.503 163.051 362.502L163.066 362.502C163.094 362.501 163.121 362.501 163.149 362.501L163.194 362.5H163.25L163.339 362.501C163.4 362.501 163.461 362.502 163.522 362.504H163.522L163.605 362.507L163.619 362.507L163.647 362.509L163.678 362.511C163.872 362.52 164.065 362.536 164.256 362.557H164.258C165.401 362.689 166.478 363.041 167.444 363.571L167.471 363.585C167.471 363.585 167.503 363.602 167.5 363.601L167.521 363.613L167.563 363.636C167.563 363.636 167.576 363.644 167.571 363.641L167.59 363.652C167.59 363.652 167.598 363.657 167.594 363.654L167.656 363.69L167.7 363.716C167.7 363.716 167.717 363.726 167.713 363.724L167.734 363.736C167.734 363.736 167.74 363.74 167.736 363.737L167.805 363.779C167.805 363.779 167.816 363.786 167.812 363.784L167.835 363.798C167.835 363.798 167.858 363.812 167.856 363.81L167.876 363.823C167.876 363.823 167.88 363.826 167.876 363.822L167.946 363.867C167.946 363.867 167.956 363.874 167.951 363.871L167.969 363.882C167.969 363.882 168.001 363.903 167.999 363.901L168.016 363.913C168.016 363.913 168.025 363.918 168.023 363.917L168.058 363.939C168.058 363.939 168.07 363.948 168.066 363.945L168.086 363.958C168.086 363.958 168.093 363.963 168.09 363.961L168.154 364.004C168.154 364.004 168.166 364.012 168.163 364.01L168.189 364.028C168.189 364.028 168.205 364.039 168.202 364.037L168.223 364.051C168.223 364.051 168.229 364.056 168.225 364.052L168.291 364.099C168.291 364.099 168.302 364.106 168.298 364.104L168.318 364.118C168.318 364.118 168.34 364.134 168.337 364.132L168.358 364.147C168.358 364.147 168.363 364.15 168.361 364.149L168.403 364.179C168.403 364.179 168.412 364.186 168.407 364.182L168.426 364.196C168.426 364.196 168.435 364.202 168.431 364.199L168.446 364.211C168.446 364.211 168.476 364.233 168.475 364.232L168.492 364.245C168.492 364.245 168.503 364.253 168.501 364.252L168.53 364.274C168.53 364.274 168.542 364.282 168.538 364.28L168.558 364.295C168.558 364.295 168.566 364.301 168.562 364.299L168.624 364.346C168.624 364.346 168.636 364.355 168.632 364.353L168.654 364.37C168.654 364.37 168.671 364.382 168.667 364.38L168.689 364.397C168.689 364.397 168.694 364.401 168.691 364.399L168.753 364.449C168.753 364.449 168.764 364.458 168.761 364.454L168.778 364.469C168.778 364.469 168.798 364.486 168.796 364.484L168.817 364.501C168.817 364.501 168.826 364.509 168.825 364.507L168.859 364.536C168.859 364.536 168.867 364.542 168.862 364.539L168.881 364.554C168.881 364.554 168.89 364.562 168.886 364.558L168.899 364.569C168.899 364.569 168.928 364.594 168.927 364.594L168.944 364.607C168.944 364.607 168.956 364.618 168.954 364.616L168.978 364.638C168.978 364.638 168.99 364.647 168.986 364.644L169.006 364.662C169.006 364.662 169.014 364.668 169.011 364.666L169.068 364.717C169.068 364.717 169.081 364.727 169.077 364.725L169.096 364.742C169.096 364.742 169.111 364.755 169.109 364.753L169.13 364.772C169.13 364.772 169.135 364.777 169.132 364.774L169.191 364.828C169.191 364.828 169.201 364.838 169.197 364.834L169.213 364.848C169.213 364.848 169.233 364.866 169.231 364.865L169.251 364.884C169.251 364.884 169.262 364.895 169.261 364.894L169.289 364.92C169.289 364.92 169.296 364.928 169.292 364.924L169.311 364.941C169.311 364.941 169.32 364.95 169.316 364.946L169.327 364.956C169.327 364.956 169.356 364.984 169.355 364.984L169.371 364.999C169.371 364.999 169.383 365.011 169.381 365.009L169.402 365.029C169.402 365.029 169.413 365.04 169.409 365.038L169.429 365.057C169.429 365.057 169.436 365.064 169.433 365.061L169.488 365.116C169.488 365.116 169.499 365.128 169.496 365.124L169.512 365.141C169.512 365.141 169.527 365.156 169.524 365.154L169.545 365.175C169.545 365.175 169.551 365.181 169.551 365.181L169.585 365.217C169.585 365.217 169.59 365.222 169.586 365.217L169.603 365.234C169.603 365.234 169.613 365.246 169.609 365.241L169.621 365.255C169.621 365.255 169.641 365.275 169.639 365.274L169.659 365.295C169.659 365.295 169.671 365.308 169.669 365.306L169.692 365.331C169.692 365.331 169.701 365.34 169.697 365.336L169.715 365.356C169.715 365.356 169.723 365.365 169.719 365.36L169.728 365.37C169.728 365.37 169.758 365.404 169.758 365.403L169.771 365.417C169.771 365.417 169.782 365.431 169.781 365.428L169.798 365.448C169.798 365.448 169.809 365.46 169.806 365.457L169.825 365.479C169.825 365.479 169.831 365.486 169.829 365.482L169.879 365.541C169.879 365.541 169.891 365.554 169.888 365.551L169.902 365.567C169.902 365.567 169.916 365.583 169.914 365.581L169.933 365.604C169.933 365.604 169.943 365.615 169.941 365.614L169.969 365.647C169.969 365.647 169.974 365.653 169.971 365.649L169.986 365.668C169.986 365.668 169.996 365.679 169.992 365.674L170.003 365.687C170.003 365.687 170.022 365.711 170.021 365.709L170.039 365.732C170.039 365.732 170.051 365.746 170.049 365.744L170.069 365.769C170.069 365.769 170.077 365.779 170.074 365.774L170.091 365.796C170.091 365.796 170.098 365.805 170.096 365.802L170.142 365.861C170.142 365.861 170.153 365.876 170.151 365.872L170.167 365.893C170.167 365.893 170.178 365.906 170.175 365.903L170.193 365.926C170.193 365.926 170.198 365.933 170.196 365.93L170.243 365.993C170.243 365.993 170.252 366.006 170.25 366.001L170.263 366.018C170.263 366.018 170.276 366.037 170.275 366.035L170.292 366.059C170.292 366.059 170.302 366.071 170.301 366.07L170.325 366.102C170.325 366.102 170.33 366.11 170.327 366.106L170.342 366.126C170.342 366.126 170.349 366.137 170.346 366.132L170.356 366.145C170.356 366.145 170.376 366.173 170.375 366.172L170.39 366.193C170.39 366.193 170.4 366.208 170.399 366.206L170.417 366.231C170.417 366.231 170.424 366.242 170.422 366.239L170.438 366.261C170.438 366.261 170.444 366.27 170.441 366.266L170.485 366.329C170.485 366.329 170.494 366.343 170.492 366.34L170.506 366.361C170.506 366.361 170.517 366.378 170.515 366.374L170.531 366.398C170.531 366.398 170.535 366.404 170.533 366.401L170.577 366.467C170.577 366.467 170.585 366.48 170.582 366.476L170.593 366.493C170.593 366.493 170.608 366.516 170.607 366.514L170.622 366.537C170.622 366.537 170.629 366.549 170.629 366.548L170.65 366.582C170.65 366.582 170.656 366.591 170.653 366.586L170.667 366.607C170.667 366.607 170.673 366.618 170.669 366.613L170.678 366.626C170.678 366.626 170.701 366.663 170.701 366.662L170.711 366.678C170.711 366.678 170.719 366.692 170.717 366.689L170.734 366.716C170.734 366.716 170.743 366.731 170.74 366.726L170.754 366.749C170.754 366.749 170.758 366.757 170.756 366.753L170.796 366.821C170.796 366.821 170.804 366.833 170.801 366.83L170.814 366.853C170.814 366.853 170.826 366.873 170.825 366.87L170.838 366.892C170.838 366.892 170.841 366.897 170.839 366.894L170.879 366.965C170.879 366.965 170.886 366.976 170.882 366.971L170.893 366.99C170.893 366.99 170.91 367.02 170.909 367.018L170.92 367.038C170.92 367.038 170.925 367.047 170.924 367.046L170.944 367.083C170.944 367.083 170.951 367.095 170.949 367.091L170.96 367.111C170.96 367.111 170.964 367.12 170.962 367.116L170.999 367.185C170.999 367.185 171.005 367.196 171.003 367.193L171.019 367.223C171.019 367.223 171.028 367.241 171.026 367.238L171.037 367.259C171.037 367.259 171.041 367.265 171.038 367.261L171.076 367.334C171.076 367.334 171.081 367.344 171.078 367.34L171.091 367.365C171.091 367.365 171.104 367.392 171.103 367.389L171.107 367.397C171.122 367.429 171.138 367.462 171.154 367.494L171.156 367.5H185.75C186.081 367.5 186.399 367.632 186.634 367.866L189.134 370.366C189.555 370.787 189.621 371.448 189.29 371.943L186.79 375.693C186.441 376.218 185.755 376.4 185.191 376.118L183.34 375.192L180.193 377.29C179.873 377.504 179.471 377.558 179.105 377.436L175.547 376.25H170.43C168.912 378.425 166.431 379.879 163.607 379.992L163.583 379.994L163.568 379.994L163.552 379.995L163.532 379.996H163.523L163.477 379.997L163.446 379.997L163.434 379.998C163.434 379.998 163.428 379.998 163.434 379.998H163.427L163.401 379.999L163.349 379.999H163.326L163.25 380H163.194L163.173 379.999ZM163.529 379.996H163.534C163.528 379.996 163.529 379.996 163.529 379.996ZM170.344 370C169.822 370.009 169.329 369.688 169.145 369.169L169.134 369.139L169.014 368.832L168.968 368.723L168.968 368.725L168.943 368.667L168.944 368.671L168.932 368.644L168.893 368.561L168.894 368.563L168.812 368.398C168.812 368.398 168.809 368.392 168.814 368.403L168.807 368.389C168.807 368.389 168.798 368.37 168.801 368.377L168.788 368.351C168.788 368.351 168.781 368.339 168.787 368.35L168.756 368.293L168.751 368.282C168.751 368.282 168.744 368.27 168.747 368.276L168.73 368.244C168.73 368.244 168.725 368.235 168.731 368.245L168.724 368.234C168.724 368.234 168.707 368.204 168.711 368.211L168.701 368.191L168.611 368.036C168.611 368.036 168.606 368.029 168.612 368.039L168.602 368.022C168.602 368.022 168.594 368.008 168.597 368.015L168.583 367.991C168.583 367.991 168.575 367.978 168.581 367.988L168.577 367.981C168.577 367.981 168.554 367.944 168.558 367.951L168.55 367.938C168.55 367.938 168.544 367.928 168.55 367.938L168.54 367.922C168.54 367.922 168.534 367.912 168.538 367.919L168.519 367.889C168.519 367.889 168.512 367.877 168.518 367.887L168.508 367.872C168.508 367.872 168.493 367.849 168.497 367.855L168.487 367.84C168.487 367.84 168.479 367.828 168.486 367.838L168.451 367.784C168.451 367.784 168.446 367.778 168.453 367.788L168.441 367.771C168.441 367.771 168.431 367.755 168.435 367.761L168.423 367.743C168.423 367.743 168.413 367.729 168.42 367.739L168.386 367.689C168.386 367.689 168.379 367.68 168.386 367.69L168.374 367.673C168.374 367.673 168.366 367.662 168.371 367.668L168.356 367.646C168.356 367.646 168.345 367.632 168.352 367.641L168.343 367.628C168.343 367.628 168.323 367.601 168.328 367.606L168.319 367.594C168.319 367.594 168.311 367.584 168.318 367.593L168.306 367.578C168.306 367.578 168.301 367.57 168.305 367.576L168.284 367.548C168.284 367.548 168.276 367.536 168.283 367.545L168.27 367.529C168.27 367.529 168.256 367.509 168.261 367.516L168.249 367.501C168.249 367.501 168.24 367.488 168.247 367.497L168.209 367.448C168.209 367.448 168.204 367.441 168.211 367.451L168.198 367.434C168.198 367.434 168.187 367.42 168.192 367.426L168.179 367.409C168.179 367.409 168.167 367.394 168.175 367.404L168.138 367.357C168.138 367.357 168.131 367.348 168.138 367.357L168.125 367.341C168.125 367.341 168.117 367.331 168.122 367.338L168.106 367.316C168.106 367.316 168.094 367.302 168.101 367.311L168.089 367.296C168.089 367.296 168.07 367.273 168.075 367.279L168.065 367.267C168.065 367.267 168.056 367.256 168.064 367.265L168.051 367.251C168.051 367.251 168.046 367.244 168.051 367.25L168.027 367.222C168.027 367.222 168.018 367.211 168.026 367.22L168.011 367.203C168.011 367.203 167.997 367.187 168.002 367.192L167.99 367.179C167.99 367.179 167.979 367.166 167.987 367.175L167.944 367.126L167.934 367.114C167.934 367.114 167.923 367.102 167.928 367.108L167.913 367.091C167.913 367.091 167.901 367.077 167.909 367.086L167.903 367.079C167.903 367.079 167.873 367.046 167.878 367.052L167.869 367.042C167.869 367.042 167.861 367.033 167.869 367.042L167.856 367.027C167.856 367.027 167.848 367.019 167.853 367.024L167.833 367.003C167.833 367.003 167.821 366.99 167.829 366.998L167.816 366.984C167.816 366.984 167.797 366.964 167.802 366.969L167.791 366.957C167.791 366.957 167.781 366.947 167.789 366.955L167.776 366.942C167.776 366.942 167.771 366.936 167.776 366.942L167.744 366.909L167.733 366.897C167.733 366.897 167.719 366.883 167.724 366.888L167.71 366.874C167.71 366.874 167.698 366.861 167.706 366.87L167.661 366.824L167.65 366.813C167.65 366.813 167.639 366.802 167.644 366.807L167.627 366.791C167.627 366.791 167.614 366.778 167.623 366.786L167.614 366.779C167.614 366.779 167.586 366.75 167.591 366.755L167.581 366.746C167.581 366.746 167.572 366.737 167.58 366.745L167.566 366.732C167.566 366.732 167.558 366.724 167.564 366.729L167.54 366.707C167.54 366.707 167.529 366.696 167.538 366.704L167.523 366.691C167.523 366.691 167.504 366.672 167.509 366.677L167.496 366.666C167.496 366.666 167.486 366.656 167.494 366.664L167.447 366.621C167.447 366.621 167.442 366.616 167.451 366.624L167.436 366.61C167.436 366.61 167.421 366.597 167.426 366.602L167.409 366.587C167.409 366.587 167.398 366.576 167.406 366.584L167.361 366.544C167.361 366.544 167.353 366.537 167.362 366.545L167.347 366.532C167.347 366.532 167.336 366.522 167.341 366.527L167.321 366.509C167.321 366.509 167.308 366.499 167.318 366.506L167.308 366.499C167.308 366.499 167.279 366.473 167.284 366.478L167.272 366.468C167.272 366.468 167.263 366.46 167.272 366.467L167.258 366.456C167.258 366.456 167.25 366.449 167.256 366.454L167.226 366.429C167.226 366.429 167.217 366.422 167.227 366.43L167.212 366.419C167.212 366.419 167.192 366.401 167.198 366.406L167.182 366.394C167.182 366.394 167.172 366.385 167.181 366.393L167.131 366.353C167.131 366.353 167.126 366.348 167.134 366.355L167.119 366.344C167.119 366.344 167.104 366.331 167.11 366.336L167.091 366.321C167.091 366.321 167.079 366.311 167.088 366.319L167.037 366.279L167.026 366.271C167.026 366.271 167.014 366.262 167.021 366.267L166.996 366.247C166.996 366.247 166.984 366.239 166.994 366.246L166.985 366.24C166.985 366.24 166.954 366.217 166.96 366.221L166.946 366.211C166.946 366.211 166.937 366.204 166.946 366.211L166.932 366.201C166.932 366.201 166.924 366.195 166.93 366.199L166.798 366.105C166.798 366.105 166.792 366.101 166.801 366.107L166.787 366.098C166.787 366.098 166.77 366.086 166.776 366.091L166.754 366.075C166.754 366.075 166.742 366.068 166.752 366.074L166.699 366.038L166.689 366.032C166.689 366.032 166.676 366.023 166.682 366.028L166.653 366.007C166.653 366.007 166.644 366.002 166.654 366.009L166.644 366.003C166.644 366.003 166.613 365.982 166.619 365.986L166.601 365.975L166.448 365.88L166.451 365.882L166.435 365.872L166.401 365.852C166.401 365.852 166.393 365.848 166.399 365.851L166.345 365.82L166.294 365.791L166.242 365.763L166.089 365.681C166.046 365.659 166.002 365.638 165.959 365.617L165.892 365.585L165.869 365.574L165.846 365.564L165.787 365.538C165.712 365.504 165.636 365.472 165.56 365.441L165.519 365.425L165.482 365.411L165.445 365.397L165.408 365.383C165.325 365.352 165.241 365.324 165.156 365.296L165.126 365.287L165.082 365.273L165.041 365.261L165.009 365.251C164.924 365.226 164.838 365.203 164.751 365.182L164.712 365.173L164.671 365.162L164.657 365.159L164.511 365.127L164.491 365.124L164.461 365.117L164.405 365.107L164.371 365.101L164.344 365.096L164.279 365.084L164.249 365.079C164.228 365.076 164.208 365.073 164.188 365.07L164.137 365.062L164.103 365.058L164.065 365.052L164.052 365.051L163.961 365.04L163.941 365.038L163.934 365.037L163.831 365.027C163.793 365.023 163.755 365.02 163.717 365.017L163.64 365.012L163.631 365.011L163.508 365.005H163.506L163.379 365.001H163.379L163.314 365.001H163.316L163.306 365H163.249L163.186 365.001H163.179H163.147L163.101 365.002L163.069 365.003L163.027 365.004L162.992 365.005L162.953 365.007L162.918 365.009L162.876 365.011L162.844 365.013L162.775 365.018L162.739 365.021L162.703 365.024L162.664 365.027L162.63 365.031L162.591 365.034L162.557 365.038L162.519 365.043L162.486 365.046L162.446 365.051L162.379 365.061L162.34 365.066L162.309 365.071L162.269 365.077L162.237 365.082L162.198 365.088L162.167 365.094L162.128 365.101L162.096 365.107L162.057 365.114L162.027 365.12L161.988 365.127L161.922 365.141L161.884 365.15L161.852 365.157L161.815 365.166L161.783 365.174L161.746 365.182L161.713 365.191L161.677 365.2L161.643 365.209L161.608 365.218L161.544 365.236L161.512 365.246L161.476 365.256L161.443 365.266L161.408 365.277L161.374 365.287L161.339 365.298L161.306 365.309L161.269 365.321L161.239 365.331L161.189 365.348L161.174 365.354L161.108 365.378L161.082 365.387L161.041 365.403L161.014 365.412L160.974 365.428L160.948 365.439L160.905 365.456L160.881 365.465L160.829 365.487L160.816 365.492L160.751 365.521L160.738 365.526L160.685 365.549L160.666 365.558L160.619 365.58L160.6 365.589L160.552 365.611L160.535 365.62L160.479 365.647L160.472 365.651L160.406 365.684L160.341 365.718L160.333 365.722L160.277 365.752L160.265 365.759L160.212 365.788L160.201 365.794L160.142 365.828L160.139 365.829L160.075 365.867C160.053 365.879 160.032 365.893 160.01 365.906L159.947 365.944L159.944 365.946L159.884 365.984L159.881 365.986C158.234 367.043 157.115 368.851 157.008 370.924V370.932L157.004 371.006V371.014L157.002 371.082L157.002 371.092L157.001 371.163V371.189L157 371.204V371.25V371.296L157.001 371.31V371.337L157.002 371.407L157.002 371.419L157.004 371.484L157.005 371.494L157.008 371.564L157.009 371.58L157.012 371.649L157.013 371.658L157.017 371.721L157.019 371.737L157.024 371.803L157.026 371.821L157.031 371.88L157.033 371.891L157.039 371.957L157.042 371.977L157.049 372.041L157.052 372.058L157.059 372.11L157.062 372.131L157.071 372.191L157.074 372.215L157.083 372.265L157.084 372.279L157.087 372.292L157.095 372.341L157.1 372.367L157.11 372.424L157.116 372.451L157.123 372.489L157.129 372.517L157.14 372.571L157.147 372.602L157.155 372.638L157.159 372.657L157.166 372.686L157.173 372.715L157.181 372.75L157.194 372.798L157.203 372.835L157.209 372.857L157.218 372.89L157.227 372.923L157.231 372.939L157.243 372.98L157.257 373.028L157.269 373.067L157.272 373.078L157.285 373.119C157.289 373.134 157.294 373.149 157.299 373.164L157.314 373.211C157.747 374.518 158.599 375.635 159.712 376.401C159.758 376.433 159.804 376.464 159.852 376.495L159.857 376.498L159.901 376.527L159.907 376.531L159.951 376.558C159.968 376.568 159.984 376.578 160 376.588L160.036 376.61L160.057 376.623L160.091 376.642L160.117 376.658L160.147 376.675L160.201 376.706L160.222 376.718L160.261 376.739L160.283 376.751L160.327 376.775L160.343 376.783L160.405 376.816L160.469 376.848L160.479 376.853L160.538 376.882L160.542 376.884C161.339 377.267 162.229 377.488 163.169 377.499L163.201 377.5H163.235H163.252H163.299L163.316 377.499L163.522 377.494L163.534 377.494L163.582 377.491L163.591 377.491L163.789 377.477H163.794L163.984 377.457L163.996 377.456L164.178 377.431L164.199 377.428L164.372 377.399L164.413 377.392L164.463 377.383L164.626 377.348L164.66 377.34L164.815 377.302L164.819 377.301L164.854 377.292L164.999 377.251C165.053 377.236 165.107 377.219 165.161 377.202L165.167 377.2C166.259 376.848 167.22 376.203 167.957 375.359L167.964 375.352L167.993 375.317C168.004 375.305 168.015 375.292 168.026 375.279L168.051 375.249L168.061 375.237L168.086 375.208L168.099 375.191L168.122 375.163L168.154 375.123L168.174 375.097L168.191 375.075L168.211 375.051L168.231 375.023L168.246 375.004L168.279 374.959L168.294 374.938L168.317 374.908L168.331 374.889L168.364 374.841L168.371 374.832L168.401 374.789L168.411 374.774L168.439 374.734L168.446 374.722L168.481 374.67L168.486 374.662L168.516 374.616L168.523 374.605L168.557 374.551L168.592 374.494L168.595 374.489L168.626 374.437L168.63 374.431L168.664 374.374C168.718 374.283 168.78 374.199 168.854 374.123C169.083 373.89 169.395 373.761 169.72 373.75H169.745H175.75C175.884 373.75 176.018 373.772 176.145 373.814L179.315 374.871L182.557 372.71C182.93 372.461 183.407 372.431 183.809 372.632L185.322 373.389L186.641 371.409L185.232 370H170.344ZM169.014 368.832L169.016 368.835L169.014 368.832ZM168.756 368.293L168.759 368.298C168.756 368.293 168.756 368.292 168.756 368.293ZM168.701 368.191L168.702 368.193C168.698 368.187 168.699 368.189 168.701 368.191ZM167.944 367.126L167.948 367.13C167.944 367.126 167.944 367.125 167.944 367.126ZM167.744 366.909L167.747 366.913C167.743 366.908 167.743 366.908 167.744 366.909ZM167.661 366.824L167.664 366.828C167.661 366.824 167.66 366.823 167.661 366.824ZM167.037 366.279L167.041 366.282C167.036 366.279 167.036 366.278 167.037 366.279ZM166.699 366.038L166.703 366.041C166.698 366.038 166.697 366.037 166.699 366.038ZM166.601 365.975L166.604 365.976C166.597 365.972 166.599 365.973 166.601 365.975Z" fill="#F178B6"/>
</g>
<path d="M218.224 364.384C218.832 364.48 219.384 364.728 219.88 365.128C220.392 365.528 220.792 366.024 221.08 366.616C221.384 367.208 221.536 367.84 221.536 368.512C221.536 369.36 221.32 370.128 220.888 370.816C220.456 371.488 219.824 372.024 218.992 372.424C218.176 372.808 217.208 373 216.088 373H209.848V356.272H215.848C216.984 356.272 217.952 356.464 218.752 356.848C219.552 357.216 220.152 357.72 220.552 358.36C220.952 359 221.152 359.72 221.152 360.52C221.152 361.512 220.88 362.336 220.336 362.992C219.808 363.632 219.104 364.096 218.224 364.384ZM212.032 363.496H215.704C216.728 363.496 217.52 363.256 218.08 362.776C218.64 362.296 218.92 361.632 218.92 360.784C218.92 359.936 218.64 359.272 218.08 358.792C217.52 358.312 216.712 358.072 215.656 358.072H212.032V363.496ZM215.896 371.2C216.984 371.2 217.832 370.944 218.44 370.432C219.048 369.92 219.352 369.208 219.352 368.296C219.352 367.368 219.032 366.64 218.392 366.112C217.752 365.568 216.896 365.296 215.824 365.296H212.032V371.2H215.896ZM236.231 359.848V373H234.047V371.056C233.631 371.728 233.047 372.256 232.295 372.64C231.559 373.008 230.743 373.192 229.847 373.192C228.823 373.192 227.903 372.984 227.087 372.568C226.271 372.136 225.623 371.496 225.143 370.648C224.679 369.8 224.447 368.768 224.447 367.552V359.848H226.607V367.264C226.607 368.56 226.935 369.56 227.591 370.264C228.247 370.952 229.143 371.296 230.279 371.296C231.447 371.296 232.367 370.936 233.039 370.216C233.711 369.496 234.047 368.448 234.047 367.072V359.848H236.231ZM251.246 359.848L243.326 379.192H241.07L243.662 372.856L238.358 359.848H240.782L244.91 370.504L248.99 359.848H251.246Z" fill="#2E2E2E"/>
</g>
<g filter="url(#filter2_d_116_2)">
<rect x="1100" y="234" width="129" height="72" rx="8" fill="white" shape-rendering="crispEdges"/>
<g clip-path="url(#clip1_116_2)">
<path fill-rule="evenodd" clip-rule="evenodd" d="M1136.62 285C1136.62 284.31 1137.18 283.75 1137.87 283.75C1138.56 283.75 1139.13 284.31 1139.13 285V286.25C1139.13 286.94 1138.57 287.5 1137.87 287.5H1134.12C1133.43 287.5 1132.87 286.94 1132.87 286.25V253.75C1132.87 253.06 1133.43 252.5 1134.12 252.5H1137.87C1138.57 252.5 1139.13 253.06 1139.13 253.75V280C1139.13 280.69 1138.56 281.25 1137.87 281.25C1137.18 281.25 1136.62 280.69 1136.62 280V255H1135.38V285H1136.62Z" fill="#F178B6"/>
<path fill-rule="evenodd" clip-rule="evenodd" d="M1149.12 256.25H1137.88V262.5H1149.12L1152.25 259.375L1149.12 256.25Z" fill="#FFA3EB" fill-opacity="0.8"/>
<path fill-rule="evenodd" clip-rule="evenodd" d="M1150.01 255.365C1149.77 255.131 1149.46 255 1149.12 255H1137.87C1137.18 255 1136.62 255.559 1136.62 256.25V262.5C1136.62 263.19 1137.18 263.75 1137.87 263.75H1149.12C1149.46 263.75 1149.77 263.618 1150.01 263.384L1153.13 260.259C1153.62 259.77 1153.62 258.979 1153.13 258.49L1150.01 255.365ZM1139.12 257.5V261.25H1148.61L1150.48 259.375L1148.61 257.5H1139.12Z" fill="#F178B6"/>
<path fill-rule="evenodd" clip-rule="evenodd" d="M1122.88 258.75C1122.54 258.75 1122.23 258.881 1121.99 259.115L1118.87 262.24C1118.38 262.729 1118.38 263.52 1118.87 264.009L1121.99 267.134C1122.23 267.368 1122.54 267.5 1122.88 267.5H1134.12C1134.82 267.5 1135.38 266.94 1135.38 266.25V260C1135.38 259.309 1134.82 258.75 1134.12 258.75H1122.88ZM1123.39 261.25L1121.52 263.125L1123.39 265H1132.88V261.25H1123.39Z" fill="#F178B6"/>
<path fill-rule="evenodd" clip-rule="evenodd" d="M1126 287.5H1146C1146.69 287.5 1147.25 286.94 1147.25 286.25C1147.25 285.56 1146.69 285 1146 285H1126C1125.31 285 1124.75 285.56 1124.75 286.25C1124.75 286.94 1125.31 287.5 1126 287.5Z" fill="#F178B6"/>
</g>
<path d="M1179.15 278.168C1178.05 278.168 1177.06 277.976 1176.18 277.592C1175.31 277.192 1174.63 276.648 1174.14 275.96C1173.64 275.256 1173.38 274.448 1173.37 273.536H1175.7C1175.78 274.32 1176.1 274.984 1176.66 275.528C1177.23 276.056 1178.06 276.32 1179.15 276.32C1180.19 276.32 1181.01 276.064 1181.6 275.552C1182.21 275.024 1182.51 274.352 1182.51 273.536C1182.51 272.896 1182.34 272.376 1181.98 271.976C1181.63 271.576 1181.19 271.272 1180.66 271.064C1180.14 270.856 1179.42 270.632 1178.53 270.392C1177.42 270.104 1176.54 269.816 1175.86 269.528C1175.21 269.24 1174.64 268.792 1174.16 268.184C1173.7 267.56 1173.46 266.728 1173.46 265.688C1173.46 264.776 1173.7 263.968 1174.16 263.264C1174.62 262.56 1175.27 262.016 1176.1 261.632C1176.95 261.248 1177.92 261.056 1179.01 261.056C1180.58 261.056 1181.86 261.448 1182.85 262.232C1183.86 263.016 1184.42 264.056 1184.55 265.352H1182.15C1182.07 264.712 1181.74 264.152 1181.14 263.672C1180.55 263.176 1179.77 262.928 1178.79 262.928C1177.88 262.928 1177.14 263.168 1176.56 263.648C1175.98 264.112 1175.7 264.768 1175.7 265.616C1175.7 266.224 1175.86 266.72 1176.2 267.104C1176.55 267.488 1176.98 267.784 1177.47 267.992C1177.98 268.184 1178.7 268.408 1179.61 268.664C1180.71 268.968 1181.6 269.272 1182.27 269.576C1182.94 269.864 1183.52 270.32 1184 270.944C1184.48 271.552 1184.72 272.384 1184.72 273.44C1184.72 274.256 1184.5 275.024 1184.07 275.744C1183.64 276.464 1183 277.048 1182.15 277.496C1181.3 277.944 1180.3 278.168 1179.15 278.168ZM1199.93 270.92C1199.93 271.336 1199.91 271.776 1199.86 272.24H1189.35C1189.43 273.536 1189.87 274.552 1190.67 275.288C1191.49 276.008 1192.47 276.368 1193.62 276.368C1194.57 276.368 1195.35 276.152 1195.97 275.72C1196.61 275.272 1197.06 274.68 1197.32 273.944H1199.67C1199.32 275.208 1198.61 276.24 1197.56 277.04C1196.5 277.824 1195.19 278.216 1193.62 278.216C1192.37 278.216 1191.25 277.936 1190.26 277.376C1189.29 276.816 1188.52 276.024 1187.96 275C1187.4 273.96 1187.12 272.76 1187.12 271.4C1187.12 270.04 1187.39 268.848 1187.93 267.824C1188.48 266.8 1189.24 266.016 1190.21 265.472C1191.21 264.912 1192.34 264.632 1193.62 264.632C1194.87 264.632 1195.97 264.904 1196.93 265.448C1197.89 265.992 1198.63 266.744 1199.14 267.704C1199.67 268.648 1199.93 269.72 1199.93 270.92ZM1197.68 270.464C1197.68 269.632 1197.49 268.92 1197.13 268.328C1196.76 267.72 1196.25 267.264 1195.61 266.96C1194.99 266.64 1194.29 266.48 1193.53 266.48C1192.42 266.48 1191.48 266.832 1190.69 267.536C1189.93 268.24 1189.49 269.216 1189.37 270.464H1197.68ZM1205 260.24V278H1202.82V260.24H1205ZM1210.91 260.24V278H1208.72V260.24H1210.91Z" fill="#2E2E2E"/>
</g>
<g filter="url(#filter3_d_116_2)">
<rect x="306" y="903" width="142" height="72" rx="8" fill="white" shape-rendering="crispEdges"/>
<g clip-path="url(#clip2_116_2)">
<path fill-rule="evenodd" clip-rule="evenodd" d="M332.83 954C332.335 954.766 332 955.25 332 955.25C332 955.25 327 948.01 327 945.25C327 942.491 329.241 940.25 332 940.25C334.76 940.25 337 942.491 337 945.25C337 946.156 336.462 947.544 335.739 949" fill="#FF76E1" fill-opacity="0.8"/>
<path fill-rule="evenodd" clip-rule="evenodd" d="M332.035 953.036C332.444 952.698 333.041 952.648 333.51 952.951C334.089 953.326 334.255 954.101 333.88 954.68C333.371 955.464 333.029 955.961 333.029 955.961C332.795 956.299 332.411 956.5 332 956.5C331.59 956.5 331.205 956.299 330.972 955.961C330.972 955.961 328.46 952.321 326.952 949.166C326.225 947.644 325.75 946.207 325.75 945.25C325.75 941.801 328.551 939 332 939C335.45 939 338.25 941.801 338.25 945.25C338.25 946.286 337.685 947.89 336.858 949.556C336.551 950.174 335.8 950.427 335.182 950.12C334.564 949.813 334.312 949.062 334.619 948.444C335.239 947.197 335.75 946.026 335.75 945.25C335.75 943.181 334.07 941.5 332 941.5C329.931 941.5 328.25 943.181 328.25 945.25C328.25 945.95 328.676 946.975 329.208 948.088C330.046 949.842 331.212 951.753 332.035 953.036Z" fill="#FF76E1"/>
<path fill-rule="evenodd" clip-rule="evenodd" d="M352 936.501H346.375C345.215 936.501 344.102 936.961 343.281 937.782C342.461 938.602 342 939.715 342 940.876C342 940.876 342 940.876 342 940.877C342 943.292 343.958 945.251 346.374 945.251C347.154 945.251 348.014 945.251 348.875 945.251C351.291 945.251 353.25 947.209 353.25 949.626C353.25 952.042 351.291 954.001 348.875 954.001H332C331.31 954.001 330.75 954.561 330.75 955.25C330.75 955.94 331.31 956.5 332 956.5H348.875C352.672 956.5 355.75 953.422 355.75 949.626C355.75 945.829 352.672 942.751 348.875 942.751C348.014 942.751 347.154 942.751 346.374 942.751C345.339 942.751 344.5 941.911 344.5 940.877C344.5 940.876 344.5 940.876 344.5 940.876C344.5 940.378 344.697 939.901 345.049 939.549C345.401 939.198 345.877 939 346.375 939C348.887 939 352 939 352 939C352.69 939 353.25 938.44 353.25 937.75C353.25 937.061 352.69 936.501 352 936.501Z" fill="#FF76E1"/>
<path d="M332 946.5C332.69 946.5 333.25 945.94 333.25 945.25C333.25 944.56 332.69 944 332 944C331.31 944 330.75 944.56 330.75 945.25C330.75 945.94 331.31 946.5 332 946.5Z" fill="#E839C1"/>
<path fill-rule="evenodd" clip-rule="evenodd" d="M352 921.5C348.551 921.5 345.75 924.301 345.75 927.75C345.75 928.707 346.225 930.144 346.952 931.666C348.46 934.821 350.972 938.461 350.972 938.461C351.205 938.799 351.59 939 352 939C352.411 939 352.795 938.799 353.029 938.461C353.029 938.461 355.54 934.821 357.048 931.666C357.776 930.144 358.25 928.707 358.25 927.75C358.25 924.301 355.45 921.5 352 921.5ZM352 935.481C352.821 934.199 353.966 932.317 354.792 930.588C355.325 929.475 355.75 928.45 355.75 927.75C355.75 925.681 354.07 924 352 924C349.931 924 348.25 925.681 348.25 927.75C348.25 928.45 348.676 929.475 349.208 930.588C350.034 932.317 351.179 934.199 352 935.481Z" fill="#FF76E1"/>
<path d="M352 929C352.69 929 353.25 928.44 353.25 927.75C353.25 927.06 352.69 926.5 352 926.5C351.31 926.5 350.75 927.06 350.75 927.75C350.75 928.44 351.31 929 352 929Z" fill="#E839C1"/>
</g>
<path d="M388.656 947L384.672 940.16H382.032V947H379.848V930.272H385.248C386.512 930.272 387.576 930.488 388.44 930.92C389.32 931.352 389.976 931.936 390.408 932.672C390.84 933.408 391.056 934.248 391.056 935.192C391.056 936.344 390.72 937.36 390.048 938.24C389.392 939.12 388.4 939.704 387.072 939.992L391.272 947H388.656ZM382.032 938.408H385.248C386.432 938.408 387.32 938.12 387.912 937.544C388.504 936.952 388.8 936.168 388.8 935.192C388.8 934.2 388.504 933.432 387.912 932.888C387.336 932.344 386.448 932.072 385.248 932.072H382.032V938.408ZM406.45 939.92C406.45 940.336 406.426 940.776 406.378 941.24H395.866C395.946 942.536 396.386 943.552 397.186 944.288C398.002 945.008 398.986 945.368 400.138 945.368C401.082 945.368 401.866 945.152 402.49 944.72C403.13 944.272 403.578 943.68 403.834 942.944H406.186C405.834 944.208 405.13 945.24 404.074 946.04C403.018 946.824 401.706 947.216 400.138 947.216C398.89 947.216 397.77 946.936 396.778 946.376C395.802 945.816 395.034 945.024 394.474 944C393.914 942.96 393.634 941.76 393.634 940.4C393.634 939.04 393.906 937.848 394.45 936.824C394.994 935.8 395.754 935.016 396.73 934.472C397.722 933.912 398.858 933.632 400.138 933.632C401.386 933.632 402.49 933.904 403.45 934.448C404.41 934.992 405.146 935.744 405.658 936.704C406.186 937.648 406.45 938.72 406.45 939.92ZM404.194 939.464C404.194 938.632 404.01 937.92 403.642 937.328C403.274 936.72 402.77 936.264 402.13 935.96C401.506 935.64 400.81 935.48 400.042 935.48C398.938 935.48 397.994 935.832 397.21 936.536C396.442 937.24 396.002 938.216 395.89 939.464H404.194ZM415.74 933.608C417.34 933.608 418.636 934.096 419.628 935.072C420.62 936.032 421.116 937.424 421.116 939.248V947H418.956V939.56C418.956 938.248 418.628 937.248 417.972 936.56C417.316 935.856 416.42 935.504 415.284 935.504C414.132 935.504 413.212 935.864 412.524 936.584C411.852 937.304 411.516 938.352 411.516 939.728V947H409.332V933.848H411.516V935.72C411.948 935.048 412.532 934.528 413.268 934.16C414.02 933.792 414.844 933.608 415.74 933.608ZM427.348 935.648V943.4C427.348 944.04 427.484 944.496 427.756 944.768C428.028 945.024 428.5 945.152 429.172 945.152H430.78V947H428.812C427.596 947 426.684 946.72 426.076 946.16C425.468 945.6 425.164 944.68 425.164 943.4V935.648H423.46V933.848H425.164V930.536H427.348V933.848H430.78V935.648H427.348Z" fill="#2E2E2E"/>
</g>
<g filter="url(#filter4_d_116_2)">
<rect x="858" y="1227" width="283" height="72" rx="8" fill="white" shape-rendering="crispEdges"/>
<path opacity="0.15" d="M893.5 1247L907 1278.82L893.5 1273.21L880 1278.82L893.5 1247Z" fill="#F817E1"/>
<path d="M907 1278.82L893.5 1247L880 1278.82L893.5 1273.21L907 1278.82Z" stroke="#EA3898" stroke-width="1.5" stroke-linecap="round" stroke-linejoin="round"/>
<path d="M934.032 1256.05V1261.64H940.128V1263.44H934.032V1269.2H940.848V1271H931.848V1254.25H940.848V1256.05H934.032ZM946.337 1253.24V1271H944.153V1253.24H946.337ZM967.641 1259.17C967.641 1260.56 967.161 1261.72 966.201 1262.65C965.257 1263.56 963.809 1264.02 961.857 1264.02H958.641V1271H956.457V1254.27H961.857C963.745 1254.27 965.177 1254.73 966.153 1255.64C967.145 1256.55 967.641 1257.73 967.641 1259.17ZM961.857 1262.22C963.073 1262.22 963.969 1261.95 964.545 1261.42C965.121 1260.9 965.409 1260.14 965.409 1259.17C965.409 1257.1 964.225 1256.07 961.857 1256.07H958.641V1262.22H961.857ZM969.54 1264.38C969.54 1263.03 969.812 1261.86 970.356 1260.85C970.9 1259.82 971.644 1259.03 972.588 1258.47C973.548 1257.91 974.612 1257.63 975.78 1257.63C976.932 1257.63 977.932 1257.88 978.78 1258.38C979.628 1258.87 980.26 1259.5 980.676 1260.25V1257.85H982.884V1271H980.676V1268.55C980.244 1269.32 979.596 1269.96 978.732 1270.47C977.884 1270.97 976.892 1271.22 975.756 1271.22C974.588 1271.22 973.532 1270.93 972.588 1270.35C971.644 1269.78 970.9 1268.97 970.356 1267.93C969.812 1266.89 969.54 1265.7 969.54 1264.38ZM980.676 1264.4C980.676 1263.41 980.476 1262.54 980.076 1261.81C979.676 1261.07 979.132 1260.51 978.444 1260.13C977.772 1259.73 977.028 1259.53 976.212 1259.53C975.396 1259.53 974.652 1259.72 973.98 1260.1C973.308 1260.49 972.772 1261.05 972.372 1261.78C971.972 1262.52 971.772 1263.38 971.772 1264.38C971.772 1265.38 971.972 1266.26 972.372 1267.02C972.772 1267.75 973.308 1268.32 973.98 1268.72C974.652 1269.1 975.396 1269.3 976.212 1269.3C977.028 1269.3 977.772 1269.1 978.444 1268.72C979.132 1268.32 979.676 1267.75 980.076 1267.02C980.476 1266.26 980.676 1265.39 980.676 1264.4ZM991.231 1271.22C990.223 1271.22 989.319 1271.05 988.519 1270.71C987.719 1270.36 987.087 1269.88 986.623 1269.27C986.159 1268.65 985.903 1267.94 985.855 1267.14H988.111C988.175 1267.79 988.479 1268.33 989.023 1268.74C989.583 1269.16 990.311 1269.37 991.207 1269.37C992.039 1269.37 992.695 1269.18 993.175 1268.82C993.655 1268.45 993.895 1267.98 993.895 1267.42C993.895 1266.85 993.639 1266.42 993.127 1266.15C992.615 1265.86 991.823 1265.58 990.751 1265.31C989.775 1265.06 988.975 1264.8 988.351 1264.54C987.743 1264.27 987.215 1263.88 986.767 1263.37C986.335 1262.84 986.119 1262.15 986.119 1261.3C986.119 1260.63 986.319 1260.02 986.719 1259.46C987.119 1258.9 987.687 1258.46 988.423 1258.14C989.159 1257.8 989.999 1257.63 990.943 1257.63C992.399 1257.63 993.575 1258 994.471 1258.74C995.367 1259.47 995.847 1260.48 995.911 1261.76H993.727C993.679 1261.07 993.399 1260.52 992.887 1260.1C992.391 1259.69 991.719 1259.48 990.871 1259.48C990.087 1259.48 989.463 1259.65 988.999 1259.98C988.535 1260.32 988.303 1260.76 988.303 1261.3C988.303 1261.74 988.439 1262.1 988.711 1262.38C988.999 1262.66 989.351 1262.88 989.767 1263.06C990.199 1263.22 990.791 1263.4 991.543 1263.61C992.487 1263.86 993.255 1264.12 993.847 1264.38C994.439 1264.62 994.943 1264.98 995.359 1265.48C995.791 1265.98 996.015 1266.62 996.031 1267.42C996.031 1268.14 995.831 1268.79 995.431 1269.37C995.031 1269.94 994.463 1270.4 993.727 1270.74C993.007 1271.06 992.175 1271.22 991.231 1271.22ZM1011.11 1263.92C1011.11 1264.34 1011.09 1264.78 1011.04 1265.24H1000.53C1000.61 1266.54 1001.05 1267.55 1001.85 1268.29C1002.67 1269.01 1003.65 1269.37 1004.8 1269.37C1005.75 1269.37 1006.53 1269.15 1007.15 1268.72C1007.79 1268.27 1008.24 1267.68 1008.5 1266.94H1010.85C1010.5 1268.21 1009.79 1269.24 1008.74 1270.04C1007.68 1270.82 1006.37 1271.22 1004.8 1271.22C1003.55 1271.22 1002.43 1270.94 1001.44 1270.38C1000.47 1269.82 999.698 1269.02 999.138 1268C998.578 1266.96 998.298 1265.76 998.298 1264.4C998.298 1263.04 998.57 1261.85 999.114 1260.82C999.658 1259.8 1000.42 1259.02 1001.39 1258.47C1002.39 1257.91 1003.52 1257.63 1004.8 1257.63C1006.05 1257.63 1007.15 1257.9 1008.11 1258.45C1009.07 1258.99 1009.81 1259.74 1010.32 1260.7C1010.85 1261.65 1011.11 1262.72 1011.11 1263.92ZM1008.86 1263.46C1008.86 1262.63 1008.67 1261.92 1008.31 1261.33C1007.94 1260.72 1007.43 1260.26 1006.79 1259.96C1006.17 1259.64 1005.47 1259.48 1004.71 1259.48C1003.6 1259.48 1002.66 1259.83 1001.87 1260.54C1001.11 1261.24 1000.67 1262.22 1000.55 1263.46H1008.86ZM1019.73 1271.22C1018.5 1271.22 1017.38 1270.94 1016.37 1270.38C1015.38 1269.82 1014.6 1269.02 1014.02 1268C1013.46 1266.96 1013.18 1265.76 1013.18 1264.4C1013.18 1263.06 1013.47 1261.87 1014.04 1260.85C1014.64 1259.81 1015.44 1259.02 1016.44 1258.47C1017.45 1257.91 1018.58 1257.63 1019.83 1257.63C1021.08 1257.63 1022.2 1257.91 1023.21 1258.47C1024.22 1259.02 1025.01 1259.8 1025.59 1260.82C1026.18 1261.85 1026.48 1263.04 1026.48 1264.4C1026.48 1265.76 1026.17 1266.96 1025.56 1268C1024.97 1269.02 1024.16 1269.82 1023.14 1270.38C1022.12 1270.94 1020.98 1271.22 1019.73 1271.22ZM1019.73 1269.3C1020.52 1269.3 1021.25 1269.11 1021.94 1268.74C1022.63 1268.38 1023.18 1267.82 1023.6 1267.09C1024.03 1266.35 1024.24 1265.46 1024.24 1264.4C1024.24 1263.34 1024.04 1262.45 1023.62 1261.71C1023.2 1260.98 1022.66 1260.43 1021.99 1260.08C1021.32 1259.71 1020.59 1259.53 1019.8 1259.53C1019 1259.53 1018.27 1259.71 1017.6 1260.08C1016.94 1260.43 1016.41 1260.98 1016.01 1261.71C1015.61 1262.45 1015.41 1263.34 1015.41 1264.4C1015.41 1265.47 1015.6 1266.38 1015.99 1267.11C1016.39 1267.85 1016.92 1268.4 1017.57 1268.77C1018.23 1269.12 1018.95 1269.3 1019.73 1269.3ZM1048.42 1259.12C1047.95 1258.14 1047.28 1257.39 1046.4 1256.86C1045.52 1256.32 1044.5 1256.05 1043.33 1256.05C1042.16 1256.05 1041.11 1256.32 1040.16 1256.86C1039.23 1257.39 1038.5 1258.16 1037.95 1259.17C1037.43 1260.16 1037.16 1261.31 1037.16 1262.62C1037.16 1263.94 1037.43 1265.09 1037.95 1266.08C1038.5 1267.07 1039.23 1267.84 1040.16 1268.38C1041.11 1268.91 1042.16 1269.18 1043.33 1269.18C1044.96 1269.18 1046.31 1268.69 1047.36 1267.71C1048.42 1266.74 1049.03 1265.42 1049.21 1263.75H1042.54V1261.98H1051.54V1263.66C1051.41 1265.03 1050.98 1266.3 1050.24 1267.45C1049.51 1268.58 1048.54 1269.49 1047.34 1270.16C1046.14 1270.82 1044.8 1271.14 1043.33 1271.14C1041.78 1271.14 1040.36 1270.78 1039.08 1270.06C1037.8 1269.33 1036.79 1268.31 1036.03 1267.02C1035.3 1265.72 1034.93 1264.26 1034.93 1262.62C1034.93 1260.99 1035.3 1259.53 1036.03 1258.23C1036.79 1256.92 1037.8 1255.9 1039.08 1255.18C1040.36 1254.45 1041.78 1254.08 1043.33 1254.08C1045.11 1254.08 1046.67 1254.52 1048.03 1255.4C1049.41 1256.28 1050.41 1257.52 1051.03 1259.12H1048.42ZM1056.61 1259.98C1056.99 1259.23 1057.54 1258.65 1058.24 1258.23C1058.96 1257.82 1059.83 1257.61 1060.86 1257.61V1259.86H1060.28C1057.83 1259.86 1056.61 1261.19 1056.61 1263.85V1271H1054.43V1257.85H1056.61V1259.98ZM1062.56 1264.38C1062.56 1263.03 1062.84 1261.86 1063.38 1260.85C1063.92 1259.82 1064.67 1259.03 1065.61 1258.47C1066.57 1257.91 1067.64 1257.63 1068.8 1257.63C1069.96 1257.63 1070.96 1257.88 1071.8 1258.38C1072.65 1258.87 1073.28 1259.5 1073.7 1260.25V1257.85H1075.91V1271H1073.7V1268.55C1073.27 1269.32 1072.62 1269.96 1071.76 1270.47C1070.91 1270.97 1069.92 1271.22 1068.78 1271.22C1067.61 1271.22 1066.56 1270.93 1065.61 1270.35C1064.67 1269.78 1063.92 1268.97 1063.38 1267.93C1062.84 1266.89 1062.56 1265.7 1062.56 1264.38ZM1073.7 1264.4C1073.7 1263.41 1073.5 1262.54 1073.1 1261.81C1072.7 1261.07 1072.16 1260.51 1071.47 1260.13C1070.8 1259.73 1070.05 1259.53 1069.24 1259.53C1068.42 1259.53 1067.68 1259.72 1067 1260.1C1066.33 1260.49 1065.8 1261.05 1065.4 1261.78C1065 1262.52 1064.8 1263.38 1064.8 1264.38C1064.8 1265.38 1065 1266.26 1065.4 1267.02C1065.8 1267.75 1066.33 1268.32 1067 1268.72C1067.68 1269.1 1068.42 1269.3 1069.24 1269.3C1070.05 1269.3 1070.8 1269.1 1071.47 1268.72C1072.16 1268.32 1072.7 1267.75 1073.1 1267.02C1073.5 1266.26 1073.7 1265.39 1073.7 1264.4ZM1086.01 1257.61C1087.61 1257.61 1088.9 1258.1 1089.89 1259.07C1090.89 1260.03 1091.38 1261.42 1091.38 1263.25V1271H1089.22V1263.56C1089.22 1262.25 1088.89 1261.25 1088.24 1260.56C1087.58 1259.86 1086.69 1259.5 1085.55 1259.5C1084.4 1259.5 1083.48 1259.86 1082.79 1260.58C1082.12 1261.3 1081.78 1262.35 1081.78 1263.73V1271H1079.6V1257.85H1081.78V1259.72C1082.21 1259.05 1082.8 1258.53 1083.53 1258.16C1084.29 1257.79 1085.11 1257.61 1086.01 1257.61ZM1094.13 1264.38C1094.13 1263.03 1094.41 1261.86 1094.95 1260.85C1095.49 1259.82 1096.24 1259.03 1097.18 1258.47C1098.14 1257.91 1099.21 1257.63 1100.4 1257.63C1101.42 1257.63 1102.37 1257.87 1103.25 1258.35C1104.13 1258.82 1104.81 1259.43 1105.27 1260.2V1253.24H1107.48V1271H1105.27V1268.53C1104.84 1269.31 1104.2 1269.96 1103.35 1270.47C1102.5 1270.97 1101.51 1271.22 1100.37 1271.22C1099.21 1271.22 1098.14 1270.93 1097.18 1270.35C1096.24 1269.78 1095.49 1268.97 1094.95 1267.93C1094.41 1266.89 1094.13 1265.7 1094.13 1264.38ZM1105.27 1264.4C1105.27 1263.41 1105.07 1262.54 1104.67 1261.81C1104.27 1261.07 1103.73 1260.51 1103.04 1260.13C1102.37 1259.73 1101.62 1259.53 1100.81 1259.53C1099.99 1259.53 1099.25 1259.72 1098.57 1260.1C1097.9 1260.49 1097.37 1261.05 1096.97 1261.78C1096.57 1262.52 1096.37 1263.38 1096.37 1264.38C1096.37 1265.38 1096.57 1266.26 1096.97 1267.02C1097.37 1267.75 1097.9 1268.32 1098.57 1268.72C1099.25 1269.1 1099.99 1269.3 1100.81 1269.3C1101.62 1269.3 1102.37 1269.1 1103.04 1268.72C1103.73 1268.32 1104.27 1267.75 1104.67 1267.02C1105.07 1266.26 1105.27 1265.39 1105.27 1264.4ZM1123.17 1263.92C1123.17 1264.34 1123.14 1264.78 1123.1 1265.24H1112.58C1112.66 1266.54 1113.1 1267.55 1113.9 1268.29C1114.72 1269.01 1115.7 1269.37 1116.86 1269.37C1117.8 1269.37 1118.58 1269.15 1119.21 1268.72C1119.85 1268.27 1120.3 1267.68 1120.55 1266.94H1122.9C1122.55 1268.21 1121.85 1269.24 1120.79 1270.04C1119.74 1270.82 1118.42 1271.22 1116.86 1271.22C1115.61 1271.22 1114.49 1270.94 1113.5 1270.38C1112.52 1269.82 1111.75 1269.02 1111.19 1268C1110.63 1266.96 1110.35 1265.76 1110.35 1264.4C1110.35 1263.04 1110.62 1261.85 1111.17 1260.82C1111.71 1259.8 1112.47 1259.02 1113.45 1258.47C1114.44 1257.91 1115.58 1257.63 1116.86 1257.63C1118.1 1257.63 1119.21 1257.9 1120.17 1258.45C1121.13 1258.99 1121.86 1259.74 1122.38 1260.7C1122.9 1261.65 1123.17 1262.72 1123.17 1263.92ZM1120.91 1263.46C1120.91 1262.63 1120.73 1261.92 1120.36 1261.33C1119.99 1260.72 1119.49 1260.26 1118.85 1259.96C1118.22 1259.64 1117.53 1259.48 1116.76 1259.48C1115.66 1259.48 1114.71 1259.83 1113.93 1260.54C1113.16 1261.24 1112.72 1262.22 1112.61 1263.46H1120.91Z" fill="#2E2E2E"/>
</g>
<g filter="url(#filter5_d_116_2)">
<rect x="299" y="503" width="265" height="72" rx="8" fill="white" shape-rendering="crispEdges"/>
<path opacity="0.15" d="M334.5 523L348 554.821L334.5 549.206L321 554.821L334.5 523Z" fill="#F817E1"/>
<path d="M348 554.821L334.5 523L321 554.821L334.5 549.206L348 554.821Z" stroke="#EA3898" stroke-width="1.5" stroke-linecap="round" stroke-linejoin="round"/>
<path d="M375.032 545.224H380.888V547H372.848V530.272H375.032V545.224ZM382.391 540.376C382.391 539.032 382.663 537.856 383.207 536.848C383.751 535.824 384.495 535.032 385.439 534.472C386.399 533.912 387.463 533.632 388.631 533.632C389.783 533.632 390.783 533.88 391.631 534.376C392.479 534.872 393.111 535.496 393.527 536.248V533.848H395.735V547H393.527V544.552C393.095 545.32 392.447 545.96 391.583 546.472C390.735 546.968 389.743 547.216 388.607 547.216C387.439 547.216 386.383 546.928 385.439 546.352C384.495 545.776 383.751 544.968 383.207 543.928C382.663 542.888 382.391 541.704 382.391 540.376ZM393.527 540.4C393.527 539.408 393.327 538.544 392.927 537.808C392.527 537.072 391.983 536.512 391.295 536.128C390.623 535.728 389.879 535.528 389.063 535.528C388.247 535.528 387.503 535.72 386.831 536.104C386.159 536.488 385.623 537.048 385.223 537.784C384.823 538.52 384.623 539.384 384.623 540.376C384.623 541.384 384.823 542.264 385.223 543.016C385.623 543.752 386.159 544.32 386.831 544.72C387.503 545.104 388.247 545.296 389.063 545.296C389.879 545.296 390.623 545.104 391.295 544.72C391.983 544.32 392.527 543.752 392.927 543.016C393.327 542.264 393.527 541.392 393.527 540.4ZM414.249 530.272V542.632C414.249 544.008 413.825 545.112 412.977 545.944C412.129 546.76 411.009 547.168 409.617 547.168C408.209 547.168 407.081 546.752 406.233 545.92C405.385 545.072 404.961 543.92 404.961 542.464H407.145C407.161 543.28 407.369 543.944 407.769 544.456C408.185 544.968 408.801 545.224 409.617 545.224C410.433 545.224 411.041 544.984 411.441 544.504C411.841 544.008 412.041 543.384 412.041 542.632V530.272H414.249ZM424.287 547.216C423.055 547.216 421.935 546.936 420.927 546.376C419.935 545.816 419.151 545.024 418.575 544C418.015 542.96 417.735 541.76 417.735 540.4C417.735 539.056 418.023 537.872 418.599 536.848C419.191 535.808 419.991 535.016 420.999 534.472C422.007 533.912 423.135 533.632 424.383 533.632C425.631 533.632 426.759 533.912 427.767 534.472C428.775 535.016 429.567 535.8 430.143 536.824C430.735 537.848 431.031 539.04 431.031 540.4C431.031 541.76 430.727 542.96 430.119 544C429.527 545.024 428.719 545.816 427.695 546.376C426.671 546.936 425.535 547.216 424.287 547.216ZM424.287 545.296C425.071 545.296 425.807 545.112 426.495 544.744C427.183 544.376 427.735 543.824 428.151 543.088C428.583 542.352 428.799 541.456 428.799 540.4C428.799 539.344 428.591 538.448 428.175 537.712C427.759 536.976 427.215 536.432 426.543 536.08C425.871 535.712 425.143 535.528 424.359 535.528C423.559 535.528 422.823 535.712 422.151 536.08C421.495 536.432 420.967 536.976 420.567 537.712C420.167 538.448 419.967 539.344 419.967 540.4C419.967 541.472 420.159 542.376 420.543 543.112C420.943 543.848 421.471 544.4 422.127 544.768C422.783 545.12 423.503 545.296 424.287 545.296ZM436.087 529.24V547H433.903V529.24H436.087ZM441.993 529.24V547H439.809V529.24H441.993ZM444.899 540.376C444.899 539.032 445.171 537.856 445.715 536.848C446.259 535.824 447.003 535.032 447.947 534.472C448.907 533.912 449.971 533.632 451.139 533.632C452.291 533.632 453.291 533.88 454.139 534.376C454.987 534.872 455.619 535.496 456.035 536.248V533.848H458.243V547H456.035V544.552C455.603 545.32 454.955 545.96 454.091 546.472C453.243 546.968 452.251 547.216 451.115 547.216C449.947 547.216 448.891 546.928 447.947 546.352C447.003 545.776 446.259 544.968 445.715 543.928C445.171 542.888 444.899 541.704 444.899 540.376ZM456.035 540.4C456.035 539.408 455.835 538.544 455.435 537.808C455.035 537.072 454.491 536.512 453.803 536.128C453.131 535.728 452.387 535.528 451.571 535.528C450.755 535.528 450.011 535.72 449.339 536.104C448.667 536.488 448.131 537.048 447.731 537.784C447.331 538.52 447.131 539.384 447.131 540.376C447.131 541.384 447.331 542.264 447.731 543.016C448.131 543.752 448.667 544.32 449.339 544.72C450.011 545.104 450.755 545.296 451.571 545.296C452.387 545.296 453.131 545.104 453.803 544.72C454.491 544.32 455.035 543.752 455.435 543.016C455.835 542.264 456.035 541.392 456.035 540.4ZM482.156 530.272L475.844 547H473.324L467.012 530.272H469.34L474.596 544.696L479.852 530.272H482.156ZM485.679 531.712C485.263 531.712 484.911 531.568 484.623 531.28C484.335 530.992 484.191 530.64 484.191 530.224C484.191 529.808 484.335 529.456 484.623 529.168C484.911 528.88 485.263 528.736 485.679 528.736C486.079 528.736 486.415 528.88 486.687 529.168C486.975 529.456 487.119 529.808 487.119 530.224C487.119 530.64 486.975 530.992 486.687 531.28C486.415 531.568 486.079 531.712 485.679 531.712ZM486.735 533.848V547H484.551V533.848H486.735ZM492.641 529.24V547H490.457V529.24H492.641ZM498.548 529.24V547H496.364V529.24H498.548ZM501.454 540.376C501.454 539.032 501.726 537.856 502.27 536.848C502.814 535.824 503.558 535.032 504.502 534.472C505.462 533.912 506.526 533.632 507.694 533.632C508.846 533.632 509.846 533.88 510.694 534.376C511.542 534.872 512.174 535.496 512.59 536.248V533.848H514.798V547H512.59V544.552C512.158 545.32 511.51 545.96 510.646 546.472C509.798 546.968 508.806 547.216 507.67 547.216C506.502 547.216 505.446 546.928 504.502 546.352C503.558 545.776 502.814 544.968 502.27 543.928C501.726 542.888 501.454 541.704 501.454 540.376ZM512.59 540.4C512.59 539.408 512.39 538.544 511.99 537.808C511.59 537.072 511.046 536.512 510.358 536.128C509.686 535.728 508.942 535.528 508.126 535.528C507.31 535.528 506.566 535.72 505.894 536.104C505.222 536.488 504.686 537.048 504.286 537.784C503.886 538.52 503.686 539.384 503.686 540.376C503.686 541.384 503.886 542.264 504.286 543.016C504.686 543.752 505.222 544.32 505.894 544.72C506.566 545.104 507.31 545.296 508.126 545.296C508.942 545.296 509.686 545.104 510.358 544.72C511.046 544.32 511.59 543.752 511.99 543.016C512.39 542.264 512.59 541.392 512.59 540.4ZM523.913 533.632C525.049 533.632 526.041 533.88 526.889 534.376C527.753 534.872 528.393 535.496 528.809 536.248V533.848H531.017V547.288C531.017 548.488 530.761 549.552 530.249 550.48C529.737 551.424 529.001 552.16 528.041 552.688C527.097 553.216 525.993 553.48 524.729 553.48C523.001 553.48 521.561 553.072 520.409 552.256C519.257 551.44 518.577 550.328 518.369 548.92H520.529C520.769 549.72 521.265 550.36 522.017 550.84C522.769 551.336 523.673 551.584 524.729 551.584C525.929 551.584 526.905 551.208 527.657 550.456C528.425 549.704 528.809 548.648 528.809 547.288V544.528C528.377 545.296 527.737 545.936 526.889 546.448C526.041 546.96 525.049 547.216 523.913 547.216C522.745 547.216 521.681 546.928 520.721 546.352C519.777 545.776 519.033 544.968 518.489 543.928C517.945 542.888 517.673 541.704 517.673 540.376C517.673 539.032 517.945 537.856 518.489 536.848C519.033 535.824 519.777 535.032 520.721 534.472C521.681 533.912 522.745 533.632 523.913 533.632ZM528.809 540.4C528.809 539.408 528.609 538.544 528.209 537.808C527.809 537.072 527.265 536.512 526.577 536.128C525.905 535.728 525.161 535.528 524.345 535.528C523.529 535.528 522.785 535.72 522.113 536.104C521.441 536.488 520.905 537.048 520.505 537.784C520.105 538.52 519.905 539.384 519.905 540.376C519.905 541.384 520.105 542.264 520.505 543.016C520.905 543.752 521.441 544.32 522.113 544.72C522.785 545.104 523.529 545.296 524.345 545.296C525.161 545.296 525.905 545.104 526.577 544.72C527.265 544.32 527.809 543.752 528.209 543.016C528.609 542.264 528.809 541.392 528.809 540.4ZM546.707 539.92C546.707 540.336 546.683 540.776 546.635 541.24H536.123C536.203 542.536 536.643 543.552 537.443 544.288C538.259 545.008 539.243 545.368 540.395 545.368C541.339 545.368 542.123 545.152 542.747 544.72C543.387 544.272 543.835 543.68 544.091 542.944H546.443C546.091 544.208 545.387 545.24 544.331 546.04C543.275 546.824 541.963 547.216 540.395 547.216C539.147 547.216 538.027 546.936 537.035 546.376C536.059 545.816 535.291 545.024 534.731 544C534.171 542.96 533.891 541.76 533.891 540.4C533.891 539.04 534.163 537.848 534.707 536.824C535.251 535.8 536.011 535.016 536.987 534.472C537.979 533.912 539.115 533.632 540.395 533.632C541.643 533.632 542.747 533.904 543.707 534.448C544.667 534.992 545.403 535.744 545.915 536.704C546.443 537.648 546.707 538.72 546.707 539.92ZM544.451 539.464C544.451 538.632 544.267 537.92 543.899 537.328C543.531 536.72 543.027 536.264 542.387 535.96C541.763 535.64 541.067 535.48 540.299 535.48C539.195 535.48 538.251 535.832 537.467 536.536C536.699 537.24 536.259 538.216 536.147 539.464H544.451Z" fill="#2E2E2E"/>
</g>
<g filter="url(#filter6_d_116_2)">
<rect x="196" y="1135" width="205" height="72" rx="8" fill="white" shape-rendering="crispEdges"/>
<path opacity="0.15" d="M231.5 1155L245 1186.82L231.5 1181.21L218 1186.82L231.5 1155Z" fill="#F817E1"/>
<path d="M245 1186.82L231.5 1155L218 1186.82L231.5 1181.21L245 1186.82Z" stroke="#EA3898" stroke-width="1.5" stroke-linecap="round" stroke-linejoin="round"/>
<path d="M283.672 1162.27L277.36 1179H274.84L268.528 1162.27H270.856L276.112 1176.7L281.368 1162.27H283.672ZM285.251 1172.38C285.251 1171.03 285.523 1169.86 286.067 1168.85C286.611 1167.82 287.355 1167.03 288.299 1166.47C289.259 1165.91 290.323 1165.63 291.491 1165.63C292.643 1165.63 293.643 1165.88 294.491 1166.38C295.339 1166.87 295.971 1167.5 296.387 1168.25V1165.85H298.595V1179H296.387V1176.55C295.955 1177.32 295.307 1177.96 294.443 1178.47C293.595 1178.97 292.603 1179.22 291.467 1179.22C290.299 1179.22 289.243 1178.93 288.299 1178.35C287.355 1177.78 286.611 1176.97 286.067 1175.93C285.523 1174.89 285.251 1173.7 285.251 1172.38ZM296.387 1172.4C296.387 1171.41 296.187 1170.54 295.787 1169.81C295.387 1169.07 294.843 1168.51 294.155 1168.13C293.483 1167.73 292.739 1167.53 291.923 1167.53C291.107 1167.53 290.363 1167.72 289.691 1168.1C289.019 1168.49 288.483 1169.05 288.083 1169.78C287.683 1170.52 287.483 1171.38 287.483 1172.38C287.483 1173.38 287.683 1174.26 288.083 1175.02C288.483 1175.75 289.019 1176.32 289.691 1176.72C290.363 1177.1 291.107 1177.3 291.923 1177.3C292.739 1177.3 293.483 1177.1 294.155 1176.72C294.843 1176.32 295.387 1175.75 295.787 1175.02C296.187 1174.26 296.387 1173.39 296.387 1172.4ZM304.47 1161.24V1179H302.286V1161.24H304.47ZM310.376 1161.24V1179H308.192V1161.24H310.376ZM326.098 1171.92C326.098 1172.34 326.074 1172.78 326.026 1173.24H315.514C315.594 1174.54 316.034 1175.55 316.834 1176.29C317.65 1177.01 318.634 1177.37 319.786 1177.37C320.73 1177.37 321.514 1177.15 322.138 1176.72C322.778 1176.27 323.226 1175.68 323.482 1174.94H325.834C325.482 1176.21 324.778 1177.24 323.722 1178.04C322.666 1178.82 321.354 1179.22 319.786 1179.22C318.538 1179.22 317.418 1178.94 316.426 1178.38C315.45 1177.82 314.682 1177.02 314.122 1176C313.562 1174.96 313.282 1173.76 313.282 1172.4C313.282 1171.04 313.554 1169.85 314.098 1168.82C314.642 1167.8 315.402 1167.02 316.378 1166.47C317.37 1165.91 318.506 1165.63 319.786 1165.63C321.034 1165.63 322.138 1165.9 323.098 1166.45C324.058 1166.99 324.794 1167.74 325.306 1168.7C325.834 1169.65 326.098 1170.72 326.098 1171.92ZM323.842 1171.46C323.842 1170.63 323.658 1169.92 323.29 1169.33C322.922 1168.72 322.418 1168.26 321.778 1167.96C321.154 1167.64 320.458 1167.48 319.69 1167.48C318.586 1167.48 317.642 1167.83 316.858 1168.54C316.09 1169.24 315.65 1170.22 315.538 1171.46H323.842ZM328.165 1172.4C328.165 1171.04 328.437 1169.86 328.981 1168.85C329.525 1167.82 330.277 1167.03 331.237 1166.47C332.213 1165.91 333.325 1165.63 334.573 1165.63C336.189 1165.63 337.517 1166.02 338.557 1166.81C339.613 1167.59 340.309 1168.68 340.645 1170.07H338.293C338.069 1169.27 337.629 1168.64 336.973 1168.18C336.333 1167.71 335.533 1167.48 334.573 1167.48C333.325 1167.48 332.317 1167.91 331.549 1168.78C330.781 1169.62 330.397 1170.83 330.397 1172.4C330.397 1173.98 330.781 1175.21 331.549 1176.07C332.317 1176.94 333.325 1177.37 334.573 1177.37C335.533 1177.37 336.333 1177.14 336.973 1176.7C337.613 1176.25 338.053 1175.61 338.293 1174.78H340.645C340.293 1176.12 339.589 1177.2 338.533 1178.02C337.477 1178.82 336.157 1179.22 334.573 1179.22C333.325 1179.22 332.213 1178.94 331.237 1178.38C330.277 1177.82 329.525 1177.02 328.981 1176C328.437 1174.98 328.165 1173.78 328.165 1172.4ZM344.687 1163.71C344.271 1163.71 343.919 1163.57 343.631 1163.28C343.343 1162.99 343.199 1162.64 343.199 1162.22C343.199 1161.81 343.343 1161.46 343.631 1161.17C343.919 1160.88 344.271 1160.74 344.687 1160.74C345.087 1160.74 345.423 1160.88 345.695 1161.17C345.983 1161.46 346.127 1161.81 346.127 1162.22C346.127 1162.64 345.983 1162.99 345.695 1163.28C345.423 1163.57 345.087 1163.71 344.687 1163.71ZM345.743 1165.85V1179H343.559V1165.85H345.743ZM352.129 1167.65V1175.4C352.129 1176.04 352.265 1176.5 352.537 1176.77C352.809 1177.02 353.281 1177.15 353.953 1177.15H355.561V1179H353.593C352.377 1179 351.465 1178.72 350.857 1178.16C350.249 1177.6 349.945 1176.68 349.945 1175.4V1167.65H348.241V1165.85H349.945V1162.54H352.129V1165.85H355.561V1167.65H352.129ZM363.943 1179.22C362.711 1179.22 361.591 1178.94 360.583 1178.38C359.591 1177.82 358.807 1177.02 358.231 1176C357.671 1174.96 357.391 1173.76 357.391 1172.4C357.391 1171.06 357.679 1169.87 358.255 1168.85C358.847 1167.81 359.647 1167.02 360.655 1166.47C361.663 1165.91 362.791 1165.63 364.039 1165.63C365.287 1165.63 366.415 1165.91 367.423 1166.47C368.431 1167.02 369.223 1167.8 369.799 1168.82C370.391 1169.85 370.687 1171.04 370.687 1172.4C370.687 1173.76 370.383 1174.96 369.775 1176C369.183 1177.02 368.375 1177.82 367.351 1178.38C366.327 1178.94 365.191 1179.22 363.943 1179.22ZM363.943 1177.3C364.727 1177.3 365.463 1177.11 366.151 1176.74C366.839 1176.38 367.391 1175.82 367.807 1175.09C368.239 1174.35 368.455 1173.46 368.455 1172.4C368.455 1171.34 368.247 1170.45 367.831 1169.71C367.415 1168.98 366.871 1168.43 366.199 1168.08C365.527 1167.71 364.799 1167.53 364.015 1167.53C363.215 1167.53 362.479 1167.71 361.807 1168.08C361.151 1168.43 360.623 1168.98 360.223 1169.71C359.823 1170.45 359.623 1171.34 359.623 1172.4C359.623 1173.47 359.815 1174.38 360.199 1175.11C360.599 1175.85 361.127 1176.4 361.783 1176.77C362.439 1177.12 363.159 1177.3 363.943 1177.3ZM378.215 1179.22C377.207 1179.22 376.303 1179.05 375.503 1178.71C374.703 1178.36 374.071 1177.88 373.607 1177.27C373.143 1176.65 372.887 1175.94 372.839 1175.14H375.095C375.159 1175.79 375.463 1176.33 376.007 1176.74C376.567 1177.16 377.295 1177.37 378.191 1177.37C379.023 1177.37 379.679 1177.18 380.159 1176.82C380.639 1176.45 380.879 1175.98 380.879 1175.42C380.879 1174.85 380.623 1174.42 380.111 1174.15C379.599 1173.86 378.807 1173.58 377.735 1173.31C376.759 1173.06 375.959 1172.8 375.335 1172.54C374.727 1172.27 374.199 1171.88 373.751 1171.37C373.319 1170.84 373.103 1170.15 373.103 1169.3C373.103 1168.63 373.303 1168.02 373.703 1167.46C374.103 1166.9 374.671 1166.46 375.407 1166.14C376.143 1165.8 376.983 1165.63 377.927 1165.63C379.383 1165.63 380.559 1166 381.455 1166.74C382.351 1167.47 382.831 1168.48 382.895 1169.76H380.711C380.663 1169.07 380.383 1168.52 379.871 1168.1C379.375 1167.69 378.703 1167.48 377.855 1167.48C377.071 1167.48 376.447 1167.65 375.983 1167.98C375.519 1168.32 375.287 1168.76 375.287 1169.3C375.287 1169.74 375.423 1170.1 375.695 1170.38C375.983 1170.66 376.335 1170.88 376.751 1171.06C377.183 1171.22 377.775 1171.4 378.527 1171.61C379.471 1171.86 380.239 1172.12 380.831 1172.38C381.423 1172.62 381.927 1172.98 382.343 1173.48C382.775 1173.98 382.999 1174.62 383.015 1175.42C383.015 1176.14 382.815 1176.79 382.415 1177.37C382.015 1177.94 381.447 1178.4 380.711 1178.74C379.991 1179.06 379.159 1179.22 378.215 1179.22Z" fill="#2E2E2E"/>
</g>
<g filter="url(#filter7_d_116_2)">
<rect x="786" y="381" width="278" height="72" rx="8" fill="white" shape-rendering="crispEdges"/>
<path opacity="0.15" d="M821.5 401L835 432.821L821.5 427.206L808 432.821L821.5 401Z" fill="#F817E1"/>
<path d="M835 432.821L821.5 401L808 432.821L821.5 427.206L835 432.821Z" stroke="#EA3898" stroke-width="1.5" stroke-linecap="round" stroke-linejoin="round"/>
<path d="M859.032 416.624C859.032 414.992 859.4 413.528 860.136 412.232C860.872 410.92 861.872 409.896 863.136 409.16C864.416 408.424 865.832 408.056 867.384 408.056C869.208 408.056 870.8 408.496 872.16 409.376C873.52 410.256 874.512 411.504 875.136 413.12H872.52C872.056 412.112 871.384 411.336 870.504 410.792C869.64 410.248 868.6 409.976 867.384 409.976C866.216 409.976 865.168 410.248 864.24 410.792C863.312 411.336 862.584 412.112 862.056 413.12C861.528 414.112 861.264 415.28 861.264 416.624C861.264 417.952 861.528 419.12 862.056 420.128C862.584 421.12 863.312 421.888 864.24 422.432C865.168 422.976 866.216 423.248 867.384 423.248C868.6 423.248 869.64 422.984 870.504 422.456C871.384 421.912 872.056 421.136 872.52 420.128H875.136C874.512 421.728 873.52 422.968 872.16 423.848C870.8 424.712 869.208 425.144 867.384 425.144C865.832 425.144 864.416 424.784 863.136 424.064C861.872 423.328 860.872 422.312 860.136 421.016C859.4 419.72 859.032 418.256 859.032 416.624ZM877.571 418.376C877.571 417.032 877.843 415.856 878.387 414.848C878.931 413.824 879.675 413.032 880.619 412.472C881.579 411.912 882.643 411.632 883.811 411.632C884.963 411.632 885.963 411.88 886.811 412.376C887.659 412.872 888.291 413.496 888.707 414.248V411.848H890.915V425H888.707V422.552C888.275 423.32 887.627 423.96 886.763 424.472C885.915 424.968 884.923 425.216 883.787 425.216C882.619 425.216 881.563 424.928 880.619 424.352C879.675 423.776 878.931 422.968 878.387 421.928C877.843 420.888 877.571 419.704 877.571 418.376ZM888.707 418.4C888.707 417.408 888.507 416.544 888.107 415.808C887.707 415.072 887.163 414.512 886.475 414.128C885.803 413.728 885.059 413.528 884.243 413.528C883.427 413.528 882.683 413.72 882.011 414.104C881.339 414.488 880.803 415.048 880.403 415.784C880.003 416.52 879.803 417.384 879.803 418.376C879.803 419.384 880.003 420.264 880.403 421.016C880.803 421.752 881.339 422.32 882.011 422.72C882.683 423.104 883.427 423.296 884.243 423.296C885.059 423.296 885.803 423.104 886.475 422.72C887.163 422.32 887.707 421.752 888.107 421.016C888.507 420.264 888.707 419.392 888.707 418.4ZM910.422 411.608C911.446 411.608 912.358 411.824 913.158 412.256C913.958 412.672 914.59 413.304 915.054 414.152C915.518 415 915.75 416.032 915.75 417.248V425H913.59V417.56C913.59 416.248 913.262 415.248 912.606 414.56C911.966 413.856 911.094 413.504 909.99 413.504C908.854 413.504 907.95 413.872 907.278 414.608C906.606 415.328 906.27 416.376 906.27 417.752V425H904.11V417.56C904.11 416.248 903.782 415.248 903.126 414.56C902.486 413.856 901.614 413.504 900.51 413.504C899.374 413.504 898.47 413.872 897.798 414.608C897.126 415.328 896.79 416.376 896.79 417.752V425H894.606V411.848H896.79V413.744C897.222 413.056 897.798 412.528 898.518 412.16C899.254 411.792 900.062 411.608 900.942 411.608C902.046 411.608 903.022 411.856 903.87 412.352C904.718 412.848 905.35 413.576 905.766 414.536C906.134 413.608 906.742 412.888 907.59 412.376C908.438 411.864 909.382 411.608 910.422 411.608ZM920.46 409.712C920.044 409.712 919.692 409.568 919.404 409.28C919.116 408.992 918.972 408.64 918.972 408.224C918.972 407.808 919.116 407.456 919.404 407.168C919.692 406.88 920.044 406.736 920.46 406.736C920.86 406.736 921.196 406.88 921.468 407.168C921.756 407.456 921.9 407.808 921.9 408.224C921.9 408.64 921.756 408.992 921.468 409.28C921.196 409.568 920.86 409.712 920.46 409.712ZM921.516 411.848V425H919.332V411.848H921.516ZM931.647 411.608C933.247 411.608 934.543 412.096 935.535 413.072C936.527 414.032 937.023 415.424 937.023 417.248V425H934.863V417.56C934.863 416.248 934.535 415.248 933.879 414.56C933.223 413.856 932.327 413.504 931.191 413.504C930.039 413.504 929.119 413.864 928.431 414.584C927.759 415.304 927.423 416.352 927.423 417.728V425H925.239V411.848H927.423V413.72C927.855 413.048 928.439 412.528 929.175 412.16C929.927 411.792 930.751 411.608 931.647 411.608ZM946.326 425.216C945.094 425.216 943.974 424.936 942.966 424.376C941.974 423.816 941.19 423.024 940.614 422C940.054 420.96 939.774 419.76 939.774 418.4C939.774 417.056 940.062 415.872 940.638 414.848C941.23 413.808 942.03 413.016 943.038 412.472C944.046 411.912 945.174 411.632 946.422 411.632C947.67 411.632 948.798 411.912 949.806 412.472C950.814 413.016 951.606 413.8 952.182 414.824C952.774 415.848 953.07 417.04 953.07 418.4C953.07 419.76 952.766 420.96 952.158 422C951.566 423.024 950.758 423.816 949.734 424.376C948.71 424.936 947.574 425.216 946.326 425.216ZM946.326 423.296C947.11 423.296 947.846 423.112 948.534 422.744C949.222 422.376 949.774 421.824 950.19 421.088C950.622 420.352 950.838 419.456 950.838 418.4C950.838 417.344 950.63 416.448 950.214 415.712C949.798 414.976 949.254 414.432 948.582 414.08C947.91 413.712 947.182 413.528 946.398 413.528C945.598 413.528 944.862 413.712 944.19 414.08C943.534 414.432 943.006 414.976 942.606 415.712C942.206 416.448 942.006 417.344 942.006 418.4C942.006 419.472 942.198 420.376 942.582 421.112C942.982 421.848 943.51 422.4 944.166 422.768C944.822 423.12 945.542 423.296 946.326 423.296ZM967.548 408.272C969.372 408.272 970.948 408.616 972.276 409.304C973.62 409.976 974.644 410.944 975.348 412.208C976.068 413.472 976.428 414.96 976.428 416.672C976.428 418.384 976.068 419.872 975.348 421.136C974.644 422.384 973.62 423.344 972.276 424.016C970.948 424.672 969.372 425 967.548 425H962.34V408.272H967.548ZM967.548 423.2C969.708 423.2 971.356 422.632 972.492 421.496C973.628 420.344 974.196 418.736 974.196 416.672C974.196 414.592 973.62 412.968 972.468 411.8C971.332 410.632 969.692 410.048 967.548 410.048H964.524V423.2H967.548ZM991.309 417.92C991.309 418.336 991.285 418.776 991.237 419.24H980.725C980.805 420.536 981.245 421.552 982.045 422.288C982.861 423.008 983.845 423.368 984.997 423.368C985.941 423.368 986.725 423.152 987.349 422.72C987.989 422.272 988.437 421.68 988.693 420.944H991.045C990.693 422.208 989.989 423.24 988.933 424.04C987.877 424.824 986.565 425.216 984.997 425.216C983.749 425.216 982.629 424.936 981.637 424.376C980.661 423.816 979.893 423.024 979.333 422C978.773 420.96 978.493 419.76 978.493 418.4C978.493 417.04 978.765 415.848 979.309 414.824C979.853 413.8 980.613 413.016 981.589 412.472C982.581 411.912 983.717 411.632 984.997 411.632C986.245 411.632 987.349 411.904 988.309 412.448C989.269 412.992 990.005 413.744 990.517 414.704C991.045 415.648 991.309 416.72 991.309 417.92ZM989.053 417.464C989.053 416.632 988.869 415.92 988.501 415.328C988.133 414.72 987.629 414.264 986.989 413.96C986.365 413.64 985.669 413.48 984.901 413.48C983.797 413.48 982.853 413.832 982.069 414.536C981.301 415.24 980.861 416.216 980.749 417.464H989.053ZM996.376 407.24V425H994.192V407.24H996.376ZM1014.08 425.168C1012.53 425.168 1011.11 424.808 1009.83 424.088C1008.55 423.352 1007.54 422.336 1006.78 421.04C1006.05 419.728 1005.68 418.256 1005.68 416.624C1005.68 414.992 1006.05 413.528 1006.78 412.232C1007.54 410.92 1008.55 409.904 1009.83 409.184C1011.11 408.448 1012.53 408.08 1014.08 408.08C1015.65 408.08 1017.07 408.448 1018.35 409.184C1019.63 409.904 1020.64 410.912 1021.38 412.208C1022.11 413.504 1022.48 414.976 1022.48 416.624C1022.48 418.272 1022.11 419.744 1021.38 421.04C1020.64 422.336 1019.63 423.352 1018.35 424.088C1017.07 424.808 1015.65 425.168 1014.08 425.168ZM1014.08 423.272C1015.25 423.272 1016.3 423 1017.22 422.456C1018.17 421.912 1018.9 421.136 1019.43 420.128C1019.98 419.12 1020.25 417.952 1020.25 416.624C1020.25 415.28 1019.98 414.112 1019.43 413.12C1018.9 412.112 1018.18 411.336 1017.25 410.792C1016.32 410.248 1015.26 409.976 1014.08 409.976C1012.9 409.976 1011.84 410.248 1010.91 410.792C1009.98 411.336 1009.25 412.112 1008.7 413.12C1008.18 414.112 1007.91 415.28 1007.91 416.624C1007.91 417.952 1008.18 419.12 1008.7 420.128C1009.25 421.136 1009.98 421.912 1010.91 422.456C1011.86 423 1012.91 423.272 1014.08 423.272ZM1027.55 413.984C1027.93 413.232 1028.48 412.648 1029.18 412.232C1029.9 411.816 1030.77 411.608 1031.8 411.608V413.864H1031.22C1028.77 413.864 1027.55 415.192 1027.55 417.848V425H1025.36V411.848H1027.55V413.984ZM1040.05 425.216C1038.82 425.216 1037.7 424.936 1036.69 424.376C1035.7 423.816 1034.92 423.024 1034.34 422C1033.78 420.96 1033.5 419.76 1033.5 418.4C1033.5 417.056 1033.79 415.872 1034.36 414.848C1034.96 413.808 1035.76 413.016 1036.76 412.472C1037.77 411.912 1038.9 411.632 1040.15 411.632C1041.4 411.632 1042.52 411.912 1043.53 412.472C1044.54 413.016 1045.33 413.8 1045.91 414.824C1046.5 415.848 1046.8 417.04 1046.8 418.4C1046.8 419.76 1046.49 420.96 1045.88 422C1045.29 423.024 1044.48 423.816 1043.46 424.376C1042.44 424.936 1041.3 425.216 1040.05 425.216ZM1040.05 423.296C1040.84 423.296 1041.57 423.112 1042.26 422.744C1042.95 422.376 1043.5 421.824 1043.92 421.088C1044.35 420.352 1044.56 419.456 1044.56 418.4C1044.56 417.344 1044.36 416.448 1043.94 415.712C1043.52 414.976 1042.98 414.432 1042.31 414.08C1041.64 413.712 1040.91 413.528 1040.12 413.528C1039.32 413.528 1038.59 413.712 1037.92 414.08C1037.26 414.432 1036.73 414.976 1036.33 415.712C1035.93 416.448 1035.73 417.344 1035.73 418.4C1035.73 419.472 1035.92 420.376 1036.31 421.112C1036.71 421.848 1037.24 422.4 1037.89 422.768C1038.55 423.12 1039.27 423.296 1040.05 423.296Z" fill="#2E2E2E"/>
</g>
<defs>
<filter id="filter0_d_116_2" x="844" y="824" width="410" height="199" filterUnits="userSpaceOnUse" color-interpolation-filters="sRGB">
<feFlood flood-opacity="0" result="BackgroundImageFix"/>
<feColorMatrix in="SourceAlpha" type="matrix" values="0 0 0 0 0 0 0 0 0 0 0 0 0 0 0 0 0 0 127 0" result="hardAlpha"/>
<feOffset dy="24"/>
<feGaussianBlur stdDeviation="25"/>
<feComposite in2="hardAlpha" operator="out"/>
<feColorMatrix type="matrix" values="0 0 0 0 0 0 0 0 0 0 0 0 0 0 0 0 0 0 0.1 0"/>
<feBlend mode="normal" in2="BackgroundImageFix" result="effect1_dropShadow_116_2"/>
<feBlend mode="normal" in="SourceGraphic" in2="effect1_dropShadow_116_2" result="shape"/>
</filter>
<filter id="filter1_d_116_2" x="86" y="303" width="232" height="172" filterUnits="userSpaceOnUse" color-interpolation-filters="sRGB">
<feFlood flood-opacity="0" result="BackgroundImageFix"/>
<feColorMatrix in="SourceAlpha" type="matrix" values="0 0 0 0 0 0 0 0 0 0 0 0 0 0 0 0 0 0 127 0" result="hardAlpha"/>
<feOffset dy="24"/>
<feGaussianBlur stdDeviation="25"/>
<feComposite in2="hardAlpha" operator="out"/>
<feColorMatrix type="matrix" values="0 0 0 0 0 0 0 0 0 0 0 0 0 0 0 0 0 0 0.1 0"/>
<feBlend mode="normal" in2="BackgroundImageFix" result="effect1_dropShadow_116_2"/>
<feBlend mode="normal" in="SourceGraphic" in2="effect1_dropShadow_116_2" result="shape"/>
</filter>
<filter id="filter2_d_116_2" x="1050" y="208" width="229" height="172" filterUnits="userSpaceOnUse" color-interpolation-filters="sRGB">
<feFlood flood-opacity="0" result="BackgroundImageFix"/>
<feColorMatrix in="SourceAlpha" type="matrix" values="0 0 0 0 0 0 0 0 0 0 0 0 0 0 0 0 0 0 127 0" result="hardAlpha"/>
<feOffset dy="24"/>
<feGaussianBlur stdDeviation="25"/>
<feComposite in2="hardAlpha" operator="out"/>
<feColorMatrix type="matrix" values="0 0 0 0 0 0 0 0 0 0 0 0 0 0 0 0 0 0 0.1 0"/>
<feBlend mode="normal" in2="BackgroundImageFix" result="effect1_dropShadow_116_2"/>
<feBlend mode="normal" in="SourceGraphic" in2="effect1_dropShadow_116_2" result="shape"/>
</filter>
<filter id="filter3_d_116_2" x="256" y="877" width="242" height="172" filterUnits="userSpaceOnUse" color-interpolation-filters="sRGB">
<feFlood flood-opacity="0" result="BackgroundImageFix"/>
<feColorMatrix in="SourceAlpha" type="matrix" values="0 0 0 0 0 0 0 0 0 0 0 0 0 0 0 0 0 0 127 0" result="hardAlpha"/>
<feOffset dy="24"/>
<feGaussianBlur stdDeviation="25"/>
<feComposite in2="hardAlpha" operator="out"/>
<feColorMatrix type="matrix" values="0 0 0 0 0 0 0 0 0 0 0 0 0 0 0 0 0 0 0.1 0"/>
<feBlend mode="normal" in2="BackgroundImageFix" result="effect1_dropShadow_116_2"/>
<feBlend mode="normal" in="SourceGraphic" in2="effect1_dropShadow_116_2" result="shape"/>
</filter>
<filter id="filter4_d_116_2" x="808" y="1201" width="383" height="172" filterUnits="userSpaceOnUse" color-interpolation-filters="sRGB">
<feFlood flood-opacity="0" result="BackgroundImageFix"/>
<feColorMatrix in="SourceAlpha" type="matrix" values="0 0 0 0 0 0 0 0 0 0 0 0 0 0 0 0 0 0 127 0" result="hardAlpha"/>
<feOffset dy="24"/>
<feGaussianBlur stdDeviation="25"/>
<feComposite in2="hardAlpha" operator="out"/>
<feColorMatrix type="matrix" values="0 0 0 0 0 0 0 0 0 0 0 0 0 0 0 0 0 0 0.1 0"/>
<feBlend mode="normal" in2="BackgroundImageFix" result="effect1_dropShadow_116_2"/>
<feBlend mode="normal" in="SourceGraphic" in2="effect1_dropShadow_116_2" result="shape"/>
</filter>
<filter id="filter5_d_116_2" x="249" y="477" width="365" height="172" filterUnits="userSpaceOnUse" color-interpolation-filters="sRGB">
<feFlood flood-opacity="0" result="BackgroundImageFix"/>
<feColorMatrix in="SourceAlpha" type="matrix" values="0 0 0 0 0 0 0 0 0 0 0 0 0 0 0 0 0 0 127 0" result="hardAlpha"/>
<feOffset dy="24"/>
<feGaussianBlur stdDeviation="25"/>
<feComposite in2="hardAlpha" operator="out"/>
<feColorMatrix type="matrix" values="0 0 0 0 0 0 0 0 0 0 0 0 0 0 0 0 0 0 0.1 0"/>
<feBlend mode="normal" in2="BackgroundImageFix" result="effect1_dropShadow_116_2"/>
<feBlend mode="normal" in="SourceGraphic" in2="effect1_dropShadow_116_2" result="shape"/>
</filter>
<filter id="filter6_d_116_2" x="146" y="1109" width="305" height="172" filterUnits="userSpaceOnUse" color-interpolation-filters="sRGB">
<feFlood flood-opacity="0" result="BackgroundImageFix"/>
<feColorMatrix in="SourceAlpha" type="matrix" values="0 0 0 0 0 0 0 0 0 0 0 0 0 0 0 0 0 0 127 0" result="hardAlpha"/>
<feOffset dy="24"/>
<feGaussianBlur stdDeviation="25"/>
<feComposite in2="hardAlpha" operator="out"/>
<feColorMatrix type="matrix" values="0 0 0 0 0 0 0 0 0 0 0 0 0 0 0 0 0 0 0.1 0"/>
<feBlend mode="normal" in2="BackgroundImageFix" result="effect1_dropShadow_116_2"/>
<feBlend mode="normal" in="SourceGraphic" in2="effect1_dropShadow_116_2" result="shape"/>
</filter>
<filter id="filter7_d_116_2" x="736" y="355" width="378" height="172" filterUnits="userSpaceOnUse" color-interpolation-filters="sRGB">
<feFlood flood-opacity="0" result="BackgroundImageFix"/>
<feColorMatrix in="SourceAlpha" type="matrix" values="0 0 0 0 0 0 0 0 0 0 0 0 0 0 0 0 0 0 127 0" result="hardAlpha"/>
<feOffset dy="24"/>
<feGaussianBlur stdDeviation="25"/>
<feComposite in2="hardAlpha" operator="out"/>
<feColorMatrix type="matrix" values="0 0 0 0 0 0 0 0 0 0 0 0 0 0 0 0 0 0 0.1 0"/>
<feBlend mode="normal" in2="BackgroundImageFix" result="effect1_dropShadow_116_2"/>
<feBlend mode="normal" in="SourceGraphic" in2="effect1_dropShadow_116_2" result="shape"/>
</filter>
<clipPath id="clip0_116_2">
<rect width="40" height="40" fill="white" transform="translate(152 345)"/>
</clipPath>
<clipPath id="clip1_116_2">
<rect width="40" height="40" fill="white" transform="translate(1116 250)"/>
</clipPath>
<clipPath id="clip2_116_2">
<rect width="40" height="40" fill="white" transform="translate(322 919)"/>
</clipPath>
</defs>
</svg>
